ArgentumSans-LightItalic.ufo
<glyph name="exclam" format="2">
  <advance width="384"/>
  <unicode hex="0021"/>
  <outline>
    <contour>
      <point x="344" y="1400" type="line"/>
      <point x="273" y="1040" type="line"/>
      <point x="141" y="376" type="line"/>
      <point x="181" y="376" type="line"/>
      <point x="313" y="1040" type="line"/>
      <point x="384" y="1400" type="line"/>
    </contour>
    <contour>
      <point x="101" y="90" type="curve" smooth="yes"/>
      <point x="71" y="90"/>
      <point x="45" y="64"/>
      <point x="45" y="34" type="curve" smooth="yes"/>
      <point x="45" y="6"/>
      <point x="65" y="-14"/>
      <point x="93" y="-14" type="curve" smooth="yes"/>
      <point x="123" y="-14"/>
      <point x="149" y="12"/>
      <point x="149" y="42" type="curve" smooth="yes"/>
      <point x="149" y="70"/>
      <point x="129" y="90"/>
    </contour>
  </outline>
</glyph>
<glyph name="numbersign" format="2">
  <advance width="659"/>
  <unicode hex="0023"/>
  <outline>
    <contour>
      <point x="414" y="0" type="line"/>
      <point x="562" y="700" type="line"/>
      <point x="542" y="700" type="line"/>
      <point x="394" y="0" type="line"/>
    </contour>
    <contour>
      <point x="610" y="228" type="line"/>
      <point x="29" y="228" type="line"/>
      <point x="29" y="208" type="line"/>
      <point x="610" y="208" type="line"/>
    </contour>
    <contour>
      <point x="153" y="0" type="line"/>
      <point x="301" y="700" type="line"/>
      <point x="281" y="700" type="line"/>
      <point x="133" y="0" type="line"/>
    </contour>
    <contour>
      <point x="665" y="489" type="line"/>
      <point x="84" y="489" type="line"/>
      <point x="83" y="469" type="line"/>
      <point x="664" y="469" type="line"/>
    </contour>
  </outline>
</glyph>
<glyph name="dollar" format="2">
  <advance width="569"/>
  <unicode hex="0024"/>
  <anchor x="246" y="0" name="bottom"/>
  <anchor x="325" y="699" name="top"/>
  <outline>
    <contour>
      <point x="202" y="7" type="line"/>
      <point x="178" y="-119" type="line"/>
      <point x="198" y="-119" type="line"/>
      <point x="222" y="7" type="line"/>
    </contour>
    <contour>
      <point x="360" y="804" type="line"/>
      <point x="338" y="692" type="line"/>
      <point x="358" y="692" type="line"/>
      <point x="380" y="804" type="line"/>
    </contour>
    <contour>
      <point x="339" y="702" type="curve"/>
      <point x="202" y="702"/>
      <point x="107" y="641"/>
      <point x="98" y="546" type="curve"/>
      <point x="73" y="289"/>
      <point x="491" y="411"/>
      <point x="465" y="168" type="curve"/>
      <point x="456" y="76"/>
      <point x="364" y="17"/>
      <point x="231" y="17" type="curve"/>
      <point x="146" y="17"/>
      <point x="61" y="53"/>
      <point x="13" y="110" type="curve"/>
      <point x="-3" y="95" type="line"/>
      <point x="50" y="36"/>
      <point x="140" y="-3"/>
      <point x="229" y="-3" type="curve"/>
      <point x="374" y="-3"/>
      <point x="475" y="64"/>
      <point x="485" y="168" type="curve"/>
      <point x="514" y="431"/>
      <point x="95" y="310"/>
      <point x="119" y="546" type="curve"/>
      <point x="127" y="629"/>
      <point x="213" y="682"/>
      <point x="337" y="682" type="curve"/>
      <point x="399" y="682"/>
      <point x="468" y="664"/>
      <point x="510" y="635" type="curve"/>
      <point x="522" y="651" type="line"/>
      <point x="476" y="682"/>
      <point x="404" y="702"/>
    </contour>
  </outline>
</glyph>
<glyph name="percent" format="2">
  <advance width="1716"/>
  <unicode hex="0025"/>
  <outline>
    <contour>
      <point x="630" y="1406" type="curve" smooth="yes"/>
      <point x="412" y="1406"/>
      <point x="278" y="1202"/>
      <point x="278" y="922" type="curve" smooth="yes"/>
      <point x="278" y="752"/>
      <point x="350" y="658"/>
      <point x="486" y="658" type="curve" smooth="yes"/>
      <point x="706" y="658"/>
      <point x="842" y="858"/>
      <point x="842" y="1140" type="curve" smooth="yes"/>
      <point x="842" y="1308"/>
      <point x="768" y="1406"/>
    </contour>
    <contour>
      <point x="624" y="1372" type="curve" smooth="yes"/>
      <point x="740" y="1372"/>
      <point x="800" y="1288"/>
      <point x="800" y="1138" type="curve" smooth="yes"/>
      <point x="800" y="884"/>
      <point x="690" y="694"/>
      <point x="492" y="694" type="curve" smooth="yes"/>
      <point x="378" y="694"/>
      <point x="318" y="776"/>
      <point x="318" y="926" type="curve" smooth="yes"/>
      <point x="318" y="1178"/>
      <point x="426" y="1372"/>
    </contour>
    <contour>
      <point x="1456" y="1398" type="line"/>
      <point x="1412" y="1398" type="line"/>
      <point x="336" y="0" type="line"/>
      <point x="380" y="0" type="line"/>
    </contour>
    <contour>
      <point x="1302" y="740" type="curve" smooth="yes"/>
      <point x="1084" y="740"/>
      <point x="950" y="536"/>
      <point x="950" y="256" type="curve" smooth="yes"/>
      <point x="950" y="86"/>
      <point x="1022" y="-8"/>
      <point x="1158" y="-8" type="curve" smooth="yes"/>
      <point x="1378" y="-8"/>
      <point x="1514" y="192"/>
      <point x="1514" y="474" type="curve" smooth="yes"/>
      <point x="1514" y="642"/>
      <point x="1440" y="740"/>
    </contour>
    <contour>
      <point x="1296" y="706" type="curve" smooth="yes"/>
      <point x="1412" y="706"/>
      <point x="1472" y="622"/>
      <point x="1472" y="472" type="curve" smooth="yes"/>
      <point x="1472" y="218"/>
      <point x="1362" y="28"/>
      <point x="1164" y="28" type="curve" smooth="yes"/>
      <point x="1050" y="28"/>
      <point x="990" y="110"/>
      <point x="990" y="260" type="curve" smooth="yes"/>
      <point x="990" y="512"/>
      <point x="1098" y="706"/>
    </contour>
  </outline>
</glyph>
<glyph name="ampersand" format="2">
  <advance width="617"/>
  <unicode hex="0026"/>
  <outline>
    <contour>
      <point x="351" y="700" type="curve" smooth="yes"/>
      <point x="255" y="700"/>
      <point x="179" y="631"/>
      <point x="179" y="543" type="curve" smooth="yes"/>
      <point x="179" y="450"/>
      <point x="210" y="405"/>
      <point x="557" y="0" type="curve"/>
      <point x="572" y="13" type="line"/>
      <point x="218" y="430"/>
      <point x="199" y="457"/>
      <point x="199" y="542" type="curve" smooth="yes"/>
      <point x="199" y="620"/>
      <point x="265" y="680"/>
      <point x="351" y="680" type="curve" smooth="yes"/>
      <point x="417" y="680"/>
      <point x="456" y="646"/>
      <point x="456" y="589" type="curve" smooth="yes"/>
      <point x="456" y="401"/>
      <point x="34" y="397"/>
      <point x="34" y="164" type="curve" smooth="yes"/>
      <point x="34" y="69"/>
      <point x="111" y="0"/>
      <point x="216" y="0" type="curve" smooth="yes"/>
      <point x="337" y="0"/>
      <point x="457" y="100"/>
      <point x="570" y="298" type="curve"/>
      <point x="553" y="312" type="line"/>
      <point x="444" y="117"/>
      <point x="331" y="20"/>
      <point x="216" y="20" type="curve" smooth="yes"/>
      <point x="122" y="20"/>
      <point x="54" y="79"/>
      <point x="54" y="162" type="curve" smooth="yes"/>
      <point x="54" y="382"/>
      <point x="476" y="381"/>
      <point x="476" y="588" type="curve" smooth="yes"/>
      <point x="476" y="657"/>
      <point x="429" y="700"/>
    </contour>
  </outline>
</glyph>
<glyph name="quotesingle" format="2">
  <advance width="118"/>
  <unicode hex="0027"/>
  <outline>
    <contour>
      <point x="137" y="700" type="line"/>
      <point x="99" y="510" type="line"/>
      <point x="119" y="510" type="line"/>
      <point x="157" y="700" type="line"/>
    </contour>
  </outline>
</glyph>
<glyph name="parenleft" format="2">
  <advance width="253"/>
  <unicode hex="0028"/>
  <outline>
    <contour>
      <point x="301" y="742" type="line"/>
      <point x="207" y="634"/>
      <point x="136" y="481"/>
      <point x="102" y="311" type="curve" smooth="yes"/>
      <point x="68" y="139"/>
      <point x="77" y="-14"/>
      <point x="128" y="-124" type="curve"/>
      <point x="148" y="-124" type="line"/>
      <point x="97" y="-16"/>
      <point x="87" y="137"/>
      <point x="121" y="307" type="curve" smooth="yes"/>
      <point x="156" y="479"/>
      <point x="226" y="632"/>
      <point x="321" y="742" type="curve"/>
    </contour>
  </outline>
</glyph>
<glyph name="asterisk" format="2">
  <advance width="596"/>
  <unicode hex="002A"/>
  <outline>
    <contour>
      <point x="669" y="1064" type="line"/>
      <point x="467" y="1180" type="line"/>
      <point x="669" y="1296" type="line"/>
      <point x="651" y="1330" type="line"/>
      <point x="449" y="1212" type="line"/>
      <point x="449" y="1446" type="line"/>
      <point x="413" y="1446" type="line"/>
      <point x="413" y="1212" type="line"/>
      <point x="211" y="1330" type="line"/>
      <point x="193" y="1296" type="line"/>
      <point x="393" y="1180" type="line"/>
      <point x="193" y="1064" type="line"/>
      <point x="211" y="1030" type="line"/>
      <point x="413" y="1148" type="line"/>
      <point x="413" y="914" type="line"/>
      <point x="449" y="914" type="line"/>
      <point x="449" y="1148" type="line"/>
      <point x="651" y="1030" type="line"/>
    </contour>
  </outline>
</glyph>
<glyph name="plus" format="2">
  <advance width="458"/>
  <unicode hex="002B"/>
  <outline>
    <contour>
      <point x="43" y="330" type="line"/>
      <point x="39" y="310" type="line"/>
      <point x="439" y="310" type="line"/>
      <point x="443" y="330" type="line"/>
    </contour>
    <contour>
      <point x="271" y="520" type="line"/>
      <point x="191" y="120" type="line"/>
      <point x="211" y="120" type="line"/>
      <point x="291" y="520" type="line"/>
    </contour>
  </outline>
</glyph>
<glyph name="comma" format="2">
  <advance width="270"/>
  <unicode hex="002C"/>
  <outline>
    <contour>
      <point x="80" y="4" type="line"/>
      <point x="28" y="-110" type="line"/>
      <point x="48" y="-110" type="line"/>
      <point x="100" y="-7" type="line" smooth="yes"/>
      <point x="105" y="3"/>
      <point x="109" y="10"/>
      <point x="110" y="19" type="curve"/>
      <point x="112" y="33"/>
      <point x="100" y="45"/>
      <point x="86" y="45" type="curve" smooth="yes"/>
      <point x="72" y="45"/>
      <point x="59" y="33"/>
      <point x="58" y="19" type="curve" smooth="yes"/>
      <point x="57" y="5"/>
      <point x="67" y="-7"/>
      <point x="81" y="-7" type="curve"/>
    </contour>
  </outline>
</glyph>
<glyph name="hyphen" format="2">
  <advance width="714"/>
  <unicode hex="002D"/>
  <outline>
    <contour>
      <point x="160" y="620" type="line"/>
      <point x="152" y="580" type="line"/>
      <point x="586" y="580" type="line"/>
      <point x="594" y="620" type="line"/>
    </contour>
  </outline>
</glyph>
<glyph name="period" format="2">
  <advance width="270"/>
  <unicode hex="002E"/>
  <outline>
    <contour>
      <point x="89" y="45" type="curve" smooth="yes"/>
      <point x="74" y="45"/>
      <point x="61" y="32"/>
      <point x="61" y="17" type="curve" smooth="yes"/>
      <point x="61" y="3"/>
      <point x="71" y="-7"/>
      <point x="85" y="-7" type="curve" smooth="yes"/>
      <point x="100" y="-7"/>
      <point x="113" y="6"/>
      <point x="113" y="21" type="curve" smooth="yes"/>
      <point x="113" y="35"/>
      <point x="103" y="45"/>
    </contour>
  </outline>
</glyph>
<glyph name="slash" format="2">
  <advance width="326"/>
  <unicode hex="002F"/>
  <outline>
    <contour>
      <point x="373" y="826" type="line"/>
      <point x="-33" y="-130" type="line"/>
      <point x="-12" y="-130" type="line"/>
      <point x="394" y="826" type="line"/>
    </contour>
  </outline>
</glyph>
<glyph name="zero" format="2">
  <advance width="745"/>
  <unicode hex="0030"/>
  <outline>
    <contour>
      <point x="468" y="702" type="curve" smooth="yes"/>
      <point x="288" y="702"/>
      <point x="163" y="603"/>
      <point x="118" y="378" type="curve" smooth="yes"/>
      <point x="73" y="152"/>
      <point x="147" y="-2"/>
      <point x="327" y="-2" type="curve" smooth="yes"/>
      <point x="508" y="-2"/>
      <point x="632" y="97"/>
      <point x="678" y="323" type="curve" smooth="yes"/>
      <point x="723" y="548"/>
      <point x="648" y="702"/>
    </contour>
    <contour>
      <point x="464" y="683" type="curve" smooth="yes"/>
      <point x="631" y="683"/>
      <point x="700" y="538"/>
      <point x="658" y="325" type="curve" smooth="yes"/>
      <point x="616" y="111"/>
      <point x="499" y="17"/>
      <point x="331" y="17" type="curve" smooth="yes"/>
      <point x="163" y="17"/>
      <point x="97" y="163"/>
      <point x="139" y="376" type="curve" smooth="yes"/>
      <point x="182" y="590"/>
      <point x="296" y="683"/>
    </contour>
  </outline>
</glyph>
<glyph name="one" format="2">
  <advance width="361"/>
  <unicode hex="0031"/>
  <outline>
    <contour>
      <point x="102" y="680" type="line"/>
      <point x="298" y="680" type="line"/>
      <point x="291" y="689" type="line"/>
      <point x="157" y="0" type="line"/>
      <point x="176" y="0" type="line"/>
      <point x="312" y="700" type="line"/>
      <point x="106" y="700" type="line"/>
    </contour>
  </outline>
</glyph>
<glyph name="two" format="2">
  <advance width="563"/>
  <unicode hex="0032"/>
  <outline>
    <contour>
      <point x="-2" y="29" type="line"/>
      <point x="-9" y="0" type="line"/>
      <point x="471" y="0" type="line"/>
      <point x="475" y="20" type="line"/>
      <point x="6" y="20" type="line"/>
      <point x="7" y="13" type="line"/>
      <point x="352" y="314" type="line" smooth="yes"/>
      <point x="454" y="403"/>
      <point x="524" y="492"/>
      <point x="524" y="565" type="curve" smooth="yes"/>
      <point x="524" y="649"/>
      <point x="458" y="701"/>
      <point x="345" y="701" type="curve" smooth="yes"/>
      <point x="268" y="701"/>
      <point x="180" y="667"/>
      <point x="112" y="610" type="curve"/>
      <point x="123" y="596" type="line"/>
      <point x="187" y="649"/>
      <point x="269" y="681"/>
      <point x="341" y="681" type="curve" smooth="yes"/>
      <point x="444" y="681"/>
      <point x="503" y="636"/>
      <point x="503" y="562" type="curve" smooth="yes"/>
      <point x="503" y="495"/>
      <point x="438" y="412"/>
      <point x="341" y="328" type="curve" smooth="yes"/>
    </contour>
  </outline>
</glyph>
<glyph name="three" format="2">
  <advance width="576"/>
  <unicode hex="0033"/>
  <outline>
    <contour>
      <point x="216" y="394" type="line"/>
      <point x="217" y="388" type="line"/>
      <point x="556" y="681" type="line"/>
      <point x="560" y="699" type="line"/>
      <point x="145" y="699" type="line"/>
      <point x="141" y="679" type="line"/>
      <point x="538" y="679" type="line"/>
      <point x="536" y="685" type="line"/>
      <point x="195" y="392" type="line"/>
      <point x="192" y="374" type="line"/>
      <point x="270" y="374" type="line" smooth="yes"/>
      <point x="406" y="374"/>
      <point x="484" y="325"/>
      <point x="484" y="233" type="curve" smooth="yes"/>
      <point x="484" y="112"/>
      <point x="373" y="18"/>
      <point x="203" y="18" type="curve" smooth="yes"/>
      <point x="127" y="18"/>
      <point x="53" y="40"/>
      <point x="4" y="73" type="curve"/>
      <point x="-11" y="57" type="line"/>
      <point x="41" y="22"/>
      <point x="119" y="-2"/>
      <point x="199" y="-2" type="curve" smooth="yes"/>
      <point x="381" y="-2"/>
      <point x="505" y="102"/>
      <point x="505" y="238" type="curve" smooth="yes"/>
      <point x="505" y="336"/>
      <point x="416" y="394"/>
      <point x="273" y="394" type="curve" smooth="yes"/>
    </contour>
  </outline>
</glyph>
<glyph name="four" format="2">
  <advance width="572"/>
  <unicode hex="0034"/>
  <outline>
    <contour>
      <point x="532" y="208" type="line"/>
      <point x="536" y="228" type="line"/>
      <point x="39" y="228" type="line"/>
      <point x="42" y="220" type="line"/>
      <point x="435" y="700" type="line"/>
      <point x="412" y="700" type="line"/>
      <point x="29" y="233" type="line"/>
      <point x="24" y="208" type="line"/>
    </contour>
    <contour>
      <point x="350" y="0" type="line"/>
      <point x="371" y="0" type="line"/>
      <point x="459" y="453" type="line"/>
      <point x="439" y="453" type="line"/>
    </contour>
  </outline>
</glyph>
<glyph name="five" format="2">
  <advance width="607"/>
  <unicode hex="0035"/>
  <outline>
    <contour>
      <point x="193" y="689" type="line"/>
      <point x="182" y="680" type="line"/>
      <point x="575" y="680" type="line"/>
      <point x="579" y="700" type="line"/>
      <point x="175" y="700" type="line"/>
      <point x="109" y="362" type="line"/>
      <point x="172" y="384"/>
      <point x="248" y="398"/>
      <point x="303" y="398" type="curve" smooth="yes"/>
      <point x="424" y="398"/>
      <point x="497" y="339"/>
      <point x="497" y="250" type="curve" smooth="yes"/>
      <point x="497" y="117"/>
      <point x="386" y="18"/>
      <point x="227" y="18" type="curve" smooth="yes"/>
      <point x="158" y="18"/>
      <point x="75" y="43"/>
      <point x="18" y="82" type="curve"/>
      <point x="5" y="66" type="line"/>
      <point x="64" y="25"/>
      <point x="149" y="-2"/>
      <point x="224" y="-2" type="curve" smooth="yes"/>
      <point x="396" y="-2"/>
      <point x="517" y="107"/>
      <point x="517" y="254" type="curve" smooth="yes"/>
      <point x="517" y="352"/>
      <point x="439" y="418"/>
      <point x="307" y="418" type="curve" smooth="yes"/>
      <point x="257" y="418"/>
      <point x="187" y="406"/>
      <point x="128" y="388" type="curve"/>
      <point x="133" y="381" type="line"/>
    </contour>
  </outline>
</glyph>
<glyph name="six" format="2">
  <advance width="664"/>
  <unicode hex="0036"/>
  <outline>
    <contour>
      <point x="332" y="-2" type="curve" smooth="yes"/>
      <point x="479" y="-2"/>
      <point x="583" y="104"/>
      <point x="583" y="256" type="curve" smooth="yes"/>
      <point x="583" y="368"/>
      <point x="506" y="437"/>
      <point x="376" y="437" type="curve" smooth="yes"/>
      <point x="256" y="437"/>
      <point x="162" y="370"/>
      <point x="122" y="259" type="curve"/>
      <point x="145" y="522"/>
      <point x="261" y="681"/>
      <point x="432" y="681" type="curve" smooth="yes"/>
      <point x="491" y="681"/>
      <point x="559" y="661"/>
      <point x="610" y="629" type="curve"/>
      <point x="623" y="647" type="line"/>
      <point x="564" y="681"/>
      <point x="491" y="701"/>
      <point x="430" y="701" type="curve" smooth="yes"/>
      <point x="247" y="701"/>
      <point x="103" y="500"/>
      <point x="103" y="245" type="curve" smooth="yes"/>
      <point x="103" y="86"/>
      <point x="184" y="-2"/>
    </contour>
    <contour>
      <point x="328" y="19" type="curve" smooth="yes"/>
      <point x="213" y="19"/>
      <point x="131" y="93"/>
      <point x="131" y="196" type="curve" smooth="yes"/>
      <point x="131" y="316"/>
      <point x="244" y="417"/>
      <point x="378" y="417" type="curve" smooth="yes"/>
      <point x="492" y="417"/>
      <point x="562" y="353"/>
      <point x="562" y="254" type="curve" smooth="yes"/>
      <point x="562" y="117"/>
      <point x="465" y="19"/>
    </contour>
  </outline>
</glyph>
<glyph name="seven" format="2">
  <advance width="634"/>
  <unicode hex="0037"/>
  <outline>
    <contour>
      <point x="109" y="567" type="line"/>
      <point x="129" y="567" type="line"/>
      <point x="153" y="688" type="line"/>
      <point x="142" y="679" type="line"/>
      <point x="615" y="679" type="line"/>
      <point x="612" y="687" type="line"/>
      <point x="128" y="0" type="line"/>
      <point x="150" y="0" type="line"/>
      <point x="623" y="674" type="line"/>
      <point x="628" y="699" type="line"/>
      <point x="135" y="699" type="line"/>
    </contour>
  </outline>
</glyph>
<glyph name="eight" format="2">
  <advance width="655"/>
  <unicode hex="0038"/>
  <outline>
    <contour>
      <point x="414" y="701" type="curve" smooth="yes"/>
      <point x="265" y="701"/>
      <point x="166" y="626"/>
      <point x="166" y="506" type="curve" smooth="yes"/>
      <point x="166" y="442"/>
      <point x="204" y="397"/>
      <point x="270" y="376" type="curve"/>
      <point x="146" y="348"/>
      <point x="67" y="274"/>
      <point x="67" y="160" type="curve" smooth="yes"/>
      <point x="67" y="58"/>
      <point x="144" y="-2"/>
      <point x="278" y="-2" type="curve" smooth="yes"/>
      <point x="450" y="-2"/>
      <point x="564" y="87"/>
      <point x="564" y="226" type="curve" smooth="yes"/>
      <point x="564" y="302"/>
      <point x="515" y="355"/>
      <point x="431" y="376" type="curve"/>
      <point x="535" y="406"/>
      <point x="597" y="468"/>
      <point x="597" y="564" type="curve" smooth="yes"/>
      <point x="597" y="650"/>
      <point x="530" y="701"/>
    </contour>
    <contour>
      <point x="348" y="363" type="curve" smooth="yes"/>
      <point x="472" y="363"/>
      <point x="543" y="308"/>
      <point x="543" y="222" type="curve" smooth="yes"/>
      <point x="543" y="99"/>
      <point x="438" y="18"/>
      <point x="281" y="18" type="curve" smooth="yes"/>
      <point x="158" y="18"/>
      <point x="87" y="74"/>
      <point x="87" y="166" type="curve" smooth="yes"/>
      <point x="87" y="286"/>
      <point x="193" y="363"/>
    </contour>
    <contour>
      <point x="410" y="681" type="curve" smooth="yes"/>
      <point x="516" y="681"/>
      <point x="576" y="634"/>
      <point x="576" y="558" type="curve" smooth="yes"/>
      <point x="576" y="452"/>
      <point x="488" y="383"/>
      <point x="352" y="383" type="curve" smooth="yes"/>
      <point x="247" y="383"/>
      <point x="187" y="431"/>
      <point x="187" y="508" type="curve" smooth="yes"/>
      <point x="187" y="613"/>
      <point x="276" y="681"/>
    </contour>
  </outline>
</glyph>
<glyph name="nine" format="2">
  <advance width="653"/>
  <unicode hex="0039"/>
  <outline>
    <contour>
      <point x="71" y="52" type="line"/>
      <point x="130" y="18"/>
      <point x="203" y="-2"/>
      <point x="264" y="-2" type="curve" smooth="yes"/>
      <point x="447" y="-2"/>
      <point x="591" y="199"/>
      <point x="591" y="454" type="curve" smooth="yes"/>
      <point x="591" y="613"/>
      <point x="510" y="701"/>
      <point x="362" y="701" type="curve" smooth="yes"/>
      <point x="215" y="701"/>
      <point x="111" y="595"/>
      <point x="111" y="443" type="curve" smooth="yes"/>
      <point x="111" y="331"/>
      <point x="188" y="262"/>
      <point x="318" y="262" type="curve" smooth="yes"/>
      <point x="438" y="262"/>
      <point x="532" y="329"/>
      <point x="572" y="440" type="curve"/>
      <point x="549" y="177"/>
      <point x="433" y="18"/>
      <point x="262" y="18" type="curve" smooth="yes"/>
      <point x="203" y="18"/>
      <point x="135" y="38"/>
      <point x="84" y="70" type="curve"/>
    </contour>
    <contour>
      <point x="366" y="680" type="curve" smooth="yes"/>
      <point x="481" y="680"/>
      <point x="563" y="606"/>
      <point x="563" y="503" type="curve" smooth="yes"/>
      <point x="563" y="383"/>
      <point x="450" y="282"/>
      <point x="316" y="282" type="curve" smooth="yes"/>
      <point x="202" y="282"/>
      <point x="132" y="346"/>
      <point x="132" y="445" type="curve" smooth="yes"/>
      <point x="132" y="582"/>
      <point x="229" y="680"/>
    </contour>
  </outline>
</glyph>
<glyph name="less" format="2">
  <advance width="458"/>
  <unicode hex="003C"/>
  <outline>
    <contour>
      <point x="45" y="341" type="line"/>
      <point x="40" y="315" type="line"/>
      <point x="403" y="129" type="line"/>
      <point x="407" y="150" type="line"/>
      <point x="62" y="327" type="line"/>
      <point x="478" y="504" type="line"/>
      <point x="482" y="527" type="line"/>
    </contour>
  </outline>
</glyph>
<glyph name="equal" format="2">
  <advance width="960"/>
  <unicode hex="003D"/>
  <outline>
    <contour>
      <point x="148" y="860" type="line"/>
      <point x="140" y="820" type="line"/>
      <point x="940" y="820" type="line"/>
      <point x="948" y="860" type="line"/>
    </contour>
    <contour>
      <point x="68" y="460" type="line"/>
      <point x="60" y="420" type="line"/>
      <point x="860" y="420" type="line"/>
      <point x="868" y="460" type="line"/>
    </contour>
  </outline>
</glyph>
<glyph name="greater" format="2">
  <advance width="960"/>
  <unicode hex="003E"/>
  <outline>
    <contour>
      <point x="848" y="630" type="line"/>
      <point x="858" y="682" type="line"/>
      <point x="132" y="1054" type="line"/>
      <point x="124" y="1012" type="line"/>
      <point x="814" y="658" type="line"/>
      <point x="-18" y="304" type="line"/>
      <point x="-26" y="258" type="line"/>
    </contour>
  </outline>
</glyph>
<glyph name="question" format="2">
  <advance width="1108"/>
  <unicode hex="003F"/>
  <outline>
    <contour>
      <point x="477" y="376" type="line"/>
      <point x="525" y="620" type="line" smooth="yes"/>
      <point x="542" y="706"/>
      <point x="1013" y="793"/>
      <point x="1013" y="1088" type="curve" smooth="yes"/>
      <point x="1013" y="1332"/>
      <point x="749" y="1406"/>
      <point x="550" y="1406" type="curve" smooth="yes"/>
      <point x="400" y="1406"/>
      <point x="256" y="1363"/>
      <point x="140" y="1267" type="curve"/>
      <point x="162" y="1236" type="line"/>
      <point x="273" y="1327"/>
      <point x="402" y="1367"/>
      <point x="545" y="1367" type="curve" smooth="yes"/>
      <point x="724" y="1367"/>
      <point x="972" y="1308"/>
      <point x="972" y="1085" type="curve" smooth="yes"/>
      <point x="972" y="811"/>
      <point x="508" y="744"/>
      <point x="483" y="620" type="curve" smooth="yes"/>
      <point x="434" y="376" type="line"/>
    </contour>
    <contour>
      <point x="387" y="-12" type="curve" smooth="yes"/>
      <point x="416" y="-12"/>
      <point x="442" y="17"/>
      <point x="442" y="45" type="curve" smooth="yes"/>
      <point x="442" y="71"/>
      <point x="421" y="92"/>
      <point x="395" y="92" type="curve" smooth="yes"/>
      <point x="365" y="92"/>
      <point x="335" y="68"/>
      <point x="335" y="37" type="curve" smooth="yes"/>
      <point x="335" y="7"/>
      <point x="358" y="-12"/>
    </contour>
  </outline>
</glyph>
<glyph name="at" format="2">
  <advance width="2012"/>
  <unicode hex="0040"/>
  <outline>
    <contour>
      <point x="1142" y="1442" type="curve" smooth="yes"/>
      <point x="562" y="1442"/>
      <point x="92" y="972"/>
      <point x="92" y="388" type="curve" smooth="yes"/>
      <point x="92" y="-54"/>
      <point x="406" y="-356"/>
      <point x="868" y="-356" type="curve" smooth="yes"/>
      <point x="990" y="-356"/>
      <point x="1152" y="-318"/>
      <point x="1252" y="-264" type="curve"/>
      <point x="1240" y="-228" type="line"/>
      <point x="1140" y="-278"/>
      <point x="982" y="-316"/>
      <point x="870" y="-316" type="curve" smooth="yes"/>
      <point x="430" y="-316"/>
      <point x="132" y="-30"/>
      <point x="132" y="390" type="curve" smooth="yes"/>
      <point x="132" y="946"/>
      <point x="586" y="1402"/>
      <point x="1142" y="1402" type="curve" smooth="yes"/>
      <point x="1586" y="1402"/>
      <point x="1884" y="1104"/>
      <point x="1884" y="664" type="curve" smooth="yes"/>
      <point x="1884" y="318"/>
      <point x="1722" y="8"/>
      <point x="1542" y="8" type="curve" smooth="yes"/>
      <point x="1450" y="8"/>
      <point x="1404" y="78"/>
      <point x="1420" y="190" type="curve" smooth="yes"/>
      <point x="1540" y="1050" type="line"/>
      <point x="1500" y="1050" type="line"/>
      <point x="1456" y="744" type="line"/>
      <point x="1406" y="936"/>
      <point x="1244" y="1054"/>
      <point x="1032" y="1054" type="curve" smooth="yes"/>
      <point x="708" y="1054"/>
      <point x="450" y="784"/>
      <point x="450" y="448" type="curve" smooth="yes"/>
      <point x="450" y="190"/>
      <point x="628" y="12"/>
      <point x="890" y="12" type="curve" smooth="yes"/>
      <point x="1102" y="12"/>
      <point x="1294" y="128"/>
      <point x="1396" y="318" type="curve"/>
      <point x="1380" y="186" type="line" smooth="yes"/>
      <point x="1364" y="54"/>
      <point x="1426" y="-32"/>
      <point x="1536" y="-32" type="curve" smooth="yes"/>
      <point x="1748" y="-32"/>
      <point x="1922" y="284"/>
      <point x="1922" y="668" type="curve" smooth="yes"/>
      <point x="1922" y="1128"/>
      <point x="1606" y="1442"/>
    </contour>
    <contour>
      <point x="1030" y="1014" type="curve" smooth="yes"/>
      <point x="1270" y="1014"/>
      <point x="1434" y="852"/>
      <point x="1434" y="612" type="curve" smooth="yes"/>
      <point x="1434" y="304"/>
      <point x="1190" y="52"/>
      <point x="892" y="52" type="curve" smooth="yes"/>
      <point x="650" y="52"/>
      <point x="488" y="214"/>
      <point x="488" y="452" type="curve" smooth="yes"/>
      <point x="488" y="760"/>
      <point x="734" y="1014"/>
    </contour>
  </outline>
</glyph>
<glyph name="A" format="2">
  <advance width="665"/>
  <unicode hex="0041"/>
  <anchor x="281" y="0" name="bottom"/>
  <anchor x="614" y="0" name="ogonek"/>
  <anchor x="397" y="700" name="top"/>
  <outline>
    <contour>
      <point x="384" y="700" type="line"/>
      <point x="-53" y="0" type="line"/>
      <point x="-29" y="0" type="line"/>
      <point x="396" y="685" type="line"/>
      <point x="388" y="686" type="line"/>
      <point x="591" y="0" type="line"/>
      <point x="614" y="0" type="line"/>
      <point x="406" y="700" type="line"/>
    </contour>
    <contour>
      <point x="101" y="233" type="line"/>
      <point x="98" y="213" type="line"/>
      <point x="533" y="213" type="line"/>
      <point x="536" y="233" type="line"/>
    </contour>
  </outline>
</glyph>
<glyph name="B" format="2">
  <advance width="1464"/>
  <unicode hex="0042"/>
  <outline>
    <contour>
      <point x="430" y="1400" type="line"/>
      <point x="150" y="0" type="line"/>
      <point x="714" y="0" type="line" smooth="yes"/>
      <point x="1078" y="0"/>
      <point x="1298" y="168"/>
      <point x="1298" y="440" type="curve" smooth="yes"/>
      <point x="1298" y="598"/>
      <point x="1196" y="708"/>
      <point x="1010" y="730" type="curve"/>
      <point x="1226" y="766"/>
      <point x="1358" y="916"/>
      <point x="1358" y="1120" type="curve" smooth="yes"/>
      <point x="1358" y="1296"/>
      <point x="1228" y="1400"/>
      <point x="994" y="1400" type="curve" smooth="yes"/>
    </contour>
    <contour>
      <point x="466" y="1378" type="line"/>
      <point x="444" y="1360" type="line"/>
      <point x="986" y="1360" type="line" smooth="yes"/>
      <point x="1200" y="1360"/>
      <point x="1318" y="1268"/>
      <point x="1318" y="1110" type="curve" smooth="yes"/>
      <point x="1318" y="886"/>
      <point x="1146" y="746"/>
      <point x="862" y="746" type="curve" smooth="yes"/>
      <point x="328" y="746" type="line"/>
      <point x="322" y="708" type="line"/>
      <point x="856" y="708" type="line" smooth="yes"/>
      <point x="1116" y="708"/>
      <point x="1258" y="606"/>
      <point x="1258" y="432" type="curve" smooth="yes"/>
      <point x="1258" y="190"/>
      <point x="1058" y="40"/>
      <point x="722" y="40" type="curve" smooth="yes"/>
      <point x="180" y="40" type="line"/>
      <point x="194" y="22" type="line"/>
    </contour>
  </outline>
</glyph>
<glyph name="C" format="2">
  <advance width="711"/>
  <unicode hex="0043"/>
  <anchor x="356" y="0" name="bottom"/>
  <anchor x="448" y="700" name="top"/>
  <outline>
    <contour>
      <point x="453" y="704" type="curve" smooth="yes"/>
      <point x="256" y="704"/>
      <point x="79" y="546"/>
      <point x="60" y="353" type="curve" smooth="yes"/>
      <point x="41" y="157"/>
      <point x="186" y="-3"/>
      <point x="385" y="-3" type="curve" smooth="yes"/>
      <point x="476" y="-3"/>
      <point x="564" y="32"/>
      <point x="634" y="89" type="curve"/>
      <point x="621" y="102" type="line"/>
      <point x="556" y="48"/>
      <point x="473" y="16"/>
      <point x="385" y="16" type="curve" smooth="yes"/>
      <point x="198" y="16"/>
      <point x="61" y="166"/>
      <point x="79" y="351" type="curve" smooth="yes"/>
      <point x="97" y="536"/>
      <point x="264" y="685"/>
      <point x="453" y="685" type="curve" smooth="yes"/>
      <point x="539" y="685"/>
      <point x="616" y="654"/>
      <point x="671" y="600" type="curve"/>
      <point x="685" y="613" type="line"/>
      <point x="627" y="670"/>
      <point x="546" y="704"/>
    </contour>
  </outline>
</glyph>
<glyph name="D" format="2">
  <advance width="791"/>
  <unicode hex="0044"/>
  <anchor x="334" y="0" name="bottom"/>
  <anchor x="213" y="351" name="center"/>
  <anchor x="464" y="700" name="top"/>
  <outline>
    <contour>
      <point x="205" y="700" type="line"/>
      <point x="66" y="0" type="line"/>
      <point x="359" y="0" type="line" smooth="yes"/>
      <point x="556" y="0"/>
      <point x="740" y="157"/>
      <point x="769" y="349" type="curve" smooth="yes"/>
      <point x="799" y="543"/>
      <point x="661" y="700"/>
      <point x="464" y="700" type="curve" smooth="yes"/>
    </contour>
    <contour>
      <point x="461" y="680" type="line" smooth="yes"/>
      <point x="647" y="680"/>
      <point x="777" y="532"/>
      <point x="750" y="351" type="curve" smooth="yes"/>
      <point x="722" y="168"/>
      <point x="548" y="20"/>
      <point x="362" y="20" type="curve" smooth="yes"/>
      <point x="81" y="20" type="line"/>
      <point x="88" y="11" type="line"/>
      <point x="223" y="689" type="line"/>
      <point x="212" y="680" type="line"/>
    </contour>
  </outline>
</glyph>
<glyph name="E" format="2">
  <advance width="1290"/>
  <unicode hex="0045"/>
  <anchor x="662" y="0" name="bottom"/>
  <anchor x="1056" y="0" name="ogonek"/>
  <anchor x="882" y="1400" name="top"/>
  <anchor x="216" y="1400" name="topleft"/>
  <outline>
    <contour>
      <point x="322" y="702" type="line"/>
      <point x="1076" y="702" type="line"/>
      <point x="1084" y="742" type="line"/>
      <point x="330" y="742" type="line"/>
    </contour>
    <contour>
      <point x="468" y="1378" type="line"/>
      <point x="446" y="1360" type="line"/>
      <point x="1300" y="1360" type="line"/>
      <point x="1308" y="1400" type="line"/>
      <point x="432" y="1400" type="line"/>
      <point x="152" y="0" type="line"/>
      <point x="1056" y="0" type="line"/>
      <point x="1064" y="40" type="line"/>
      <point x="182" y="40" type="line"/>
      <point x="196" y="22" type="line"/>
    </contour>
  </outline>
</glyph>
<glyph name="F" format="2">
  <advance width="524"/>
  <unicode hex="0046"/>
  <outline>
    <contour>
      <point x="145" y="324" type="line"/>
      <point x="492" y="324" type="line"/>
      <point x="496" y="344" type="line"/>
      <point x="149" y="344" type="line"/>
    </contour>
    <contour>
      <point x="223" y="689" type="line"/>
      <point x="212" y="680" type="line"/>
      <point x="609" y="680" type="line"/>
      <point x="613" y="700" type="line"/>
      <point x="205" y="700" type="line"/>
      <point x="65" y="0" type="line"/>
      <point x="85" y="0" type="line"/>
    </contour>
  </outline>
</glyph>
<glyph name="G" format="2">
  <advance width="754"/>
  <unicode hex="0047"/>
  <anchor x="375" y="0" name="bottom"/>
  <anchor x="445" y="700" name="top"/>
  <outline>
    <contour>
      <point x="453" y="704" type="curve" smooth="yes"/>
      <point x="256" y="704"/>
      <point x="79" y="546"/>
      <point x="60" y="353" type="curve" smooth="yes"/>
      <point x="41" y="157"/>
      <point x="186" y="-3"/>
      <point x="385" y="-3" type="curve" smooth="yes"/>
      <point x="476" y="-3"/>
      <point x="552" y="32"/>
      <point x="622" y="89" type="curve"/>
      <point x="610" y="102" type="line"/>
      <point x="545" y="48"/>
      <point x="473" y="16"/>
      <point x="385" y="16" type="curve" smooth="yes"/>
      <point x="198" y="16"/>
      <point x="61" y="166"/>
      <point x="79" y="351" type="curve" smooth="yes"/>
      <point x="97" y="536"/>
      <point x="264" y="685"/>
      <point x="453" y="685" type="curve" smooth="yes"/>
      <point x="539" y="685"/>
      <point x="616" y="654"/>
      <point x="671" y="600" type="curve"/>
      <point x="685" y="613" type="line"/>
      <point x="627" y="670"/>
      <point x="546" y="704"/>
    </contour>
    <contour>
      <point x="603" y="97" type="line"/>
      <point x="622" y="89" type="line"/>
      <point x="661" y="362" type="line"/>
      <point x="418" y="362" type="line"/>
      <point x="415" y="342" type="line"/>
      <point x="638" y="342" type="line"/>
    </contour>
  </outline>
</glyph>
<glyph name="H" format="2">
  <advance width="790"/>
  <unicode hex="0048"/>
  <anchor x="404" y="0" name="bottom"/>
  <anchor x="474" y="351" name="center"/>
  <anchor x="544" y="700" name="top"/>
  <anchor x="163" y="700" name="topleft"/>
  <outline>
    <contour>
      <point x="232" y="700" type="line"/>
      <point x="212" y="700" type="line"/>
      <point x="72" y="0" type="line"/>
      <point x="92" y="0" type="line"/>
    </contour>
    <contour>
      <point x="596" y="0" type="line"/>
      <point x="616" y="0" type="line"/>
      <point x="756" y="700" type="line"/>
      <point x="736" y="700" type="line"/>
    </contour>
    <contour>
      <point x="156" y="344" type="line"/>
      <point x="670" y="344" type="line"/>
      <point x="674" y="364" type="line"/>
      <point x="160" y="364" type="line"/>
    </contour>
  </outline>
</glyph>
<glyph name="I" format="2">
  <advance width="254"/>
  <unicode hex="0049"/>
  <anchor x="75" y="0" name="bottom"/>
  <anchor x="84" y="0" name="ogonek"/>
  <anchor x="215" y="700" name="top"/>
  <outline>
    <contour>
      <point x="204" y="700" type="line"/>
      <point x="64" y="0" type="line"/>
      <point x="84" y="0" type="line"/>
      <point x="224" y="700" type="line"/>
    </contour>
  </outline>
</glyph>
<glyph name="J" format="2">
  <advance width="438"/>
  <unicode hex="004A"/>
  <anchor x="418" y="700" name="top"/>
  <outline>
    <contour>
      <point x="407" y="700" type="line"/>
      <point x="307" y="197" type="line"/>
      <point x="283" y="82"/>
      <point x="216" y="20"/>
      <point x="118" y="20" type="curve"/>
      <point x="55" y="20"/>
      <point x="6" y="52"/>
      <point x="-23" y="112" type="curve"/>
      <point x="-40" y="98" type="line"/>
      <point x="-9" y="35"/>
      <point x="46" y="0"/>
      <point x="114" y="0" type="curve"/>
      <point x="225" y="0"/>
      <point x="300" y="70"/>
      <point x="327" y="197" type="curve"/>
      <point x="427" y="700" type="line"/>
    </contour>
  </outline>
</glyph>
<glyph name="K" format="2">
  <advance width="1342"/>
  <unicode hex="004B"/>
  <anchor x="566" y="0" name="bottom"/>
  <anchor x="848" y="1400" name="top"/>
  <outline>
    <contour>
      <point x="472" y="1400" type="line"/>
      <point x="432" y="1400" type="line"/>
      <point x="152" y="0" type="line"/>
      <point x="192" y="0" type="line"/>
    </contour>
    <contour>
      <point x="670" y="754" type="line"/>
      <point x="1130" y="0" type="line"/>
      <point x="1178" y="0" type="line"/>
      <point x="696" y="790" type="line"/>
    </contour>
    <contour>
      <point x="252" y="364" type="line"/>
      <point x="1414" y="1400" type="line"/>
      <point x="1354" y="1400" type="line"/>
      <point x="268" y="432" type="line"/>
    </contour>
  </outline>
</glyph>
<glyph name="L" format="2">
  <advance width="470"/>
  <unicode hex="004C"/>
  <anchor x="235" y="0" name="bottom"/>
  <anchor x="372" y="391" name="center"/>
  <anchor x="225" y="700" name="top"/>
  <anchor x="405" y="700" name="topright"/>
  <outline>
    <contour>
      <point x="205" y="700" type="line"/>
      <point x="65" y="0" type="line"/>
      <point x="399" y="0" type="line"/>
      <point x="403" y="20" type="line"/>
      <point x="80" y="20" type="line"/>
      <point x="87" y="11" type="line"/>
      <point x="225" y="700" type="line"/>
    </contour>
  </outline>
</glyph>
<glyph name="M" format="2">
  <advance width="918"/>
  <unicode hex="004D"/>
  <anchor x="413" y="0" name="bottom"/>
  <anchor x="548" y="700" name="top"/>
  <outline>
    <contour>
      <point x="68" y="0" type="line"/>
      <point x="88" y="0" type="line"/>
      <point x="222" y="690" type="line"/>
      <point x="217" y="690" type="line"/>
      <point x="422" y="77" type="line"/>
      <point x="424" y="77" type="line"/>
      <point x="863" y="688" type="line"/>
      <point x="860" y="690" type="line"/>
      <point x="727" y="0" type="line"/>
      <point x="747" y="0" type="line"/>
      <point x="883" y="700" type="line"/>
      <point x="848" y="700" type="line"/>
      <point x="427" y="113" type="line"/>
      <point x="435" y="111" type="line"/>
      <point x="239" y="700" type="line"/>
      <point x="204" y="700" type="line"/>
    </contour>
  </outline>
</glyph>
<glyph name="N" format="2">
  <advance width="778"/>
  <unicode hex="004E"/>
  <anchor x="338" y="0" name="bottom"/>
  <anchor x="478" y="700" name="top"/>
  <outline>
    <contour>
      <point x="729" y="700" type="line"/>
      <point x="591" y="11" type="line"/>
      <point x="597" y="12" type="line"/>
      <point x="235" y="700" type="line"/>
      <point x="205" y="700" type="line"/>
      <point x="65" y="0" type="line"/>
      <point x="85" y="0" type="line"/>
      <point x="223" y="689" type="line"/>
      <point x="217" y="688" type="line"/>
      <point x="579" y="0" type="line"/>
      <point x="609" y="0" type="line"/>
      <point x="749" y="700" type="line"/>
    </contour>
  </outline>
</glyph>
<glyph name="O" format="2">
  <advance width="1638"/>
  <unicode hex="004F"/>
  <anchor x="776" y="0" name="bottom"/>
  <anchor x="858" y="704" name="center"/>
  <anchor x="1152" y="0" name="ogonek"/>
  <anchor x="974" y="1400" name="top"/>
  <anchor x="214" y="1400" name="topleft"/>
  <anchor x="1248" y="1400" name="topright"/>
  <outline>
    <contour>
      <point x="924" y="1408" type="curve" smooth="yes"/>
      <point x="530" y="1408"/>
      <point x="176" y="1092"/>
      <point x="138" y="706" type="curve" smooth="yes"/>
      <point x="100" y="314"/>
      <point x="390" y="-6"/>
      <point x="788" y="-6" type="curve" smooth="yes"/>
      <point x="1180" y="-6"/>
      <point x="1538" y="314"/>
      <point x="1576" y="700" type="curve" smooth="yes"/>
      <point x="1614" y="1090"/>
      <point x="1320" y="1408"/>
    </contour>
    <contour>
      <point x="924" y="1368" type="curve" smooth="yes"/>
      <point x="1294" y="1368"/>
      <point x="1572" y="1068"/>
      <point x="1536" y="704" type="curve" smooth="yes"/>
      <point x="1500" y="334"/>
      <point x="1162" y="34"/>
      <point x="788" y="34" type="curve" smooth="yes"/>
      <point x="416" y="34"/>
      <point x="142" y="334"/>
      <point x="178" y="702" type="curve" smooth="yes"/>
      <point x="214" y="1070"/>
      <point x="548" y="1368"/>
    </contour>
  </outline>
</glyph>
<glyph name="P" format="2">
  <advance width="654"/>
  <unicode hex="0050"/>
  <outline>
    <contour>
      <point x="223" y="689" type="line"/>
      <point x="212" y="680" type="line"/>
      <point x="439" y="680" type="line" smooth="yes"/>
      <point x="575" y="680"/>
      <point x="650" y="619"/>
      <point x="650" y="513" type="curve" smooth="yes"/>
      <point x="650" y="359"/>
      <point x="538" y="260"/>
      <point x="355" y="260" type="curve" smooth="yes"/>
      <point x="132" y="260" type="line"/>
      <point x="128" y="240" type="line"/>
      <point x="351" y="240" type="line" smooth="yes"/>
      <point x="550" y="240"/>
      <point x="670" y="350"/>
      <point x="670" y="518" type="curve" smooth="yes"/>
      <point x="670" y="633"/>
      <point x="590" y="700"/>
      <point x="443" y="700" type="curve" smooth="yes"/>
      <point x="205" y="700" type="line"/>
      <point x="65" y="0" type="line"/>
      <point x="85" y="0" type="line"/>
    </contour>
  </outline>
</glyph>
<glyph name="Q" format="2">
  <advance width="1602"/>
  <unicode hex="0051"/>
  <outline>
    <contour>
      <point x="926" y="1406" type="curve" smooth="yes"/>
      <point x="534" y="1406"/>
      <point x="180" y="1090"/>
      <point x="142" y="704" type="curve" smooth="yes"/>
      <point x="104" y="314"/>
      <point x="394" y="-6"/>
      <point x="790" y="-6" type="curve" smooth="yes"/>
      <point x="1182" y="-6"/>
      <point x="1540" y="314"/>
      <point x="1578" y="698" type="curve" smooth="yes"/>
      <point x="1616" y="1088"/>
      <point x="1322" y="1406"/>
    </contour>
    <contour>
      <point x="926" y="1366" type="curve" smooth="yes"/>
      <point x="1296" y="1366"/>
      <point x="1574" y="1066"/>
      <point x="1538" y="702" type="curve" smooth="yes"/>
      <point x="1502" y="334"/>
      <point x="1164" y="34"/>
      <point x="790" y="34" type="curve" smooth="yes"/>
      <point x="420" y="34"/>
      <point x="146" y="334"/>
      <point x="182" y="700" type="curve" smooth="yes"/>
      <point x="218" y="1068"/>
      <point x="552" y="1366"/>
    </contour>
    <contour>
      <point x="1420" y="-20" type="line"/>
      <point x="1447" y="8" type="line"/>
      <point x="951" y="570" type="line"/>
      <point x="924" y="542" type="line"/>
    </contour>
  </outline>
</glyph>
<glyph name="R" format="2">
  <advance width="1446"/>
  <unicode hex="0052"/>
  <anchor x="615" y="0" name="bottom"/>
  <anchor x="857" y="1400" name="top"/>
  <outline>
    <contour>
      <point x="841" y="508" type="line"/>
      <point x="1109" y="0" type="line"/>
      <point x="1159" y="0" type="line"/>
      <point x="891" y="508" type="line"/>
    </contour>
    <contour>
      <point x="465" y="1378" type="line"/>
      <point x="443" y="1360" type="line"/>
      <point x="897" y="1360" type="line" smooth="yes"/>
      <point x="1169" y="1360"/>
      <point x="1319" y="1238"/>
      <point x="1319" y="1026" type="curve" smooth="yes"/>
      <point x="1319" y="718"/>
      <point x="1095" y="520"/>
      <point x="729" y="520" type="curve" smooth="yes"/>
      <point x="283" y="520" type="line"/>
      <point x="275" y="480" type="line"/>
      <point x="721" y="480" type="line" smooth="yes"/>
      <point x="1119" y="480"/>
      <point x="1359" y="700"/>
      <point x="1359" y="1036" type="curve" smooth="yes"/>
      <point x="1359" y="1266"/>
      <point x="1199" y="1400"/>
      <point x="905" y="1400" type="curve" smooth="yes"/>
      <point x="429" y="1400" type="line"/>
      <point x="149" y="0" type="line"/>
      <point x="189" y="0" type="line"/>
    </contour>
  </outline>
</glyph>
<glyph name="S" format="2">
  <advance width="555"/>
  <unicode hex="0053"/>
  <anchor x="228" y="5" name="bottom"/>
  <anchor x="356" y="695" name="top"/>
  <outline>
    <contour>
      <point x="551" y="632" type="line"/>
      <point x="493" y="680"/>
      <point x="410" y="704"/>
      <point x="335" y="704" type="curve" smooth="yes"/>
      <point x="223" y="704"/>
      <point x="113" y="656"/>
      <point x="113" y="529" type="curve" smooth="yes"/>
      <point x="113" y="331"/>
      <point x="467" y="374"/>
      <point x="467" y="184" type="curve" smooth="yes"/>
      <point x="467" y="62"/>
      <point x="359" y="17"/>
      <point x="253" y="17" type="curve" smooth="yes"/>
      <point x="159" y="17"/>
      <point x="60" y="55"/>
      <point x="6" y="135" type="curve"/>
      <point x="-11" y="121" type="line"/>
      <point x="47" y="39"/>
      <point x="151" y="-3"/>
      <point x="250" y="-3" type="curve" smooth="yes"/>
      <point x="370" y="-3"/>
      <point x="487" y="51"/>
      <point x="487" y="187" type="curve" smooth="yes"/>
      <point x="487" y="390"/>
      <point x="133" y="347"/>
      <point x="133" y="532" type="curve" smooth="yes"/>
      <point x="133" y="646"/>
      <point x="237" y="684"/>
      <point x="335" y="684" type="curve" smooth="yes"/>
      <point x="402" y="684"/>
      <point x="485" y="663"/>
      <point x="537" y="617" type="curve"/>
    </contour>
  </outline>
</glyph>
<glyph name="T" format="2">
  <advance width="505"/>
  <unicode hex="0054"/>
  <anchor x="199" y="0" name="bottom"/>
  <anchor x="270" y="351" name="center"/>
  <anchor x="346" y="700" name="top"/>
  <outline>
    <contour>
      <point x="328" y="685" type="line"/>
      <point x="190" y="0" type="line"/>
      <point x="210" y="0" type="line"/>
      <point x="348" y="685" type="line"/>
    </contour>
    <contour>
      <point x="587" y="680" type="line"/>
      <point x="591" y="700" type="line"/>
      <point x="90" y="700" type="line"/>
      <point x="86" y="680" type="line"/>
    </contour>
  </outline>
</glyph>
<glyph name="U" format="2">
  <advance width="753"/>
  <unicode hex="0055"/>
  <anchor x="325" y="0" name="bottom"/>
  <anchor x="506" y="0" name="ogonek"/>
  <anchor x="465" y="700" name="top"/>
  <anchor x="732" y="700" name="topright"/>
  <outline>
    <contour>
      <point x="722" y="700" type="line"/>
      <point x="639" y="284" type="line"/>
      <point x="605" y="116"/>
      <point x="502" y="20"/>
      <point x="339" y="20" type="curve"/>
      <point x="175" y="20"/>
      <point x="90" y="116"/>
      <point x="124" y="284" type="curve"/>
      <point x="207" y="700" type="line"/>
      <point x="187" y="700" type="line"/>
      <point x="104" y="284" type="line"/>
      <point x="68" y="103"/>
      <point x="158" y="0"/>
      <point x="335" y="0" type="curve"/>
      <point x="511" y="0"/>
      <point x="623" y="103"/>
      <point x="659" y="284" type="curve"/>
      <point x="742" y="700" type="line"/>
    </contour>
  </outline>
</glyph>
<glyph name="V" format="2">
  <advance width="605"/>
  <unicode hex="0056"/>
  <outline>
    <contour>
      <point x="670" y="700" type="line"/>
      <point x="273" y="15" type="line"/>
      <point x="280" y="14" type="line"/>
      <point x="110" y="700" type="line"/>
      <point x="87" y="700" type="line"/>
      <point x="263" y="0" type="line"/>
      <point x="285" y="0" type="line"/>
      <point x="694" y="700" type="line"/>
    </contour>
  </outline>
</glyph>
<glyph name="W" format="2">
  <advance width="1976"/>
  <unicode hex="0057"/>
  <anchor x="1170" y="1400" name="top"/>
  <outline>
    <contour>
      <point x="2087" y="1400" type="line"/>
      <point x="1405" y="30" type="line"/>
      <point x="1417" y="28" type="line"/>
      <point x="1185" y="1400" type="line"/>
      <point x="1141" y="1400" type="line"/>
      <point x="459" y="30" type="line"/>
      <point x="469" y="28" type="line"/>
      <point x="239" y="1400" type="line"/>
      <point x="195" y="1400" type="line"/>
      <point x="437" y="0" type="line"/>
      <point x="479" y="0" type="line"/>
      <point x="1163" y="1360" type="line"/>
      <point x="1151" y="1362" type="line"/>
      <point x="1383" y="0" type="line"/>
      <point x="1425" y="0" type="line"/>
      <point x="2133" y="1400" type="line"/>
    </contour>
  </outline>
</glyph>
<glyph name="X" format="2">
  <advance width="607"/>
  <unicode hex="0058"/>
  <outline>
    <contour>
      <point x="596" y="700" type="line"/>
      <point x="312" y="380" type="line"/>
      <point x="134" y="700" type="line"/>
      <point x="110" y="700" type="line"/>
      <point x="296" y="363" type="line"/>
      <point x="-25" y="0" type="line"/>
      <point x="-1" y="0" type="line"/>
      <point x="306" y="347" type="line"/>
      <point x="499" y="0" type="line"/>
      <point x="523" y="0" type="line"/>
      <point x="321" y="363" type="line"/>
      <point x="620" y="700" type="line"/>
    </contour>
  </outline>
</glyph>
<glyph name="Y" format="2">
  <advance width="585"/>
  <unicode hex="0059"/>
  <anchor x="266" y="0" name="bottom"/>
  <anchor x="381" y="700" name="top"/>
  <anchor x="97" y="700" name="topleft"/>
  <outline>
    <contour>
      <point x="304" y="277" type="line"/>
      <point x="256" y="0" type="line"/>
      <point x="276" y="0" type="line"/>
      <point x="324" y="277" type="line"/>
    </contour>
    <contour>
      <point x="307" y="258" type="line"/>
      <point x="313" y="258" type="line"/>
      <point x="674" y="700" type="line"/>
      <point x="650" y="700" type="line"/>
      <point x="309" y="282" type="line"/>
      <point x="319" y="281" type="line"/>
      <point x="111" y="700" type="line"/>
      <point x="87" y="700" type="line"/>
    </contour>
  </outline>
</glyph>
<glyph name="Z" format="2">
  <advance width="639"/>
  <unicode hex="005A"/>
  <anchor x="267" y="0" name="bottom"/>
  <anchor x="390" y="700" name="top"/>
  <outline>
    <contour>
      <point x="129" y="700" type="line"/>
      <point x="125" y="680" type="line"/>
      <point x="644" y="680" type="line"/>
      <point x="641" y="686" type="line"/>
      <point x="3" y="25" type="line"/>
      <point x="-1" y="0" type="line"/>
      <point x="546" y="0" type="line"/>
      <point x="550" y="20" type="line"/>
      <point x="14" y="20" type="line"/>
      <point x="17" y="14" type="line"/>
      <point x="655" y="675" type="line"/>
      <point x="659" y="700" type="line"/>
    </contour>
  </outline>
</glyph>
<glyph name="bracketleft" format="2">
  <advance width="262"/>
  <unicode hex="005B"/>
  <outline>
    <contour>
      <point x="193" y="742" type="line"/>
      <point x="19" y="-124" type="line"/>
      <point x="168" y="-124" type="line"/>
      <point x="172" y="-104" type="line"/>
      <point x="43" y="-104" type="line"/>
      <point x="209" y="722" type="line"/>
      <point x="338" y="722" type="line"/>
      <point x="342" y="742" type="line"/>
    </contour>
  </outline>
</glyph>
<glyph name="bracketright" format="2">
  <advance width="262"/>
  <unicode hex="005D"/>
  <outline>
    <contour>
      <point x="91" y="-124" type="line"/>
      <point x="265" y="742" type="line"/>
      <point x="116" y="742" type="line"/>
      <point x="112" y="722" type="line"/>
      <point x="241" y="722" type="line"/>
      <point x="75" y="-104" type="line"/>
      <point x="-54" y="-104" type="line"/>
      <point x="-58" y="-124" type="line"/>
    </contour>
  </outline>
</glyph>
<glyph name="asciicircum" format="2">
  <advance width="956"/>
  <unicode hex="005E"/>
  <outline>
    <contour>
      <point x="612" y="1056" type="line"/>
      <point x="560" y="1056" type="line"/>
      <point x="28" y="256" type="line"/>
      <point x="72" y="256" type="line"/>
      <point x="580" y="1018" type="line"/>
      <point x="780" y="256" type="line"/>
      <point x="824" y="256" type="line"/>
    </contour>
  </outline>
</glyph>
<glyph name="underscore" format="2">
  <advance width="1074"/>
  <unicode hex="005F"/>
  <outline>
    <contour>
      <point x="-176" y="-368" type="line"/>
      <point x="-184" y="-408" type="line"/>
      <point x="890" y="-408" type="line"/>
      <point x="898" y="-368" type="line"/>
    </contour>
  </outline>
</glyph>
<glyph name="a" format="2">
  <advance width="1124"/>
  <unicode hex="0061"/>
  <anchor x="468" y="6" name="bottom"/>
  <anchor x="848" y="-0" name="ogonek"/>
  <anchor x="618" y="1028" name="top"/>
  <outline>
    <contour>
      <point x="923" y="524" type="line"/>
      <point x="931" y="564" type="line"/>
      <point x="441" y="564" type="line" smooth="yes"/>
      <point x="256" y="564"/>
      <point x="71" y="489"/>
      <point x="71" y="277" type="curve" smooth="yes"/>
      <point x="71" y="77"/>
      <point x="254" y="0"/>
      <point x="426" y="0" type="curve" smooth="yes"/>
      <point x="631" y="0"/>
      <point x="791" y="98"/>
      <point x="899" y="270" type="curve"/>
      <point x="865" y="290" type="line"/>
      <point x="765" y="130"/>
      <point x="626" y="40"/>
      <point x="435" y="40" type="curve" smooth="yes"/>
      <point x="283" y="40"/>
      <point x="111" y="99"/>
      <point x="111" y="278" type="curve" smooth="yes"/>
      <point x="111" y="465"/>
      <point x="269" y="524"/>
      <point x="433" y="524" type="curve" smooth="yes"/>
    </contour>
    <contour>
      <point x="848" y="0" type="line"/>
      <point x="974" y="650" type="line" smooth="yes"/>
      <point x="979" y="677"/>
      <point x="982" y="706"/>
      <point x="982" y="734" type="curve" smooth="yes"/>
      <point x="982" y="946"/>
      <point x="809" y="1034"/>
      <point x="618" y="1034" type="curve" smooth="yes"/>
      <point x="485" y="1034"/>
      <point x="354" y="989"/>
      <point x="242" y="882" type="curve"/>
      <point x="266" y="850" type="line"/>
      <point x="371" y="952"/>
      <point x="487" y="994"/>
      <point x="612" y="994" type="curve" smooth="yes"/>
      <point x="782" y="994"/>
      <point x="942" y="926"/>
      <point x="942" y="734" type="curve" smooth="yes"/>
      <point x="942" y="707"/>
      <point x="939" y="680"/>
      <point x="934" y="654" type="curve" smooth="yes"/>
      <point x="807" y="0" type="line"/>
    </contour>
  </outline>
</glyph>
<glyph name="b" format="2">
  <advance width="654"/>
  <unicode hex="0062"/>
  <anchor x="275" y="0" name="bottom"/>
  <anchor x="379" y="517" name="top"/>
  <outline>
    <contour>
      <point x="383" y="519" type="curve" smooth="yes"/>
      <point x="288" y="519"/>
      <point x="202" y="471"/>
      <point x="150" y="389" type="curve"/>
      <point x="221" y="742" type="line"/>
      <point x="201" y="742" type="line"/>
      <point x="53" y="0" type="line"/>
      <point x="73" y="0" type="line"/>
      <point x="108" y="177" type="line"/>
      <point x="128" y="69"/>
      <point x="217" y="-2"/>
      <point x="335" y="-2" type="curve" smooth="yes"/>
      <point x="490" y="-2"/>
      <point x="614" y="129"/>
      <point x="614" y="293" type="curve" smooth="yes"/>
      <point x="614" y="426"/>
      <point x="519" y="519"/>
    </contour>
    <contour>
      <point x="381" y="499" type="curve" smooth="yes"/>
      <point x="507" y="499"/>
      <point x="594" y="414"/>
      <point x="594" y="290" type="curve" smooth="yes"/>
      <point x="594" y="139"/>
      <point x="479" y="18"/>
      <point x="337" y="18" type="curve" smooth="yes"/>
      <point x="211" y="18"/>
      <point x="124" y="103"/>
      <point x="124" y="227" type="curve" smooth="yes"/>
      <point x="124" y="378"/>
      <point x="238" y="499"/>
    </contour>
  </outline>
</glyph>
<glyph name="c" format="2">
  <advance width="555"/>
  <unicode hex="0063"/>
  <anchor x="256" y="0" name="bottom"/>
  <anchor x="316" y="517" name="top"/>
  <outline>
    <contour>
      <point x="269" y="0" type="curve" smooth="yes"/>
      <point x="345" y="0"/>
      <point x="414" y="30"/>
      <point x="464" y="81" type="curve"/>
      <point x="452" y="95" type="line"/>
      <point x="406" y="47"/>
      <point x="342" y="20"/>
      <point x="271" y="20" type="curve" smooth="yes"/>
      <point x="146" y="20"/>
      <point x="61" y="108"/>
      <point x="61" y="235" type="curve" smooth="yes"/>
      <point x="61" y="388"/>
      <point x="174" y="497"/>
      <point x="318" y="497" type="curve" smooth="yes"/>
      <point x="383" y="497"/>
      <point x="436" y="473"/>
      <point x="475" y="434" type="curve"/>
      <point x="489" y="448" type="line"/>
      <point x="448" y="491"/>
      <point x="389" y="517"/>
      <point x="320" y="517" type="curve" smooth="yes"/>
      <point x="166" y="517"/>
      <point x="42" y="397"/>
      <point x="42" y="234" type="curve" smooth="yes"/>
      <point x="42" y="97"/>
      <point x="135" y="0"/>
    </contour>
  </outline>
</glyph>
<glyph name="d" format="2">
  <advance width="654"/>
  <unicode hex="0064"/>
  <anchor x="293" y="0" name="bottom"/>
  <anchor x="568" y="609" name="center"/>
  <anchor x="736" y="742" name="topright"/>
  <outline>
    <contour>
      <point x="271" y="-2" type="curve" smooth="yes"/>
      <point x="366" y="-2"/>
      <point x="452" y="46"/>
      <point x="504" y="128" type="curve"/>
      <point x="478" y="0" type="line"/>
      <point x="498" y="0" type="line"/>
      <point x="646" y="742" type="line"/>
      <point x="626" y="742" type="line"/>
      <point x="546" y="340" type="line"/>
      <point x="526" y="448"/>
      <point x="437" y="519"/>
      <point x="319" y="519" type="curve" smooth="yes"/>
      <point x="164" y="519"/>
      <point x="40" y="388"/>
      <point x="40" y="224" type="curve" smooth="yes"/>
      <point x="40" y="91"/>
      <point x="135" y="-2"/>
    </contour>
    <contour>
      <point x="273" y="18" type="curve" smooth="yes"/>
      <point x="147" y="18"/>
      <point x="60" y="103"/>
      <point x="60" y="227" type="curve" smooth="yes"/>
      <point x="60" y="378"/>
      <point x="175" y="499"/>
      <point x="317" y="499" type="curve" smooth="yes"/>
      <point x="443" y="499"/>
      <point x="530" y="414"/>
      <point x="530" y="290" type="curve" smooth="yes"/>
      <point x="530" y="139"/>
      <point x="416" y="18"/>
    </contour>
  </outline>
</glyph>
<glyph name="e" format="2">
  <advance width="570"/>
  <unicode hex="0065"/>
  <anchor x="267" y="0" name="bottom"/>
  <anchor x="422" y="0" name="ogonek"/>
  <anchor x="312" y="517" name="top"/>
  <outline>
    <contour>
      <point x="267" y="0" type="curve" smooth="yes"/>
      <point x="347" y="0"/>
      <point x="420" y="30"/>
      <point x="472" y="81" type="curve"/>
      <point x="459" y="95" type="line"/>
      <point x="412" y="47"/>
      <point x="344" y="20"/>
      <point x="269" y="20" type="curve" smooth="yes"/>
      <point x="145" y="20"/>
      <point x="62" y="108"/>
      <point x="62" y="235" type="curve" smooth="yes"/>
      <point x="62" y="388"/>
      <point x="173" y="497"/>
      <point x="316" y="497" type="curve" smooth="yes"/>
      <point x="444" y="497"/>
      <point x="518" y="408"/>
      <point x="515" y="279" type="curve"/>
      <point x="58" y="279" type="line"/>
      <point x="56" y="259" type="line"/>
      <point x="533" y="259" type="line"/>
      <point x="547" y="409"/>
      <point x="462" y="517"/>
      <point x="318" y="517" type="curve" smooth="yes"/>
      <point x="165" y="517"/>
      <point x="42" y="397"/>
      <point x="42" y="234" type="curve" smooth="yes"/>
      <point x="42" y="97"/>
      <point x="134" y="0"/>
    </contour>
  </outline>
</glyph>
<glyph name="f" format="2">
  <advance width="700"/>
  <unicode hex="0066"/>
  <outline>
    <contour>
      <point x="198" y="1034" type="line"/>
      <point x="190" y="994" type="line"/>
      <point x="696" y="994" type="line"/>
      <point x="704" y="1034" type="line"/>
    </contour>
    <contour>
      <point x="872" y="1476" type="line"/>
      <point x="828" y="1504"/>
      <point x="772" y="1522"/>
      <point x="714" y="1524" type="curve" smooth="yes"/>
      <point x="554" y="1530"/>
      <point x="400" y="1386"/>
      <point x="362" y="1202" type="curve" smooth="yes"/>
      <point x="120" y="0" type="line"/>
      <point x="160" y="0" type="line"/>
      <point x="402" y="1198" type="line" smooth="yes"/>
      <point x="436" y="1362"/>
      <point x="570" y="1484"/>
      <point x="714" y="1484" type="curve" smooth="yes"/>
      <point x="762" y="1484"/>
      <point x="808" y="1468"/>
      <point x="848" y="1444" type="curve"/>
    </contour>
  </outline>
</glyph>
<glyph name="g" format="2">
  <advance width="607"/>
  <unicode hex="0067"/>
  <anchor x="252" y="0" name="bottom"/>
  <anchor x="356" y="517" name="top"/>
  <outline>
    <contour>
      <point x="211" y="-193" type="curve" smooth="yes"/>
      <point x="352" y="-194"/>
      <point x="450" y="-114"/>
      <point x="477" y="22" type="curve" smooth="yes"/>
      <point x="575" y="517" type="line"/>
      <point x="555" y="517" type="line"/>
      <point x="522" y="352" type="line"/>
      <point x="503" y="453"/>
      <point x="419" y="519"/>
      <point x="308" y="519" type="curve" smooth="yes"/>
      <point x="161" y="519"/>
      <point x="44" y="396"/>
      <point x="44" y="242" type="curve" smooth="yes"/>
      <point x="44" y="117"/>
      <point x="134" y="29"/>
      <point x="262" y="29" type="curve" smooth="yes"/>
      <point x="352" y="29"/>
      <point x="433" y="74"/>
      <point x="482" y="151" type="curve"/>
      <point x="457" y="24" type="line" smooth="yes"/>
      <point x="432" y="-101"/>
      <point x="341" y="-174"/>
      <point x="211" y="-173" type="curve"/>
      <point x="125" y="-170"/>
      <point x="63" y="-144"/>
      <point x="13" y="-90" type="curve"/>
      <point x="-2" y="-102" type="line"/>
      <point x="55" y="-162"/>
      <point x="120" y="-190"/>
    </contour>
    <contour>
      <point x="265" y="49" type="curve" smooth="yes"/>
      <point x="146" y="49"/>
      <point x="64" y="129"/>
      <point x="64" y="245" type="curve" smooth="yes"/>
      <point x="64" y="386"/>
      <point x="172" y="499"/>
      <point x="306" y="499" type="curve" smooth="yes"/>
      <point x="425" y="499"/>
      <point x="507" y="420"/>
      <point x="507" y="303" type="curve" smooth="yes"/>
      <point x="507" y="162"/>
      <point x="399" y="49"/>
    </contour>
  </outline>
</glyph>
<glyph name="h" format="2">
  <advance width="1300"/>
  <unicode hex="0068"/>
  <anchor x="546" y="0" name="bottom"/>
  <anchor x="466" y="1218" name="center"/>
  <anchor x="442" y="1484" name="top"/>
  <outline>
    <contour>
      <point x="804" y="1034" type="curve"/>
      <point x="592" y="1030"/>
      <point x="418" y="924"/>
      <point x="316" y="736" type="curve"/>
      <point x="462" y="1484" type="line"/>
      <point x="422" y="1484" type="line"/>
      <point x="130" y="0" type="line"/>
      <point x="170" y="0" type="line"/>
      <point x="274" y="532" type="line" smooth="yes"/>
      <point x="330" y="820"/>
      <point x="538" y="988"/>
      <point x="804" y="994" type="curve"/>
      <point x="1032" y="994"/>
      <point x="1142" y="858"/>
      <point x="1096" y="626" type="curve" smooth="yes"/>
      <point x="972" y="0" type="line"/>
      <point x="1012" y="0" type="line"/>
      <point x="1136" y="626" type="line" smooth="yes"/>
      <point x="1186" y="882"/>
      <point x="1064" y="1034"/>
    </contour>
  </outline>
</glyph>
<glyph name="i" format="2">
  <advance width="480"/>
  <unicode hex="0069"/>
  <outline>
    <contour>
      <point x="323" y="1034" type="line"/>
      <point x="117" y="0" type="line"/>
      <point x="157" y="0" type="line"/>
      <point x="363" y="1034" type="line"/>
    </contour>
    <contour>
      <point x="413" y="1384" type="curve" smooth="yes"/>
      <point x="381" y="1384"/>
      <point x="349" y="1356"/>
      <point x="349" y="1324" type="curve" smooth="yes"/>
      <point x="349" y="1300"/>
      <point x="367" y="1280"/>
      <point x="391" y="1280" type="curve" smooth="yes"/>
      <point x="423" y="1280"/>
      <point x="455" y="1308"/>
      <point x="455" y="1340" type="curve" smooth="yes"/>
      <point x="455" y="1364"/>
      <point x="437" y="1384"/>
    </contour>
  </outline>
</glyph>
<glyph name="j" format="2">
  <advance width="208"/>
  <unicode hex="006A"/>
  <outline>
    <contour>
      <point x="-151" y="-179" type="line"/>
      <point x="-133" y="-188"/>
      <point x="-113" y="-192"/>
      <point x="-91" y="-193" type="curve"/>
      <point x="-16" y="-194"/>
      <point x="35" y="-140"/>
      <point x="56" y="-32" type="curve" smooth="yes"/>
      <point x="165" y="517" type="line"/>
      <point x="145" y="517" type="line"/>
      <point x="36" y="-30" type="line" smooth="yes"/>
      <point x="17" y="-124"/>
      <point x="-27" y="-174"/>
      <point x="-91" y="-173" type="curve"/>
      <point x="-108" y="-172"/>
      <point x="-125" y="-169"/>
      <point x="-141" y="-162" type="curve"/>
    </contour>
    <contour>
      <point x="190" y="692" type="curve" smooth="yes"/>
      <point x="174" y="692"/>
      <point x="158" y="678"/>
      <point x="158" y="662" type="curve" smooth="yes"/>
      <point x="158" y="650"/>
      <point x="167" y="640"/>
      <point x="179" y="640" type="curve" smooth="yes"/>
      <point x="195" y="640"/>
      <point x="211" y="654"/>
      <point x="211" y="670" type="curve" smooth="yes"/>
      <point x="211" y="682"/>
      <point x="202" y="692"/>
    </contour>
  </outline>
</glyph>
<glyph name="k" format="2">
  <advance width="517"/>
  <unicode hex="006B"/>
  <anchor x="235" y="0" name="bottom"/>
  <anchor x="211" y="742" name="top"/>
  <anchor x="264" y="517" name="topright"/>
  <outline>
    <contour>
      <point x="201" y="742" type="line"/>
      <point x="53" y="0" type="line"/>
      <point x="73" y="0" type="line"/>
      <point x="221" y="742" type="line"/>
    </contour>
    <contour>
      <point x="505" y="517" type="line"/>
      <point x="102" y="178" type="line"/>
      <point x="95" y="147" type="line"/>
      <point x="533" y="517" type="line"/>
    </contour>
    <contour>
      <point x="273" y="314" type="line"/>
      <point x="436" y="0" type="line"/>
      <point x="460" y="0" type="line"/>
      <point x="291" y="326" type="line"/>
    </contour>
  </outline>
</glyph>
<glyph name="l" format="2">
  <advance width="238"/>
  <unicode hex="006C"/>
  <anchor x="98" y="0" name="bottom"/>
  <anchor x="247" y="397" name="center"/>
  <anchor x="197" y="742" name="top"/>
  <anchor x="297" y="742" name="topright"/>
  <outline>
    <contour>
      <point x="58" y="91" type="line" smooth="yes"/>
      <point x="46" y="31"/>
      <point x="67" y="0"/>
      <point x="115" y="0" type="curve" smooth="yes"/>
      <point x="137" y="0"/>
      <point x="165" y="12"/>
      <point x="193" y="36" type="curve"/>
      <point x="181" y="52" type="line"/>
      <point x="158" y="32"/>
      <point x="135" y="20"/>
      <point x="115" y="20" type="curve" smooth="yes"/>
      <point x="81" y="20"/>
      <point x="68" y="42"/>
      <point x="77" y="89" type="curve" smooth="yes"/>
      <point x="207" y="742" type="line"/>
      <point x="188" y="742" type="line"/>
    </contour>
  </outline>
</glyph>
<glyph name="m" format="2">
  <advance width="1045"/>
  <unicode hex="006D"/>
  <anchor x="479" y="0" name="bottom"/>
  <anchor x="575" y="517" name="top"/>
  <outline>
    <contour>
      <point x="386" y="517" type="curve"/>
      <point x="280" y="515"/>
      <point x="193" y="462"/>
      <point x="142" y="368" type="curve"/>
      <point x="171" y="517" type="line"/>
      <point x="151" y="517" type="line"/>
      <point x="49" y="0" type="line"/>
      <point x="69" y="0" type="line"/>
      <point x="121" y="266" type="line" smooth="yes"/>
      <point x="148" y="406"/>
      <point x="249" y="494"/>
      <point x="386" y="497" type="curve"/>
      <point x="501" y="497"/>
      <point x="555" y="428"/>
      <point x="532" y="313" type="curve" smooth="yes"/>
      <point x="470" y="0" type="line"/>
      <point x="490" y="0" type="line"/>
      <point x="552" y="313" type="line" smooth="yes"/>
      <point x="577" y="441"/>
      <point x="516" y="517"/>
    </contour>
    <contour>
      <point x="807" y="517" type="curve"/>
      <point x="680" y="514"/>
      <point x="586" y="444"/>
      <point x="539" y="317" type="curve"/>
      <point x="490" y="0" type="line"/>
      <point x="542" y="266" type="line" smooth="yes"/>
      <point x="569" y="406"/>
      <point x="670" y="494"/>
      <point x="807" y="497" type="curve"/>
      <point x="922" y="497"/>
      <point x="976" y="428"/>
      <point x="953" y="313" type="curve" smooth="yes"/>
      <point x="891" y="0" type="line"/>
      <point x="911" y="0" type="line"/>
      <point x="973" y="313" type="line" smooth="yes"/>
      <point x="998" y="441"/>
      <point x="937" y="517"/>
    </contour>
  </outline>
</glyph>
<glyph name="n" format="2">
  <advance width="1288"/>
  <unicode hex="006E"/>
  <anchor x="580" y="0" name="bottom"/>
  <anchor x="718" y="1034" name="top"/>
  <anchor x="224" y="1034" name="topleft"/>
  <outline>
    <contour>
      <point x="792" y="1034" type="curve"/>
      <point x="580" y="1030"/>
      <point x="406" y="924"/>
      <point x="304" y="736" type="curve"/>
      <point x="362" y="1034" type="line"/>
      <point x="322" y="1034" type="line"/>
      <point x="118" y="0" type="line"/>
      <point x="158" y="0" type="line"/>
      <point x="262" y="532" type="line" smooth="yes"/>
      <point x="318" y="820"/>
      <point x="526" y="988"/>
      <point x="792" y="994" type="curve"/>
      <point x="1020" y="994"/>
      <point x="1130" y="858"/>
      <point x="1084" y="626" type="curve" smooth="yes"/>
      <point x="960" y="0" type="line"/>
      <point x="1000" y="0" type="line"/>
      <point x="1124" y="626" type="line" smooth="yes"/>
      <point x="1174" y="882"/>
      <point x="1052" y="1034"/>
    </contour>
  </outline>
</glyph>
<glyph name="o" format="2">
  <advance width="1212"/>
  <unicode hex="006F"/>
  <anchor x="563" y="0" name="bottom"/>
  <anchor x="607" y="518" name="center"/>
  <anchor x="855" y="0" name="ogonek"/>
  <anchor x="657" y="1034" name="top"/>
  <anchor x="911" y="1034" name="topright"/>
  <outline>
    <contour>
      <point x="657" y="1034" type="curve" smooth="yes"/>
      <point x="349" y="1034"/>
      <point x="101" y="794"/>
      <point x="101" y="468" type="curve" smooth="yes"/>
      <point x="101" y="194"/>
      <point x="287" y="0"/>
      <point x="555" y="0" type="curve" smooth="yes"/>
      <point x="863" y="0"/>
      <point x="1111" y="240"/>
      <point x="1111" y="568" type="curve" smooth="yes"/>
      <point x="1111" y="840"/>
      <point x="925" y="1034"/>
    </contour>
    <contour>
      <point x="653" y="994" type="curve" smooth="yes"/>
      <point x="903" y="994"/>
      <point x="1071" y="818"/>
      <point x="1071" y="566" type="curve" smooth="yes"/>
      <point x="1071" y="258"/>
      <point x="847" y="40"/>
      <point x="559" y="40" type="curve" smooth="yes"/>
      <point x="309" y="40"/>
      <point x="141" y="216"/>
      <point x="141" y="470" type="curve" smooth="yes"/>
      <point x="141" y="776"/>
      <point x="365" y="994"/>
    </contour>
  </outline>
</glyph>
<glyph name="p" format="2">
  <advance width="654"/>
  <unicode hex="0070"/>
  <outline>
    <contour>
      <point x="383" y="519" type="curve" smooth="yes"/>
      <point x="288" y="519"/>
      <point x="202" y="471"/>
      <point x="150" y="389" type="curve"/>
      <point x="176" y="517" type="line"/>
      <point x="156" y="517" type="line"/>
      <point x="14" y="-194" type="line"/>
      <point x="34" y="-194" type="line"/>
      <point x="108" y="177" type="line"/>
      <point x="128" y="69"/>
      <point x="217" y="-2"/>
      <point x="335" y="-2" type="curve" smooth="yes"/>
      <point x="490" y="-2"/>
      <point x="614" y="129"/>
      <point x="614" y="293" type="curve" smooth="yes"/>
      <point x="614" y="426"/>
      <point x="519" y="519"/>
    </contour>
    <contour>
      <point x="381" y="499" type="curve" smooth="yes"/>
      <point x="507" y="499"/>
      <point x="594" y="414"/>
      <point x="594" y="290" type="curve" smooth="yes"/>
      <point x="594" y="139"/>
      <point x="479" y="18"/>
      <point x="337" y="18" type="curve" smooth="yes"/>
      <point x="211" y="18"/>
      <point x="124" y="103"/>
      <point x="124" y="227" type="curve" smooth="yes"/>
      <point x="124" y="378"/>
      <point x="238" y="499"/>
    </contour>
  </outline>
</glyph>
<glyph name="q" format="2">
  <advance width="1346"/>
  <unicode hex="0071"/>
  <outline>
    <contour>
      <point x="562" y="-4" type="curve" smooth="yes"/>
      <point x="752" y="-4"/>
      <point x="924" y="92"/>
      <point x="1028" y="256" type="curve"/>
      <point x="898" y="-388" type="line"/>
      <point x="938" y="-388" type="line"/>
      <point x="1222" y="1034" type="line"/>
      <point x="1182" y="1034" type="line"/>
      <point x="1112" y="680" type="line"/>
      <point x="1072" y="896"/>
      <point x="894" y="1038"/>
      <point x="658" y="1038" type="curve" smooth="yes"/>
      <point x="348" y="1038"/>
      <point x="100" y="776"/>
      <point x="100" y="448" type="curve" smooth="yes"/>
      <point x="100" y="182"/>
      <point x="290" y="-4"/>
    </contour>
    <contour>
      <point x="566" y="36" type="curve" smooth="yes"/>
      <point x="314" y="36"/>
      <point x="140" y="206"/>
      <point x="140" y="454" type="curve" smooth="yes"/>
      <point x="140" y="756"/>
      <point x="370" y="998"/>
      <point x="654" y="998" type="curve" smooth="yes"/>
      <point x="906" y="998"/>
      <point x="1080" y="828"/>
      <point x="1080" y="580" type="curve" smooth="yes"/>
      <point x="1080" y="278"/>
      <point x="852" y="36"/>
    </contour>
  </outline>
</glyph>
<glyph name="r" format="2">
  <advance width="676"/>
  <unicode hex="0072"/>
  <anchor x="137" y="0" name="bottom"/>
  <anchor x="545" y="1034" name="top"/>
  <outline>
    <contour>
      <point x="323" y="1034" type="line"/>
      <point x="117" y="0" type="line"/>
      <point x="157" y="0" type="line"/>
      <point x="363" y="1034" type="line"/>
    </contour>
    <contour>
      <point x="757" y="1034" type="line"/>
      <point x="483" y="1028"/>
      <point x="285" y="834"/>
      <point x="221" y="508" type="curve"/>
      <point x="255" y="504" type="line"/>
      <point x="315" y="804"/>
      <point x="501" y="988"/>
      <point x="753" y="994" type="curve"/>
    </contour>
  </outline>
</glyph>
<glyph name="s" format="2">
  <advance width="854"/>
  <unicode hex="0073"/>
  <anchor x="362" y="0" name="bottom"/>
  <anchor x="560" y="1034" name="top"/>
  <outline>
    <contour>
      <point x="384" y="-20" type="curve"/>
      <point x="584" y="-18"/>
      <point x="744" y="90"/>
      <point x="744" y="278" type="curve" smooth="yes"/>
      <point x="744" y="570"/>
      <point x="196" y="526"/>
      <point x="196" y="780" type="curve" smooth="yes"/>
      <point x="196" y="926"/>
      <point x="318" y="1004"/>
      <point x="484" y="1004" type="curve" smooth="yes"/>
      <point x="616" y="1004"/>
      <point x="722" y="966"/>
      <point x="792" y="908" type="curve"/>
      <point x="818" y="940" type="line"/>
      <point x="740" y="998"/>
      <point x="636" y="1048"/>
      <point x="490" y="1048" type="curve" smooth="yes"/>
      <point x="302" y="1048"/>
      <point x="154" y="950"/>
      <point x="154" y="774" type="curve" smooth="yes"/>
      <point x="154" y="490"/>
      <point x="700" y="522"/>
      <point x="700" y="270" type="curve" smooth="yes"/>
      <point x="700" y="118"/>
      <point x="566" y="26"/>
      <point x="388" y="26" type="curve" smooth="yes"/>
      <point x="220" y="26"/>
      <point x="84" y="90"/>
      <point x="2" y="198" type="curve"/>
      <point x="-30" y="170" type="line"/>
      <point x="52" y="54"/>
      <point x="206" y="-20"/>
    </contour>
  </outline>
</glyph>
<glyph name="t" format="2">
  <advance width="724"/>
  <unicode hex="0074"/>
  <anchor x="339" y="0" name="bottom"/>
  <anchor x="395" y="616" name="center"/>
  <anchor x="419" y="1256" name="top"/>
  <anchor x="663" y="1484" name="topright"/>
  <outline>
    <contour>
      <point x="401" y="1260" type="line"/>
      <point x="207" y="286" type="line" smooth="yes"/>
      <point x="169" y="98"/>
      <point x="227" y="-2"/>
      <point x="373" y="0" type="curve" smooth="yes"/>
      <point x="445" y="2"/>
      <point x="521" y="28"/>
      <point x="589" y="74" type="curve"/>
      <point x="569" y="106" type="line"/>
      <point x="507" y="64"/>
      <point x="439" y="42"/>
      <point x="373" y="40" type="curve" smooth="yes"/>
      <point x="257" y="38"/>
      <point x="213" y="122"/>
      <point x="245" y="282" type="curve" smooth="yes"/>
      <point x="441" y="1260" type="line"/>
    </contour>
    <contour>
      <point x="205" y="1034" type="line"/>
      <point x="197" y="994" type="line"/>
      <point x="753" y="994" type="line"/>
      <point x="761" y="1034" type="line"/>
    </contour>
  </outline>
</glyph>
<glyph name="u" format="2">
  <advance width="1274"/>
  <unicode hex="0075"/>
  <anchor x="531" y="0" name="bottom"/>
  <anchor x="959" y="0" name="ogonek"/>
  <anchor x="739" y="1034" name="top"/>
  <anchor x="1143" y="1034" name="topright"/>
  <outline>
    <contour>
      <point x="489" y="0" type="curve"/>
      <point x="701" y="4"/>
      <point x="875" y="110"/>
      <point x="977" y="298" type="curve"/>
      <point x="919" y="0" type="line"/>
      <point x="959" y="0" type="line"/>
      <point x="1163" y="1034" type="line"/>
      <point x="1123" y="1034" type="line"/>
      <point x="1019" y="502" type="line" smooth="yes"/>
      <point x="963" y="214"/>
      <point x="755" y="46"/>
      <point x="489" y="40" type="curve"/>
      <point x="261" y="40"/>
      <point x="151" y="176"/>
      <point x="197" y="408" type="curve" smooth="yes"/>
      <point x="321" y="1034" type="line"/>
      <point x="281" y="1034" type="line"/>
      <point x="157" y="408" type="line" smooth="yes"/>
      <point x="107" y="152"/>
      <point x="229" y="0"/>
    </contour>
  </outline>
</glyph>
<glyph name="v" format="2">
  <advance width="434"/>
  <unicode hex="0076"/>
  <outline>
    <contour>
      <point x="473" y="517" type="line"/>
      <point x="175" y="23" type="line"/>
      <point x="74" y="517" type="line"/>
      <point x="51" y="517" type="line"/>
      <point x="160" y="0" type="line"/>
      <point x="182" y="0" type="line"/>
      <point x="497" y="517" type="line"/>
    </contour>
  </outline>
</glyph>
<glyph name="w" format="2">
  <advance width="1636"/>
  <unicode hex="0077"/>
  <anchor x="922" y="1034" name="top"/>
  <outline>
    <contour>
      <point x="1694" y="1034" type="line"/>
      <point x="1130" y="46" type="line"/>
      <point x="956" y="1034" type="line"/>
      <point x="908" y="1034" type="line"/>
      <point x="346" y="46" type="line"/>
      <point x="172" y="1034" type="line"/>
      <point x="124" y="1034" type="line"/>
      <point x="312" y="0" type="line"/>
      <point x="356" y="0" type="line"/>
      <point x="924" y="978" type="line"/>
      <point x="1096" y="0" type="line"/>
      <point x="1140" y="0" type="line"/>
      <point x="1740" y="1034" type="line"/>
    </contour>
  </outline>
</glyph>
<glyph name="x" format="2">
  <advance width="467"/>
  <unicode hex="0078"/>
  <outline>
    <contour>
      <point x="86" y="517" type="line"/>
      <point x="221" y="268" type="line"/>
      <point x="-32" y="0" type="line"/>
      <point x="-7" y="0" type="line"/>
      <point x="230" y="251" type="line"/>
      <point x="366" y="0" type="line"/>
      <point x="391" y="0" type="line"/>
      <point x="246" y="268" type="line"/>
      <point x="480" y="517" type="line"/>
      <point x="456" y="517" type="line"/>
      <point x="236" y="284" type="line"/>
      <point x="110" y="517" type="line"/>
    </contour>
  </outline>
</glyph>
<glyph name="y" format="2">
  <advance width="912"/>
  <unicode hex="0079"/>
  <anchor x="584" y="0" name="bottom"/>
  <anchor x="560" y="1034" name="top"/>
  <outline>
    <contour>
      <point x="968" y="1034" type="line"/>
      <point x="366" y="30" type="line"/>
      <point x="380" y="28" type="line"/>
      <point x="170" y="1034" type="line"/>
      <point x="124" y="1034" type="line"/>
      <point x="346" y="-4" type="line"/>
      <point x="266" y="-134" type="line" smooth="yes"/>
      <point x="184" y="-266"/>
      <point x="82" y="-348"/>
      <point x="-22" y="-348" type="curve" smooth="yes"/>
      <point x="-80" y="-348"/>
      <point x="-134" y="-332"/>
      <point x="-172" y="-302" type="curve"/>
      <point x="-196" y="-336" type="line"/>
      <point x="-152" y="-370"/>
      <point x="-92" y="-388"/>
      <point x="-18" y="-388" type="curve" smooth="yes"/>
      <point x="90" y="-388"/>
      <point x="202" y="-306"/>
      <point x="296" y="-152" type="curve" smooth="yes"/>
      <point x="1016" y="1034" type="line"/>
    </contour>
  </outline>
</glyph>
<glyph name="z" format="2">
  <advance width="488"/>
  <unicode hex="007A"/>
  <anchor x="222" y="0" name="bottom"/>
  <anchor x="296" y="517" name="top"/>
  <outline>
    <contour>
      <point x="111" y="517" type="line"/>
      <point x="107" y="497" type="line"/>
      <point x="468" y="496" type="line"/>
      <point x="4" y="25" type="line"/>
      <point x="-1" y="0" type="line"/>
      <point x="396" y="-1" type="line"/>
      <point x="400" y="19" type="line"/>
      <point x="23" y="20" type="line"/>
      <point x="487" y="491" type="line"/>
      <point x="492" y="516" type="line"/>
    </contour>
  </outline>
</glyph>
<glyph name="braceleft" format="2">
  <advance width="296"/>
  <unicode hex="007B"/>
  <outline>
    <contour>
      <point x="235" y="640" type="line" smooth="yes"/>
      <point x="246" y="696"/>
      <point x="286" y="722"/>
      <point x="360" y="722" type="curve"/>
      <point x="364" y="742" type="line"/>
      <point x="359" y="742" type="line" smooth="yes"/>
      <point x="275" y="742"/>
      <point x="229" y="710"/>
      <point x="215" y="640" type="curve" smooth="yes"/>
      <point x="165" y="390" type="line" smooth="yes"/>
      <point x="155" y="342"/>
      <point x="133" y="318"/>
      <point x="96" y="318" type="curve" smooth="yes"/>
      <point x="77" y="318" type="line"/>
      <point x="73" y="298" type="line"/>
      <point x="92" y="298" type="line" smooth="yes"/>
      <point x="129" y="298"/>
      <point x="143" y="275"/>
      <point x="133" y="226" type="curve" smooth="yes"/>
      <point x="83" y="-24" type="line" smooth="yes"/>
      <point x="69" y="-94"/>
      <point x="101" y="-126"/>
      <point x="185" y="-126" type="curve" smooth="yes"/>
      <point x="190" y="-126" type="line"/>
      <point x="194" y="-106" type="line"/>
      <point x="120" y="-106"/>
      <point x="92" y="-80"/>
      <point x="103" y="-24" type="curve" smooth="yes"/>
      <point x="153" y="226" type="line" smooth="yes"/>
      <point x="162" y="273"/>
      <point x="155" y="296"/>
      <point x="129" y="307" type="curve"/>
      <point x="158" y="315"/>
      <point x="175" y="340"/>
      <point x="185" y="390" type="curve" smooth="yes"/>
    </contour>
  </outline>
</glyph>
<glyph name="bar" format="2">
  <advance width="199"/>
  <unicode hex="007C"/>
  <outline>
    <contour>
      <point x="203" y="824" type="line"/>
      <point x="12" y="-129" type="line"/>
      <point x="32" y="-129" type="line"/>
      <point x="223" y="824" type="line"/>
    </contour>
  </outline>
</glyph>
<glyph name="braceright" format="2">
  <advance width="297"/>
  <unicode hex="007D"/>
  <outline>
    <contour>
      <point x="83" y="-22" type="line" smooth="yes"/>
      <point x="72" y="-78"/>
      <point x="32" y="-104"/>
      <point x="-42" y="-104" type="curve"/>
      <point x="-46" y="-124" type="line"/>
      <point x="-41" y="-124" type="line" smooth="yes"/>
      <point x="43" y="-124"/>
      <point x="89" y="-92"/>
      <point x="103" y="-22" type="curve" smooth="yes"/>
      <point x="153" y="228" type="line" smooth="yes"/>
      <point x="163" y="276"/>
      <point x="185" y="300"/>
      <point x="222" y="300" type="curve" smooth="yes"/>
      <point x="241" y="300" type="line"/>
      <point x="245" y="320" type="line"/>
      <point x="226" y="320" type="line" smooth="yes"/>
      <point x="189" y="320"/>
      <point x="175" y="343"/>
      <point x="185" y="392" type="curve" smooth="yes"/>
      <point x="235" y="642" type="line" smooth="yes"/>
      <point x="249" y="712"/>
      <point x="217" y="744"/>
      <point x="133" y="744" type="curve" smooth="yes"/>
      <point x="128" y="744" type="line"/>
      <point x="124" y="724" type="line"/>
      <point x="198" y="724"/>
      <point x="226" y="698"/>
      <point x="215" y="642" type="curve" smooth="yes"/>
      <point x="165" y="392" type="line" smooth="yes"/>
      <point x="156" y="345"/>
      <point x="163" y="322"/>
      <point x="189" y="311" type="curve"/>
      <point x="160" y="303"/>
      <point x="143" y="278"/>
      <point x="133" y="228" type="curve" smooth="yes"/>
    </contour>
  </outline>
</glyph>
<glyph name="asciitilde" format="2">
  <advance width="458"/>
  <unicode hex="007E"/>
  <outline>
    <contour>
      <point x="158" y="360" type="curve" smooth="yes"/>
      <point x="114" y="360"/>
      <point x="86" y="330"/>
      <point x="76" y="280" type="curve"/>
      <point x="96" y="280" type="line"/>
      <point x="104" y="318"/>
      <point x="126" y="340"/>
      <point x="158" y="340" type="curve" smooth="yes"/>
      <point x="212" y="340"/>
      <point x="252" y="270"/>
      <point x="319" y="270" type="curve" smooth="yes"/>
      <point x="363" y="270"/>
      <point x="395" y="300"/>
      <point x="405" y="350" type="curve"/>
      <point x="385" y="350" type="line"/>
      <point x="378" y="312"/>
      <point x="351" y="290"/>
      <point x="319" y="290" type="curve" smooth="yes"/>
      <point x="266" y="290"/>
      <point x="217" y="360"/>
    </contour>
  </outline>
</glyph>
<glyph name="exclamdown" format="2">
  <advance width="384"/>
  <unicode hex="00A1"/>
  <outline>
    <contour>
      <point x="40" y="-338" type="line"/>
      <point x="111" y="22" type="line"/>
      <point x="243" y="686" type="line"/>
      <point x="203" y="686" type="line"/>
      <point x="71" y="22" type="line"/>
      <point x="0" y="-338" type="line"/>
    </contour>
    <contour>
      <point x="283" y="972" type="curve" smooth="yes"/>
      <point x="313" y="972"/>
      <point x="339" y="998"/>
      <point x="339" y="1028" type="curve" smooth="yes"/>
      <point x="339" y="1056"/>
      <point x="319" y="1076"/>
      <point x="291" y="1076" type="curve" smooth="yes"/>
      <point x="261" y="1076"/>
      <point x="235" y="1050"/>
      <point x="235" y="1020" type="curve" smooth="yes"/>
      <point x="235" y="992"/>
      <point x="255" y="972"/>
    </contour>
  </outline>
</glyph>
<glyph name="cent" format="2">
  <advance width="555"/>
  <unicode hex="00A2"/>
  <anchor x="256" y="0" name="bottom"/>
  <anchor x="316" y="517" name="top"/>
  <outline>
    <contour>
      <point x="225" y="16" type="line"/>
      <point x="193" y="-139" type="line"/>
      <point x="213" y="-139" type="line"/>
      <point x="245" y="16" type="line"/>
    </contour>
    <contour>
      <point x="349" y="654" type="line"/>
      <point x="320" y="505" type="line"/>
      <point x="340" y="505" type="line"/>
      <point x="369" y="654" type="line"/>
    </contour>
    <contour>
      <point x="269" y="0" type="curve" smooth="yes"/>
      <point x="345" y="0"/>
      <point x="414" y="30"/>
      <point x="464" y="81" type="curve"/>
      <point x="452" y="95" type="line"/>
      <point x="406" y="47"/>
      <point x="342" y="20"/>
      <point x="271" y="20" type="curve" smooth="yes"/>
      <point x="146" y="20"/>
      <point x="61" y="108"/>
      <point x="61" y="235" type="curve" smooth="yes"/>
      <point x="61" y="388"/>
      <point x="174" y="497"/>
      <point x="318" y="497" type="curve" smooth="yes"/>
      <point x="383" y="497"/>
      <point x="436" y="473"/>
      <point x="475" y="434" type="curve"/>
      <point x="489" y="448" type="line"/>
      <point x="448" y="491"/>
      <point x="389" y="517"/>
      <point x="320" y="517" type="curve" smooth="yes"/>
      <point x="166" y="517"/>
      <point x="42" y="397"/>
      <point x="42" y="234" type="curve" smooth="yes"/>
      <point x="42" y="97"/>
      <point x="135" y="0"/>
    </contour>
  </outline>
</glyph>
<glyph name="sterling" format="2">
  <advance width="511"/>
  <unicode hex="00A3"/>
  <outline>
    <contour>
      <point x="394" y="700" type="curve" smooth="yes"/>
      <point x="283" y="700"/>
      <point x="209" y="631"/>
      <point x="184" y="504" type="curve" smooth="yes"/>
      <point x="85" y="11" type="line"/>
      <point x="96" y="20" type="line"/>
      <point x="-7" y="20" type="line"/>
      <point x="-11" y="0" type="line"/>
      <point x="420" y="0" type="line"/>
      <point x="424" y="20" type="line"/>
      <point x="98" y="20" type="line"/>
      <point x="105" y="11" type="line"/>
      <point x="203" y="502" type="line" smooth="yes"/>
      <point x="226" y="617"/>
      <point x="294" y="680"/>
      <point x="394" y="680" type="curve" smooth="yes"/>
      <point x="456" y="680"/>
      <point x="504" y="649"/>
      <point x="533" y="589" type="curve"/>
      <point x="550" y="601" type="line"/>
      <point x="518" y="664"/>
      <point x="463" y="700"/>
    </contour>
    <contour>
      <point x="55" y="330" type="line"/>
      <point x="361" y="330" type="line"/>
      <point x="365" y="350" type="line"/>
      <point x="59" y="350" type="line"/>
    </contour>
  </outline>
</glyph>
<glyph name="currency" format="2">
  <advance width="1452"/>
  <unicode hex="00A4"/>
  <outline>
    <contour>
      <point x="749" y="1178" type="curve" smooth="yes"/>
      <point x="441" y="1178"/>
      <point x="189" y="932"/>
      <point x="189" y="632" type="curve" smooth="yes"/>
      <point x="189" y="336"/>
      <point x="441" y="92"/>
      <point x="749" y="92" type="curve" smooth="yes"/>
      <point x="1061" y="92"/>
      <point x="1315" y="336"/>
      <point x="1315" y="632" type="curve" smooth="yes"/>
      <point x="1315" y="932"/>
      <point x="1061" y="1178"/>
    </contour>
    <contour>
      <point x="127" y="40" type="line"/>
      <point x="155" y="12" type="line"/>
      <point x="397" y="254" type="line"/>
      <point x="367" y="282" type="line"/>
    </contour>
    <contour>
      <point x="1101" y="254" type="line"/>
      <point x="1343" y="12" type="line"/>
      <point x="1371" y="40" type="line"/>
      <point x="1131" y="282" type="line"/>
    </contour>
    <contour>
      <point x="127" y="1230" type="line"/>
      <point x="367" y="988" type="line"/>
      <point x="397" y="1016" type="line"/>
      <point x="155" y="1258" type="line"/>
    </contour>
    <contour>
      <point x="749" y="1138" type="curve" smooth="yes"/>
      <point x="1039" y="1138"/>
      <point x="1275" y="910"/>
      <point x="1275" y="632" type="curve" smooth="yes"/>
      <point x="1275" y="358"/>
      <point x="1039" y="132"/>
      <point x="749" y="132" type="curve" smooth="yes"/>
      <point x="463" y="132"/>
      <point x="229" y="358"/>
      <point x="229" y="632" type="curve" smooth="yes"/>
      <point x="229" y="910"/>
      <point x="463" y="1138"/>
    </contour>
    <contour>
      <point x="1101" y="1016" type="line"/>
      <point x="1131" y="988" type="line"/>
      <point x="1371" y="1230" type="line"/>
      <point x="1343" y="1258" type="line"/>
    </contour>
  </outline>
</glyph>
<glyph name="yen" format="2">
  <advance width="1214"/>
  <unicode hex="00A5"/>
  <outline>
    <contour>
      <point x="1322" y="1400" type="line"/>
      <point x="636" y="564" type="line"/>
      <point x="658" y="562" type="line"/>
      <point x="246" y="1400" type="line"/>
      <point x="198" y="1400" type="line"/>
      <point x="638" y="516" type="line"/>
      <point x="648" y="516" type="line"/>
      <point x="1370" y="1400" type="line"/>
    </contour>
    <contour>
      <point x="628" y="554" type="line"/>
      <point x="536" y="0" type="line"/>
      <point x="576" y="0" type="line"/>
      <point x="668" y="554" type="line"/>
    </contour>
    <contour>
      <point x="194" y="516" type="line"/>
      <point x="1080" y="516" type="line"/>
      <point x="1088" y="556" type="line"/>
      <point x="202" y="556" type="line"/>
    </contour>
    <contour>
      <point x="160" y="296" type="line"/>
      <point x="1046" y="296" type="line"/>
      <point x="1054" y="336" type="line"/>
      <point x="168" y="336" type="line"/>
    </contour>
  </outline>
</glyph>
<glyph name="brokenbar" format="2">
  <advance width="440"/>
  <unicode hex="00A6"/>
  <outline>
    <contour>
      <point x="187" y="448" type="line"/>
      <point x="45" y="-258" type="line"/>
      <point x="85" y="-258" type="line"/>
      <point x="227" y="448" type="line"/>
    </contour>
    <contour>
      <point x="427" y="1648" type="line"/>
      <point x="285" y="942" type="line"/>
      <point x="325" y="942" type="line"/>
      <point x="467" y="1648" type="line"/>
    </contour>
  </outline>
</glyph>
<glyph name="section" format="2">
  <advance width="862"/>
  <unicode hex="00A7"/>
  <outline>
    <contour>
      <point x="356" y="-154" type="curve" smooth="yes"/>
      <point x="560" y="-154"/>
      <point x="704" y="-38"/>
      <point x="704" y="124" type="curve" smooth="yes"/>
      <point x="704" y="216"/>
      <point x="640" y="288"/>
      <point x="502" y="350" type="curve"/>
      <point x="674" y="350"/>
      <point x="810" y="476"/>
      <point x="810" y="636" type="curve" smooth="yes"/>
      <point x="810" y="908"/>
      <point x="280" y="878"/>
      <point x="280" y="1120" type="curve" smooth="yes"/>
      <point x="280" y="1250"/>
      <point x="390" y="1336"/>
      <point x="558" y="1336" type="curve" smooth="yes"/>
      <point x="680" y="1336"/>
      <point x="790" y="1300"/>
      <point x="854" y="1240" type="curve"/>
      <point x="884" y="1268" type="line"/>
      <point x="800" y="1338"/>
      <point x="692" y="1374"/>
      <point x="564" y="1374" type="curve" smooth="yes"/>
      <point x="370" y="1374"/>
      <point x="242" y="1272"/>
      <point x="242" y="1118" type="curve" smooth="yes"/>
      <point x="242" y="1014"/>
      <point x="322" y="936"/>
      <point x="504" y="864" type="curve"/>
      <point x="274" y="872"/>
      <point x="136" y="776"/>
      <point x="136" y="608" type="curve" smooth="yes"/>
      <point x="136" y="332"/>
      <point x="666" y="360"/>
      <point x="666" y="122" type="curve" smooth="yes"/>
      <point x="666" y="-16"/>
      <point x="536" y="-114"/>
      <point x="350" y="-114" type="curve" smooth="yes"/>
      <point x="198" y="-114"/>
      <point x="68" y="-52"/>
      <point x="-10" y="54" type="curve"/>
      <point x="-44" y="28" type="line"/>
      <point x="42" y="-88"/>
      <point x="188" y="-154"/>
    </contour>
    <contour>
      <point x="490" y="388" type="curve" smooth="yes"/>
      <point x="328" y="388"/>
      <point x="178" y="504"/>
      <point x="178" y="632" type="curve" smooth="yes"/>
      <point x="178" y="750"/>
      <point x="290" y="828"/>
      <point x="458" y="828" type="curve" smooth="yes"/>
      <point x="646" y="828"/>
      <point x="770" y="748"/>
      <point x="770" y="626" type="curve" smooth="yes"/>
      <point x="770" y="492"/>
      <point x="648" y="388"/>
    </contour>
  </outline>
</glyph>
<glyph name="copyright" format="2">
  <advance width="768"/>
  <unicode hex="00A9"/>
  <outline>
    <contour>
      <point x="403" y="689" type="curve" smooth="yes"/>
      <point x="212" y="689"/>
      <point x="64" y="533"/>
      <point x="64" y="348" type="curve" smooth="yes"/>
      <point x="64" y="163"/>
      <point x="211" y="9"/>
      <point x="401" y="9" type="curve" smooth="yes"/>
      <point x="592" y="9"/>
      <point x="741" y="165"/>
      <point x="741" y="350" type="curve" smooth="yes"/>
      <point x="741" y="536"/>
      <point x="593" y="689"/>
    </contour>
    <contour>
      <point x="403" y="669" type="curve" smooth="yes"/>
      <point x="583" y="669"/>
      <point x="721" y="526"/>
      <point x="721" y="350" type="curve" smooth="yes"/>
      <point x="721" y="175"/>
      <point x="582" y="29"/>
      <point x="401" y="29" type="curve" smooth="yes"/>
      <point x="221" y="29"/>
      <point x="84" y="173"/>
      <point x="84" y="348" type="curve" smooth="yes"/>
      <point x="84" y="523"/>
      <point x="222" y="669"/>
    </contour>
    <contour>
      <point x="407" y="531" type="curve" smooth="yes"/>
      <point x="303" y="531"/>
      <point x="219" y="449"/>
      <point x="219" y="349" type="curve" smooth="yes"/>
      <point x="219" y="248"/>
      <point x="303" y="166"/>
      <point x="406" y="166" type="curve" smooth="yes"/>
      <point x="455" y="166"/>
      <point x="501" y="185"/>
      <point x="535" y="216" type="curve"/>
      <point x="522" y="229" type="line"/>
      <point x="491" y="202"/>
      <point x="450" y="186"/>
      <point x="407" y="186" type="curve" smooth="yes"/>
      <point x="314" y="186"/>
      <point x="239" y="259"/>
      <point x="239" y="349" type="curve" smooth="yes"/>
      <point x="239" y="438"/>
      <point x="314" y="511"/>
      <point x="407" y="511" type="curve" smooth="yes"/>
      <point x="451" y="511"/>
      <point x="491" y="495"/>
      <point x="522" y="468" type="curve"/>
      <point x="535" y="482" type="line"/>
      <point x="501" y="512"/>
      <point x="455" y="531"/>
    </contour>
  </outline>
</glyph>
<glyph name="ordfeminine" format="2">
  <advance width="351"/>
  <unicode hex="00AA"/>
  <outline>
    <contour>
      <point x="276" y="760" type="curve"/>
      <point x="236" y="760"/>
      <point x="194" y="746"/>
      <point x="147" y="717" type="curve"/>
      <point x="155" y="701" type="line"/>
      <point x="198" y="728"/>
      <point x="235" y="741"/>
      <point x="273" y="741" type="curve"/>
      <point x="334" y="741"/>
      <point x="361" y="712"/>
      <point x="351" y="658" type="curve"/>
      <point x="313" y="458" type="line"/>
      <point x="333" y="458" type="line"/>
      <point x="371" y="657" type="line"/>
      <point x="384" y="721"/>
      <point x="348" y="760"/>
    </contour>
    <contour>
      <point x="352" y="624" type="line"/>
      <point x="220" y="624" type="line" smooth="yes"/>
      <point x="147" y="624"/>
      <point x="108" y="595"/>
      <point x="98" y="547" type="curve"/>
      <point x="88" y="495"/>
      <point x="126" y="458"/>
      <point x="189" y="458" type="curve"/>
      <point x="255" y="458"/>
      <point x="304" y="486"/>
      <point x="341" y="545" type="curve"/>
      <point x="331" y="555" type="line"/>
      <point x="299" y="502"/>
      <point x="251" y="475"/>
      <point x="188" y="475" type="curve"/>
      <point x="138" y="475"/>
      <point x="110" y="502"/>
      <point x="118" y="544" type="curve"/>
      <point x="126" y="585"/>
      <point x="157" y="608"/>
      <point x="220" y="608" type="curve" smooth="yes"/>
      <point x="348" y="608" type="line"/>
    </contour>
  </outline>
</glyph>
<glyph name="logicalnot" format="2">
  <advance width="1068"/>
  <unicode hex="00AC"/>
  <outline>
    <contour>
      <point x="109" y="720" type="line"/>
      <point x="101" y="680" type="line"/>
      <point x="901" y="680" type="line"/>
      <point x="909" y="720" type="line"/>
    </contour>
    <contour>
      <point x="909" y="720" type="line"/>
      <point x="869" y="720" type="line"/>
      <point x="789" y="320" type="line"/>
      <point x="829" y="320" type="line"/>
    </contour>
  </outline>
</glyph>
<glyph name="registered" format="2">
  <advance width="768"/>
  <unicode hex="00AE"/>
  <outline>
    <contour>
      <point x="403" y="689" type="curve" smooth="yes"/>
      <point x="212" y="689"/>
      <point x="64" y="533"/>
      <point x="64" y="348" type="curve" smooth="yes"/>
      <point x="64" y="163"/>
      <point x="211" y="9"/>
      <point x="401" y="9" type="curve" smooth="yes"/>
      <point x="592" y="9"/>
      <point x="741" y="165"/>
      <point x="741" y="350" type="curve" smooth="yes"/>
      <point x="741" y="536"/>
      <point x="593" y="689"/>
    </contour>
    <contour>
      <point x="430" y="305" type="line"/>
      <point x="528" y="168" type="line"/>
      <point x="553" y="168" type="line"/>
      <point x="454" y="305" type="line"/>
    </contour>
    <contour>
      <point x="403" y="669" type="curve" smooth="yes"/>
      <point x="583" y="669"/>
      <point x="721" y="526"/>
      <point x="721" y="350" type="curve" smooth="yes"/>
      <point x="721" y="175"/>
      <point x="582" y="29"/>
      <point x="401" y="29" type="curve" smooth="yes"/>
      <point x="221" y="29"/>
      <point x="84" y="173"/>
      <point x="84" y="348" type="curve" smooth="yes"/>
      <point x="84" y="523"/>
      <point x="222" y="669"/>
    </contour>
    <contour>
      <point x="275" y="543" type="line"/>
      <point x="275" y="168" type="line"/>
      <point x="295" y="168" type="line"/>
      <point x="295" y="294" type="line"/>
      <point x="406" y="294" type="line" smooth="yes"/>
      <point x="499" y="294"/>
      <point x="551" y="341"/>
      <point x="551" y="421" type="curve" smooth="yes"/>
      <point x="551" y="499"/>
      <point x="499" y="543"/>
      <point x="406" y="543" type="curve" smooth="yes"/>
    </contour>
    <contour>
      <point x="406" y="523" type="line" smooth="yes"/>
      <point x="485" y="523"/>
      <point x="531" y="488"/>
      <point x="531" y="421" type="curve" smooth="yes"/>
      <point x="531" y="353"/>
      <point x="485" y="314"/>
      <point x="406" y="314" type="curve" smooth="yes"/>
      <point x="295" y="314" type="line"/>
      <point x="295" y="523" type="line"/>
    </contour>
  </outline>
</glyph>
<glyph name="degree" format="2">
  <advance width="282"/>
  <unicode hex="00B0"/>
  <outline>
    <contour>
      <point x="265" y="796" type="curve" smooth="yes"/>
      <point x="205" y="796"/>
      <point x="153" y="745"/>
      <point x="153" y="687" type="curve" smooth="yes"/>
      <point x="153" y="629"/>
      <point x="205" y="579"/>
      <point x="265" y="579" type="curve" smooth="yes"/>
      <point x="326" y="579"/>
      <point x="378" y="629"/>
      <point x="378" y="687" type="curve" smooth="yes"/>
      <point x="378" y="745"/>
      <point x="326" y="796"/>
    </contour>
    <contour>
      <point x="265" y="776" type="curve" smooth="yes"/>
      <point x="316" y="776"/>
      <point x="358" y="735"/>
      <point x="358" y="687" type="curve" smooth="yes"/>
      <point x="358" y="639"/>
      <point x="316" y="599"/>
      <point x="265" y="599" type="curve" smooth="yes"/>
      <point x="215" y="599"/>
      <point x="173" y="639"/>
      <point x="173" y="687" type="curve" smooth="yes"/>
      <point x="173" y="735"/>
      <point x="215" y="776"/>
    </contour>
  </outline>
</glyph>
<glyph name="micro" format="2">
  <advance width="646"/>
  <unicode hex="00B5"/>
  <outline>
    <contour>
      <point x="260" y="0" type="curve"/>
      <point x="366" y="2"/>
      <point x="453" y="55"/>
      <point x="504" y="149" type="curve"/>
      <point x="475" y="0" type="line"/>
      <point x="495" y="0" type="line"/>
      <point x="597" y="517" type="line"/>
      <point x="577" y="517" type="line"/>
      <point x="525" y="251" type="line" smooth="yes"/>
      <point x="497" y="107"/>
      <point x="393" y="23"/>
      <point x="260" y="20" type="curve"/>
      <point x="146" y="20"/>
      <point x="91" y="88"/>
      <point x="114" y="204" type="curve" smooth="yes"/>
      <point x="176" y="517" type="line"/>
      <point x="156" y="517" type="line"/>
      <point x="94" y="204" type="line" smooth="yes"/>
      <point x="69" y="76"/>
      <point x="130" y="0"/>
    </contour>
    <contour>
      <point x="35" y="-194" type="line"/>
      <point x="177" y="517" type="line"/>
      <point x="157" y="517" type="line"/>
      <point x="15" y="-194" type="line"/>
    </contour>
  </outline>
</glyph>
<glyph name="paragraph" format="2">
  <advance width="535"/>
  <unicode hex="00B6"/>
  <outline>
    <contour>
      <point x="288" y="742" type="line"/>
      <point x="147" y="742"/>
      <point x="76" y="660"/>
      <point x="59" y="576" type="curve" smooth="yes"/>
      <point x="47" y="514"/>
      <point x="60" y="417"/>
      <point x="189" y="417" type="curve" smooth="yes"/>
      <point x="201" y="417"/>
      <point x="214" y="418"/>
      <point x="228" y="419" type="curve"/>
      <point x="122" y="-112" type="line"/>
      <point x="142" y="-112" type="line"/>
      <point x="308" y="722" type="line"/>
      <point x="490" y="722" type="line"/>
      <point x="324" y="-112" type="line"/>
      <point x="344" y="-112" type="line"/>
      <point x="514" y="742" type="line"/>
    </contour>
  </outline>
</glyph>
<glyph name="periodcentered" format="2">
  <advance width="340"/>
  <unicode hex="00B7"/>
  <anchor x="568" y="532" name="_center"/>
  <anchor x="320" y="234" name="_top"/>
  <anchor x="568" y="532" name="top"/>
  <outline>
    <contour>
      <point x="181" y="584" type="curve" smooth="yes"/>
      <point x="149" y="584"/>
      <point x="117" y="556"/>
      <point x="117" y="524" type="curve" smooth="yes"/>
      <point x="117" y="500"/>
      <point x="135" y="480"/>
      <point x="159" y="480" type="curve" smooth="yes"/>
      <point x="191" y="480"/>
      <point x="223" y="508"/>
      <point x="223" y="540" type="curve" smooth="yes"/>
      <point x="223" y="564"/>
      <point x="205" y="584"/>
    </contour>
  </outline>
</glyph>
<glyph name="ordmasculine" format="2">
  <advance width="376"/>
  <unicode hex="00BA"/>
  <outline>
    <contour>
      <point x="272" y="760" type="curve" smooth="yes"/>
      <point x="184" y="760"/>
      <point x="114" y="697"/>
      <point x="105" y="610" type="curve" smooth="yes"/>
      <point x="96" y="520"/>
      <point x="154" y="458"/>
      <point x="244" y="458" type="curve" smooth="yes"/>
      <point x="331" y="458"/>
      <point x="402" y="520"/>
      <point x="411" y="608" type="curve" smooth="yes"/>
      <point x="420" y="697"/>
      <point x="361" y="760"/>
    </contour>
    <contour>
      <point x="272" y="741" type="curve" smooth="yes"/>
      <point x="348" y="741"/>
      <point x="398" y="687"/>
      <point x="390" y="610" type="curve" smooth="yes"/>
      <point x="382" y="530"/>
      <point x="322" y="476"/>
      <point x="244" y="476" type="curve" smooth="yes"/>
      <point x="168" y="476"/>
      <point x="117" y="530"/>
      <point x="125" y="608" type="curve" smooth="yes"/>
      <point x="133" y="687"/>
      <point x="194" y="741"/>
    </contour>
  </outline>
</glyph>
<glyph name="questiondown" format="2">
  <advance width="840"/>
  <unicode hex="00BF"/>
  <outline>
    <contour>
      <point x="703" y="16" type="line"/>
      <point x="653" y="-160"/>
      <point x="542" y="-265"/>
      <point x="356" y="-265" type="curve" smooth="yes"/>
      <point x="170" y="-265"/>
      <point x="5" y="-164"/>
      <point x="5" y="35" type="curve" smooth="yes"/>
      <point x="5" y="188"/>
      <point x="105" y="295"/>
      <point x="234" y="351" type="curve" smooth="yes"/>
      <point x="270" y="366"/>
      <point x="307" y="376"/>
      <point x="345" y="382" type="curve" smooth="yes"/>
      <point x="385" y="388"/>
      <point x="425" y="390"/>
      <point x="464" y="390" type="curve" smooth="yes"/>
      <point x="477" y="390" type="line"/>
      <point x="536" y="718" type="line"/>
      <point x="495" y="718" type="line"/>
      <point x="442" y="429" type="line"/>
      <point x="412" y="429" type="line" smooth="yes"/>
      <point x="379" y="429"/>
      <point x="346" y="424"/>
      <point x="314" y="417" type="curve" smooth="yes"/>
      <point x="281" y="410"/>
      <point x="248" y="402"/>
      <point x="217" y="388" type="curve" smooth="yes"/>
      <point x="75" y="326"/>
      <point x="-35" y="198"/>
      <point x="-35" y="29" type="curve" smooth="yes"/>
      <point x="-35" y="-164"/>
      <point x="124" y="-305"/>
      <point x="342" y="-305" type="curve" smooth="yes"/>
      <point x="549" y="-305"/>
      <point x="694" y="-182"/>
      <point x="744" y="16" type="curve"/>
    </contour>
    <contour>
      <point x="631" y="1060" type="curve" smooth="yes"/>
      <point x="631" y="1084"/>
      <point x="612" y="1103"/>
      <point x="588" y="1103" type="curve" smooth="yes"/>
      <point x="560" y="1103"/>
      <point x="538" y="1074"/>
      <point x="538" y="1048" type="curve" smooth="yes"/>
      <point x="538" y="1025"/>
      <point x="555" y="1005"/>
      <point x="578" y="1005" type="curve" smooth="yes"/>
      <point x="608" y="1005"/>
      <point x="631" y="1031"/>
    </contour>
  </outline>
</glyph>
<glyph name="AE" format="2">
  <advance width="1976"/>
  <unicode hex="00C6"/>
  <anchor x="1227" y="0" name="bottom"/>
  <anchor x="1747" y="20" name="ogonek"/>
  <anchor x="1373" y="1400" name="top"/>
  <outline>
    <contour>
      <point x="1039" y="1400" type="line"/>
      <point x="-85" y="0" type="line"/>
      <point x="-37" y="0" type="line"/>
      <point x="1053" y="1360" type="line"/>
      <point x="1629" y="1360" type="line"/>
      <point x="1649" y="1400" type="line"/>
    </contour>
    <contour>
      <point x="307" y="486" type="line"/>
      <point x="297" y="446" type="line"/>
      <point x="959" y="446" type="line"/>
      <point x="969" y="486" type="line"/>
    </contour>
    <contour>
      <point x="1119" y="1400" type="line"/>
      <point x="839" y="0" type="line"/>
      <point x="1741" y="0" type="line"/>
      <point x="1749" y="40" type="line"/>
      <point x="887" y="40" type="line"/>
      <point x="1019" y="702" type="line"/>
      <point x="1761" y="702" type="line"/>
      <point x="1769" y="742" type="line"/>
      <point x="1027" y="742" type="line"/>
      <point x="1151" y="1360" type="line"/>
      <point x="1987" y="1360" type="line"/>
      <point x="1995" y="1400" type="line"/>
    </contour>
  </outline>
</glyph>
<glyph name="Ccedilla" format="2">
  <advance width="711"/>
  <unicode hex="00C7"/>
  <anchor x="304" y="-200" name="bottom"/>
  <anchor x="437" y="518" name="top"/>
  <outline>
    <contour>
      <point x="453" y="704" type="curve" smooth="yes"/>
      <point x="256" y="704"/>
      <point x="79" y="546"/>
      <point x="60" y="353" type="curve" smooth="yes"/>
      <point x="42" y="170"/>
      <point x="167" y="19"/>
      <point x="345" y="-1" type="curve"/>
      <point x="311" y="-73" type="line"/>
      <point x="340" y="-73" type="line" smooth="yes"/>
      <point x="371" y="-73"/>
      <point x="387" y="-95"/>
      <point x="387" y="-121" type="curve" smooth="yes"/>
      <point x="387" y="-154"/>
      <point x="357" y="-192"/>
      <point x="306" y="-192" type="curve" smooth="yes"/>
      <point x="284" y="-192"/>
      <point x="259" y="-183"/>
      <point x="246" y="-171" type="curve"/>
      <point x="233" y="-191" type="line"/>
      <point x="247" y="-204"/>
      <point x="277" y="-213"/>
      <point x="302" y="-213" type="curve" smooth="yes"/>
      <point x="368" y="-213"/>
      <point x="409" y="-162"/>
      <point x="409" y="-117" type="curve" smooth="yes"/>
      <point x="409" y="-85"/>
      <point x="387" y="-55"/>
      <point x="341" y="-54" type="curve"/>
      <point x="366" y="-2" type="line"/>
      <point x="463" y="-8"/>
      <point x="559" y="28"/>
      <point x="634" y="89" type="curve"/>
      <point x="621" y="102" type="line"/>
      <point x="556" y="48"/>
      <point x="473" y="16"/>
      <point x="385" y="16" type="curve" smooth="yes"/>
      <point x="198" y="16"/>
      <point x="61" y="166"/>
      <point x="79" y="351" type="curve" smooth="yes"/>
      <point x="97" y="536"/>
      <point x="264" y="685"/>
      <point x="453" y="685" type="curve" smooth="yes"/>
      <point x="539" y="685"/>
      <point x="616" y="654"/>
      <point x="671" y="600" type="curve"/>
      <point x="685" y="613" type="line"/>
      <point x="627" y="670"/>
      <point x="546" y="704"/>
    </contour>
  </outline>
</glyph>
<glyph name="multiply" format="2">
  <advance width="511"/>
  <unicode hex="00D7"/>
  <outline>
    <contour>
      <point x="134" y="468" type="line"/>
      <point x="120" y="454" type="line"/>
      <point x="402" y="172" type="line"/>
      <point x="416" y="186" type="line"/>
    </contour>
    <contour>
      <point x="402" y="468" type="line"/>
      <point x="120" y="186" type="line"/>
      <point x="134" y="172" type="line"/>
      <point x="416" y="454" type="line"/>
    </contour>
  </outline>
</glyph>
<glyph name="Thorn" format="2">
  <advance width="654"/>
  <unicode hex="00DE"/>
  <outline>
    <contour>
      <point x="193" y="588" type="line"/>
      <point x="191" y="568" type="line"/>
      <point x="386" y="568" type="line" smooth="yes"/>
      <point x="549" y="568"/>
      <point x="628" y="514"/>
      <point x="628" y="407" type="curve" smooth="yes"/>
      <point x="628" y="249"/>
      <point x="525" y="162"/>
      <point x="305" y="162" type="curve" smooth="yes"/>
      <point x="112" y="162" type="line"/>
      <point x="108" y="142" type="line"/>
      <point x="300" y="142" type="line" smooth="yes"/>
      <point x="537" y="142"/>
      <point x="649" y="239"/>
      <point x="649" y="412" type="curve" smooth="yes"/>
      <point x="649" y="529"/>
      <point x="563" y="588"/>
      <point x="390" y="588" type="curve" smooth="yes"/>
    </contour>
    <contour>
      <point x="205" y="700" type="line"/>
      <point x="65" y="0" type="line"/>
      <point x="85" y="0" type="line"/>
      <point x="225" y="700" type="line"/>
    </contour>
  </outline>
</glyph>
<glyph name="germandbls" format="2">
  <advance width="1280"/>
  <unicode hex="00DF"/>
  <outline>
    <contour>
      <point x="851" y="1484" type="curve" smooth="yes"/>
      <point x="585" y="1484"/>
      <point x="375" y="1292"/>
      <point x="315" y="994" type="curve" smooth="yes"/>
      <point x="117" y="0" type="line"/>
      <point x="157" y="0" type="line"/>
      <point x="355" y="990" type="line" smooth="yes"/>
      <point x="409" y="1264"/>
      <point x="605" y="1444"/>
      <point x="851" y="1444" type="curve" smooth="yes"/>
      <point x="1069" y="1444"/>
      <point x="1185" y="1318"/>
      <point x="1145" y="1124" type="curve" smooth="yes"/>
      <point x="1103" y="910"/>
      <point x="919" y="770"/>
      <point x="681" y="770" type="curve"/>
      <point x="675" y="730" type="line"/>
      <point x="687" y="730" type="line" smooth="yes"/>
      <point x="963" y="730"/>
      <point x="1113" y="600"/>
      <point x="1073" y="398" type="curve" smooth="yes"/>
      <point x="1029" y="182"/>
      <point x="827" y="40"/>
      <point x="563" y="40" type="curve" smooth="yes"/>
      <point x="455" y="40" type="line"/>
      <point x="447" y="0" type="line"/>
      <point x="559" y="0" type="line" smooth="yes"/>
      <point x="849" y="0"/>
      <point x="1063" y="152"/>
      <point x="1111" y="390" type="curve" smooth="yes"/>
      <point x="1149" y="584"/>
      <point x="1031" y="728"/>
      <point x="813" y="754" type="curve"/>
      <point x="1003" y="788"/>
      <point x="1147" y="930"/>
      <point x="1183" y="1116" type="curve" smooth="yes"/>
      <point x="1229" y="1340"/>
      <point x="1097" y="1484"/>
    </contour>
  </outline>
</glyph>
<glyph name="ae" format="2">
  <advance width="1976"/>
  <unicode hex="00E6"/>
  <anchor x="1005" y="1034" name="top"/>
  <outline>
    <contour>
      <point x="403" y="0" type="curve" smooth="yes"/>
      <point x="621" y="0"/>
      <point x="783" y="108"/>
      <point x="889" y="320" type="curve"/>
      <point x="943" y="134"/>
      <point x="1119" y="0"/>
      <point x="1339" y="0" type="curve" smooth="yes"/>
      <point x="1493" y="0"/>
      <point x="1639" y="58"/>
      <point x="1745" y="162" type="curve"/>
      <point x="1719" y="190" type="line"/>
      <point x="1621" y="92"/>
      <point x="1489" y="40"/>
      <point x="1339" y="40" type="curve" smooth="yes"/>
      <point x="1097" y="40"/>
      <point x="897" y="240"/>
      <point x="917" y="464" type="curve" smooth="yes"/>
      <point x="923" y="518" type="line"/>
      <point x="1863" y="518" type="line"/>
      <point x="1889" y="822"/>
      <point x="1709" y="1034"/>
      <point x="1425" y="1034" type="curve" smooth="yes"/>
      <point x="1213" y="1034"/>
      <point x="1025" y="914"/>
      <point x="933" y="718" type="curve"/>
      <point x="939" y="918"/>
      <point x="813" y="1034"/>
      <point x="591" y="1034" type="curve" smooth="yes"/>
      <point x="461" y="1034"/>
      <point x="335" y="986"/>
      <point x="193" y="882" type="curve"/>
      <point x="213" y="850" type="line"/>
      <point x="353" y="950"/>
      <point x="465" y="994"/>
      <point x="591" y="994" type="curve" smooth="yes"/>
      <point x="801" y="994"/>
      <point x="909" y="886"/>
      <point x="893" y="690" type="curve" smooth="yes"/>
      <point x="885" y="564" type="line"/>
      <point x="499" y="564" type="line" smooth="yes"/>
      <point x="259" y="564"/>
      <point x="103" y="464"/>
      <point x="89" y="300" type="curve" smooth="yes"/>
      <point x="73" y="124"/>
      <point x="203" y="0"/>
    </contour>
    <contour>
      <point x="403" y="40" type="curve" smooth="yes"/>
      <point x="227" y="40"/>
      <point x="115" y="144"/>
      <point x="129" y="296" type="curve" smooth="yes"/>
      <point x="141" y="442"/>
      <point x="275" y="524"/>
      <point x="495" y="524" type="curve" smooth="yes"/>
      <point x="883" y="524" type="line"/>
      <point x="869" y="368" type="line"/>
      <point x="761" y="136"/>
      <point x="625" y="40"/>
    </contour>
    <contour>
      <point x="927" y="558" type="line"/>
      <point x="967" y="816"/>
      <point x="1169" y="994"/>
      <point x="1425" y="994" type="curve" smooth="yes"/>
      <point x="1671" y="994"/>
      <point x="1831" y="822"/>
      <point x="1825" y="558" type="curve"/>
    </contour>
  </outline>
</glyph>
<glyph name="ccedilla" format="2">
  <advance width="555"/>
  <unicode hex="00E7"/>
  <anchor x="203" y="-200" name="bottom"/>
  <anchor x="336" y="517" name="top"/>
  <outline>
    <contour>
      <point x="464" y="81" type="curve"/>
      <point x="452" y="95" type="line"/>
      <point x="406" y="47"/>
      <point x="342" y="20"/>
      <point x="271" y="20" type="curve" smooth="yes"/>
      <point x="146" y="20"/>
      <point x="61" y="108"/>
      <point x="61" y="235" type="curve" smooth="yes"/>
      <point x="61" y="388"/>
      <point x="174" y="497"/>
      <point x="318" y="497" type="curve" smooth="yes"/>
      <point x="383" y="497"/>
      <point x="436" y="473"/>
      <point x="475" y="434" type="curve"/>
      <point x="489" y="448" type="line"/>
      <point x="448" y="491"/>
      <point x="389" y="517"/>
      <point x="320" y="517" type="curve" smooth="yes"/>
      <point x="166" y="517"/>
      <point x="42" y="397"/>
      <point x="42" y="234" type="curve" smooth="yes"/>
      <point x="42" y="105"/>
      <point x="124" y="12"/>
      <point x="245" y="1" type="curve"/>
      <point x="210" y="-73" type="line"/>
      <point x="239" y="-73" type="line" smooth="yes"/>
      <point x="270" y="-73"/>
      <point x="286" y="-95"/>
      <point x="286" y="-121" type="curve" smooth="yes"/>
      <point x="286" y="-154"/>
      <point x="256" y="-192"/>
      <point x="205" y="-192" type="curve" smooth="yes"/>
      <point x="183" y="-192"/>
      <point x="158" y="-183"/>
      <point x="145" y="-171" type="curve"/>
      <point x="132" y="-191" type="line"/>
      <point x="146" y="-204"/>
      <point x="176" y="-213"/>
      <point x="201" y="-213" type="curve" smooth="yes"/>
      <point x="267" y="-213"/>
      <point x="308" y="-162"/>
      <point x="308" y="-117" type="curve" smooth="yes"/>
      <point x="308" y="-85"/>
      <point x="286" y="-55"/>
      <point x="240" y="-54" type="curve"/>
      <point x="266" y="0" type="line"/>
      <point x="342" y="0"/>
      <point x="414" y="30"/>
    </contour>
  </outline>
  <guideline angle="0" x="0" y="-75"/>
</glyph>
<glyph name="eth" format="2">
  <advance width="549"/>
  <unicode hex="00F0"/>
  <outline>
    <contour>
      <point x="208" y="727" type="line"/>
      <point x="359" y="632"/>
      <point x="470" y="467"/>
      <point x="490" y="308" type="curve"/>
      <point x="467" y="386"/>
      <point x="388" y="437"/>
      <point x="288" y="437" type="curve" smooth="yes"/>
      <point x="143" y="437"/>
      <point x="42" y="337"/>
      <point x="42" y="193" type="curve" smooth="yes"/>
      <point x="42" y="76"/>
      <point x="124" y="1"/>
      <point x="254" y="1" type="curve" smooth="yes"/>
      <point x="411" y="1"/>
      <point x="505" y="103"/>
      <point x="505" y="274" type="curve" smooth="yes"/>
      <point x="505" y="448"/>
      <point x="397" y="628"/>
      <point x="222" y="744" type="curve"/>
    </contour>
    <contour>
      <point x="287" y="417" type="curve" smooth="yes"/>
      <point x="407" y="417"/>
      <point x="482" y="350"/>
      <point x="482" y="243" type="curve" smooth="yes"/>
      <point x="482" y="111"/>
      <point x="390" y="21"/>
      <point x="253" y="21" type="curve" smooth="yes"/>
      <point x="136" y="21"/>
      <point x="63" y="89"/>
      <point x="63" y="196" type="curve" smooth="yes"/>
      <point x="63" y="328"/>
      <point x="153" y="417"/>
    </contour>
    <contour>
      <point x="166" y="526" type="line"/>
      <point x="512" y="673" type="line"/>
      <point x="505" y="690" type="line"/>
      <point x="159" y="543" type="line"/>
    </contour>
  </outline>
</glyph>
<glyph name="divide" format="2">
  <advance width="960"/>
  <unicode hex="00F7"/>
  <outline>
    <component base="dotaccent" xOffset="330" yOffset="-342"/>
    <component base="dotaccent" xOffset="192" yOffset="-1042"/>
    <contour>
      <point x="108" y="660" type="line"/>
      <point x="100" y="620" type="line"/>
      <point x="900" y="620" type="line"/>
      <point x="908" y="660" type="line"/>
    </contour>
  </outline>
</glyph>
<glyph name="oslash" format="2">
  <advance width="589"/>
  <unicode hex="00F8"/>
  <anchor x="332" y="517" name="top"/>
  <outline>
    <contour>
      <point x="320" y="517" type="curve" smooth="yes"/>
      <point x="166" y="517"/>
      <point x="42" y="397"/>
      <point x="42" y="234" type="curve" smooth="yes"/>
      <point x="42" y="97"/>
      <point x="135" y="0"/>
      <point x="269" y="0" type="curve" smooth="yes"/>
      <point x="423" y="0"/>
      <point x="547" y="120"/>
      <point x="547" y="284" type="curve" smooth="yes"/>
      <point x="547" y="420"/>
      <point x="454" y="517"/>
    </contour>
    <contour>
      <point x="318" y="497" type="curve" smooth="yes"/>
      <point x="443" y="497"/>
      <point x="527" y="409"/>
      <point x="527" y="283" type="curve" smooth="yes"/>
      <point x="527" y="129"/>
      <point x="415" y="20"/>
      <point x="271" y="20" type="curve" smooth="yes"/>
      <point x="146" y="20"/>
      <point x="62" y="108"/>
      <point x="62" y="235" type="curve" smooth="yes"/>
      <point x="62" y="388"/>
      <point x="174" y="497"/>
    </contour>
    <contour>
      <point x="22" y="-110" type="line"/>
      <point x="43" y="-110" type="line"/>
      <point x="562" y="627" type="line"/>
      <point x="541" y="627" type="line"/>
    </contour>
  </outline>
</glyph>
<glyph name="Dcroat" format="2">
  <advance width="1624"/>
  <unicode hex="0110"/>
  <outline>
    <component base="D"/>
    <contour>
      <point x="141" y="722" type="line"/>
      <point x="133" y="682" type="line"/>
      <point x="855" y="682" type="line"/>
      <point x="863" y="722" type="line"/>
    </contour>
  </outline>
</glyph>
<glyph name="dcroat" format="2">
  <advance width="669"/>
  <unicode hex="0111"/>
  <outline>
    <contour>
      <point x="352" y="619" type="line"/>
      <point x="702" y="619" type="line"/>
      <point x="706" y="639" type="line"/>
      <point x="356" y="639" type="line"/>
    </contour>
    <contour>
      <point x="271" y="-2" type="curve" smooth="yes"/>
      <point x="366" y="-2"/>
      <point x="452" y="46"/>
      <point x="504" y="128" type="curve"/>
      <point x="478" y="0" type="line"/>
      <point x="498" y="0" type="line"/>
      <point x="646" y="742" type="line"/>
      <point x="626" y="742" type="line"/>
      <point x="546" y="340" type="line"/>
      <point x="526" y="448"/>
      <point x="437" y="519"/>
      <point x="319" y="519" type="curve" smooth="yes"/>
      <point x="164" y="519"/>
      <point x="40" y="388"/>
      <point x="40" y="224" type="curve" smooth="yes"/>
      <point x="40" y="91"/>
      <point x="135" y="-2"/>
    </contour>
    <contour>
      <point x="273" y="18" type="curve" smooth="yes"/>
      <point x="147" y="18"/>
      <point x="60" y="103"/>
      <point x="60" y="227" type="curve" smooth="yes"/>
      <point x="60" y="378"/>
      <point x="175" y="499"/>
      <point x="317" y="499" type="curve" smooth="yes"/>
      <point x="443" y="499"/>
      <point x="530" y="414"/>
      <point x="530" y="290" type="curve" smooth="yes"/>
      <point x="530" y="139"/>
      <point x="416" y="18"/>
    </contour>
  </outline>
</glyph>
<glyph name="Hbar" format="2">
  <advance width="798"/>
  <unicode hex="0126"/>
  <anchor x="348" y="0" name="bottom"/>
  <anchor x="418" y="351" name="center"/>
  <anchor x="488" y="700" name="top"/>
  <anchor x="107" y="700" name="topleft"/>
  <outline>
    <contour>
      <point x="105" y="548" type="line"/>
      <point x="101" y="528" type="line"/>
      <point x="805" y="528" type="line"/>
      <point x="809" y="548" type="line"/>
    </contour>
    <contour>
      <point x="235" y="700" type="line"/>
      <point x="215" y="700" type="line"/>
      <point x="75" y="0" type="line"/>
      <point x="95" y="0" type="line"/>
    </contour>
    <contour>
      <point x="599" y="0" type="line"/>
      <point x="619" y="0" type="line"/>
      <point x="759" y="700" type="line"/>
      <point x="739" y="700" type="line"/>
    </contour>
    <contour>
      <point x="159" y="344" type="line"/>
      <point x="673" y="344" type="line"/>
      <point x="677" y="364" type="line"/>
      <point x="163" y="364" type="line"/>
    </contour>
  </outline>
</glyph>
<glyph name="hbar" format="2">
  <advance width="630"/>
  <unicode hex="0127"/>
  <outline>
    <contour>
      <point x="98" y="619" type="line"/>
      <point x="427" y="619" type="line"/>
      <point x="431" y="639" type="line"/>
      <point x="102" y="639" type="line"/>
    </contour>
    <contour>
      <point x="392" y="517" type="curve"/>
      <point x="286" y="515"/>
      <point x="199" y="462"/>
      <point x="148" y="368" type="curve"/>
      <point x="221" y="742" type="line"/>
      <point x="201" y="742" type="line"/>
      <point x="55" y="0" type="line"/>
      <point x="75" y="0" type="line"/>
      <point x="127" y="266" type="line" smooth="yes"/>
      <point x="155" y="410"/>
      <point x="259" y="494"/>
      <point x="392" y="497" type="curve"/>
      <point x="506" y="497"/>
      <point x="561" y="429"/>
      <point x="538" y="313" type="curve" smooth="yes"/>
      <point x="476" y="0" type="line"/>
      <point x="496" y="0" type="line"/>
      <point x="558" y="313" type="line" smooth="yes"/>
      <point x="583" y="441"/>
      <point x="522" y="517"/>
    </contour>
  </outline>
</glyph>
<glyph name="imacron" format="2">
  <advance width="219"/>
  <unicode hex="012B"/>
  <outline>
    <contour>
      <point x="151" y="517" type="line"/>
      <point x="48" y="0" type="line"/>
      <point x="68" y="0" type="line"/>
      <point x="171" y="517" type="line"/>
    </contour>
    <contour>
      <point x="79" y="657" type="line"/>
      <point x="296" y="657" type="line"/>
      <point x="300" y="677" type="line"/>
      <point x="83" y="677" type="line"/>
    </contour>
  </outline>
</glyph>
<glyph name="dotlessi" format="2">
  <advance width="480"/>
  <unicode hex="0131"/>
  <anchor x="137" y="0" name="bottom"/>
  <anchor x="157" y="0" name="ogonek"/>
  <anchor x="343" y="1034" name="top"/>
  <outline>
    <contour>
      <point x="323" y="1034" type="line"/>
      <point x="117" y="0" type="line"/>
      <point x="157" y="0" type="line"/>
      <point x="363" y="1034" type="line"/>
    </contour>
  </outline>
</glyph>
<glyph name="kgreenlandic" format="2">
  <advance width="512"/>
  <unicode hex="0138"/>
  <anchor x="250" y="0" name="bottom"/>
  <anchor x="173" y="10" name="ogonek"/>
  <anchor x="104" y="517" name="top"/>
  <outline>
    <contour>
      <point x="151" y="517" type="line"/>
      <point x="48" y="0" type="line"/>
      <point x="68" y="0" type="line"/>
      <point x="171" y="517" type="line"/>
    </contour>
    <contour>
      <point x="500" y="517" type="line"/>
      <point x="97" y="178" type="line"/>
      <point x="90" y="147" type="line"/>
      <point x="528" y="517" type="line"/>
    </contour>
    <contour>
      <point x="268" y="314" type="line"/>
      <point x="431" y="0" type="line"/>
      <point x="455" y="0" type="line"/>
      <point x="286" y="326" type="line"/>
    </contour>
  </outline>
</glyph>
<glyph name="Lslash" format="2">
  <advance width="486"/>
  <unicode hex="0141"/>
  <anchor x="251" y="0" name="bottom"/>
  <anchor x="388" y="391" name="center"/>
  <anchor x="241" y="700" name="top"/>
  <anchor x="421" y="700" name="topright"/>
  <outline>
    <contour>
      <point x="50" y="293" type="line"/>
      <point x="319" y="438" type="line"/>
      <point x="323" y="461" type="line"/>
      <point x="54" y="317" type="line"/>
    </contour>
    <contour>
      <point x="221" y="700" type="line"/>
      <point x="81" y="0" type="line"/>
      <point x="415" y="0" type="line"/>
      <point x="419" y="20" type="line"/>
      <point x="96" y="20" type="line"/>
      <point x="103" y="11" type="line"/>
      <point x="241" y="700" type="line"/>
    </contour>
  </outline>
</glyph>
<glyph name="lslash" format="2">
  <advance width="297"/>
  <unicode hex="0142"/>
  <outline>
    <component base="l" xOffset="47"/>
    <contour>
      <point x="46" y="293" type="line"/>
      <point x="314" y="437" type="line"/>
      <point x="318" y="460" type="line"/>
      <point x="50" y="316" type="line"/>
    </contour>
  </outline>
</glyph>
<glyph name="Eng" format="2">
  <advance width="778"/>
  <unicode hex="014A"/>
  <anchor x="338" y="0" name="bottom"/>
  <anchor x="478" y="700" name="top"/>
  <outline>
    <contour>
      <point x="590" y="3" type="line"/>
      <point x="566" y="-114"/>
      <point x="500" y="-176"/>
      <point x="402" y="-176" type="curve" smooth="yes"/>
      <point x="339" y="-176"/>
      <point x="288" y="-144"/>
      <point x="259" y="-84" type="curve"/>
      <point x="242" y="-98" type="line"/>
      <point x="274" y="-161"/>
      <point x="330" y="-196"/>
      <point x="398" y="-196" type="curve" smooth="yes"/>
      <point x="509" y="-196"/>
      <point x="584" y="-126"/>
      <point x="609" y="0" type="curve"/>
    </contour>
    <contour>
      <point x="729" y="700" type="line"/>
      <point x="593" y="20" type="line"/>
      <point x="235" y="700" type="line"/>
      <point x="205" y="700" type="line"/>
      <point x="65" y="0" type="line"/>
      <point x="85" y="0" type="line"/>
      <point x="221" y="680" type="line"/>
      <point x="579" y="0" type="line"/>
      <point x="609" y="0" type="line"/>
      <point x="749" y="700" type="line"/>
    </contour>
  </outline>
</glyph>
<glyph name="eng" format="2">
  <advance width="1288"/>
  <unicode hex="014B"/>
  <anchor x="547" y="0" name="bottom"/>
  <anchor x="767" y="1034" name="top"/>
  <outline>
    <contour>
      <point x="799" y="1034" type="curve" smooth="yes"/>
      <point x="583" y="1034"/>
      <point x="407" y="924"/>
      <point x="305" y="742" type="curve"/>
      <point x="363" y="1034" type="line"/>
      <point x="323" y="1034" type="line"/>
      <point x="117" y="0" type="line"/>
      <point x="157" y="0" type="line"/>
      <point x="269" y="562" type="line"/>
      <point x="343" y="828"/>
      <point x="533" y="994"/>
      <point x="791" y="994" type="curve" smooth="yes"/>
      <point x="1021" y="994"/>
      <point x="1131" y="858"/>
      <point x="1085" y="626" type="curve" smooth="yes"/>
      <point x="947" y="-64" type="line" smooth="yes"/>
      <point x="909" y="-252"/>
      <point x="823" y="-348"/>
      <point x="697" y="-346" type="curve" smooth="yes"/>
      <point x="633" y="-344"/>
      <point x="575" y="-322"/>
      <point x="531" y="-280" type="curve"/>
      <point x="501" y="-312" type="line"/>
      <point x="551" y="-358"/>
      <point x="617" y="-384"/>
      <point x="689" y="-386" type="curve" smooth="yes"/>
      <point x="841" y="-390"/>
      <point x="943" y="-280"/>
      <point x="987" y="-64" type="curve" smooth="yes"/>
      <point x="1125" y="626" type="line" smooth="yes"/>
      <point x="1175" y="882"/>
      <point x="1055" y="1034"/>
    </contour>
  </outline>
</glyph>
<glyph name="OE" format="2">
  <advance width="1072"/>
  <unicode hex="0152"/>
  <anchor x="708" y="0" name="bottom"/>
  <anchor x="969" y="10" name="ogonek"/>
  <anchor x="626" y="700" name="top"/>
  <outline>
    <contour>
      <point x="454" y="700" type="line" smooth="yes"/>
      <point x="242" y="700"/>
      <point x="58" y="523"/>
      <point x="58" y="320" type="curve" smooth="yes"/>
      <point x="58" y="140"/>
      <point x="201" y="0"/>
      <point x="386" y="0" type="curve" smooth="yes"/>
      <point x="520" y="0" type="line"/>
      <point x="523" y="19" type="line"/>
      <point x="385" y="19" type="line" smooth="yes"/>
      <point x="210" y="19"/>
      <point x="77" y="148"/>
      <point x="77" y="316" type="curve" smooth="yes"/>
      <point x="77" y="511"/>
      <point x="252" y="681"/>
      <point x="454" y="681" type="curve" smooth="yes"/>
      <point x="666" y="681" type="line"/>
      <point x="672" y="700" type="line"/>
    </contour>
    <contour>
      <point x="599" y="351" type="line"/>
      <point x="976" y="351" type="line"/>
      <point x="980" y="371" type="line"/>
      <point x="603" y="371" type="line"/>
    </contour>
    <contour>
      <point x="672" y="689" type="line"/>
      <point x="661" y="680" type="line"/>
      <point x="1088" y="680" type="line"/>
      <point x="1092" y="700" type="line"/>
      <point x="654" y="700" type="line"/>
      <point x="514" y="0" type="line"/>
      <point x="966" y="0" type="line"/>
      <point x="970" y="20" type="line"/>
      <point x="529" y="20" type="line"/>
      <point x="536" y="11" type="line"/>
    </contour>
  </outline>
</glyph>
<glyph name="oe" format="2">
  <advance width="2150"/>
  <unicode hex="0153"/>
  <outline>
    <contour>
      <point x="656" y="1034" type="curve" smooth="yes"/>
      <point x="370" y="1034"/>
      <point x="134" y="818"/>
      <point x="106" y="520" type="curve" smooth="yes"/>
      <point x="76" y="216"/>
      <point x="268" y="0"/>
      <point x="558" y="0" type="curve" smooth="yes"/>
      <point x="844" y="0"/>
      <point x="1080" y="216"/>
      <point x="1110" y="516" type="curve" smooth="yes"/>
      <point x="1138" y="818"/>
      <point x="946" y="1034"/>
    </contour>
    <contour>
      <point x="656" y="994" type="curve" smooth="yes"/>
      <point x="922" y="994"/>
      <point x="1096" y="798"/>
      <point x="1070" y="520" type="curve" smooth="yes"/>
      <point x="1042" y="236"/>
      <point x="828" y="40"/>
      <point x="558" y="40" type="curve" smooth="yes"/>
      <point x="292" y="40"/>
      <point x="118" y="236"/>
      <point x="146" y="516" type="curve" smooth="yes"/>
      <point x="172" y="798"/>
      <point x="386" y="994"/>
    </contour>
    <contour>
      <point x="1096" y="518" type="line"/>
      <point x="2056" y="518" type="line"/>
      <point x="2084" y="818"/>
      <point x="1912" y="1034"/>
      <point x="1622" y="1034" type="curve" smooth="yes"/>
      <point x="1336" y="1034"/>
      <point x="1100" y="818"/>
      <point x="1072" y="520" type="curve" smooth="yes"/>
      <point x="1042" y="216"/>
      <point x="1234" y="0"/>
      <point x="1524" y="0" type="curve" smooth="yes"/>
      <point x="1682" y="0"/>
      <point x="1828" y="60"/>
      <point x="1934" y="162" type="curve"/>
      <point x="1908" y="190" type="line"/>
      <point x="1812" y="94"/>
      <point x="1676" y="40"/>
      <point x="1524" y="40" type="curve" smooth="yes"/>
      <point x="1258" y="40"/>
      <point x="1084" y="236"/>
      <point x="1112" y="516" type="curve" smooth="yes"/>
      <point x="1138" y="798"/>
      <point x="1352" y="994"/>
      <point x="1622" y="994" type="curve" smooth="yes"/>
      <point x="1876" y="994"/>
      <point x="2026" y="816"/>
      <point x="2020" y="558" type="curve"/>
      <point x="1100" y="558" type="line"/>
    </contour>
  </outline>
</glyph>
<glyph name="scedilla" format="2">
  <advance width="854"/>
  <unicode hex="015F"/>
  <anchor x="298" y="-400" name="bottom"/>
  <anchor x="510" y="1034" name="top"/>
  <outline>
    <contour>
      <point x="282" y="-96" type="line"/>
      <point x="340" y="-96" type="line" smooth="yes"/>
      <point x="402" y="-96"/>
      <point x="434" y="-140"/>
      <point x="434" y="-192" type="curve" smooth="yes"/>
      <point x="434" y="-258"/>
      <point x="374" y="-334"/>
      <point x="272" y="-334" type="curve" smooth="yes"/>
      <point x="228" y="-334"/>
      <point x="178" y="-316"/>
      <point x="152" y="-292" type="curve"/>
      <point x="126" y="-332" type="line"/>
      <point x="154" y="-358"/>
      <point x="214" y="-376"/>
      <point x="264" y="-376" type="curve" smooth="yes"/>
      <point x="396" y="-376"/>
      <point x="478" y="-274"/>
      <point x="478" y="-184" type="curve" smooth="yes"/>
      <point x="478" y="-120"/>
      <point x="434" y="-60"/>
      <point x="342" y="-58" type="curve"/>
      <point x="360" y="-20" type="line"/>
      <point x="546" y="-26"/>
      <point x="744" y="65"/>
      <point x="744" y="278" type="curve" smooth="yes"/>
      <point x="744" y="570"/>
      <point x="196" y="526"/>
      <point x="196" y="780" type="curve" smooth="yes"/>
      <point x="196" y="926"/>
      <point x="318" y="1004"/>
      <point x="484" y="1004" type="curve" smooth="yes"/>
      <point x="616" y="1004"/>
      <point x="722" y="966"/>
      <point x="792" y="908" type="curve"/>
      <point x="818" y="940" type="line"/>
      <point x="740" y="998"/>
      <point x="636" y="1048"/>
      <point x="490" y="1048" type="curve" smooth="yes"/>
      <point x="302" y="1048"/>
      <point x="154" y="950"/>
      <point x="154" y="774" type="curve" smooth="yes"/>
      <point x="154" y="490"/>
      <point x="700" y="522"/>
      <point x="700" y="270" type="curve" smooth="yes"/>
      <point x="700" y="118"/>
      <point x="566" y="26"/>
      <point x="388" y="26" type="curve" smooth="yes"/>
      <point x="220" y="26"/>
      <point x="84" y="90"/>
      <point x="2" y="198" type="curve"/>
      <point x="-30" y="170" type="line"/>
      <point x="42" y="68"/>
      <point x="169" y="-1"/>
      <point x="319" y="-17" type="curve"/>
    </contour>
  </outline>
</glyph>
<glyph name="Tcedilla" format="2">
  <advance width="1054"/>
  <unicode hex="0162"/>
  <anchor x="562" y="702" name="center"/>
  <anchor x="714" y="1400" name="top"/>
  <anchor x="514" y="-388" name="bottom"/>
  <outline>
    <contour>
      <point x="1196" y="1360" type="line"/>
      <point x="1204" y="1400" type="line"/>
      <point x="202" y="1400" type="line"/>
      <point x="194" y="1360" type="line"/>
      <point x="676" y="1360" type="line"/>
      <point x="397" y="0" type="line"/>
      <point x="397" y="0" type="line"/>
      <point x="352" y="-96" type="line"/>
      <point x="410" y="-96" type="line" smooth="yes"/>
      <point x="472" y="-96"/>
      <point x="504" y="-140"/>
      <point x="504" y="-192" type="curve" smooth="yes"/>
      <point x="504" y="-258"/>
      <point x="444" y="-334"/>
      <point x="342" y="-334" type="curve" smooth="yes"/>
      <point x="298" y="-334"/>
      <point x="248" y="-316"/>
      <point x="222" y="-292" type="curve"/>
      <point x="196" y="-332" type="line"/>
      <point x="224" y="-358"/>
      <point x="284" y="-376"/>
      <point x="334" y="-376" type="curve" smooth="yes"/>
      <point x="466" y="-376"/>
      <point x="548" y="-274"/>
      <point x="548" y="-184" type="curve" smooth="yes"/>
      <point x="548" y="-120"/>
      <point x="504" y="-60"/>
      <point x="412" y="-58" type="curve"/>
      <point x="440" y="0" type="line"/>
      <point x="440" y="0" type="line"/>
      <point x="716" y="1360" type="line"/>
    </contour>
  </outline>
</glyph>
<glyph name="tcedilla" format="2">
  <advance width="341"/>
  <unicode hex="0163"/>
  <anchor x="106" y="-200" name="bottom"/>
  <anchor x="187" y="308" name="center"/>
  <anchor x="239" y="517" name="top"/>
  <anchor x="321" y="742" name="topright"/>
  <outline>
    <contour>
      <point x="190" y="630" type="line"/>
      <point x="167" y="517" type="line"/>
      <point x="92" y="517" type="line"/>
      <point x="88" y="497" type="line"/>
      <point x="164" y="497" type="line"/>
      <point x="93" y="143" type="line" smooth="yes"/>
      <point x="77" y="62"/>
      <point x="96" y="13"/>
      <point x="149" y="2" type="curve"/>
      <point x="113" y="-73" type="line"/>
      <point x="142" y="-73" type="line" smooth="yes"/>
      <point x="173" y="-73"/>
      <point x="189" y="-95"/>
      <point x="189" y="-121" type="curve" smooth="yes"/>
      <point x="189" y="-154"/>
      <point x="159" y="-192"/>
      <point x="108" y="-192" type="curve" smooth="yes"/>
      <point x="86" y="-192"/>
      <point x="61" y="-183"/>
      <point x="48" y="-171" type="curve"/>
      <point x="35" y="-191" type="line"/>
      <point x="49" y="-204"/>
      <point x="79" y="-213"/>
      <point x="104" y="-213" type="curve" smooth="yes"/>
      <point x="170" y="-213"/>
      <point x="211" y="-162"/>
      <point x="211" y="-117" type="curve" smooth="yes"/>
      <point x="211" y="-85"/>
      <point x="189" y="-55"/>
      <point x="143" y="-54" type="curve"/>
      <point x="169" y="0" type="line"/>
      <point x="209" y="-1"/>
      <point x="251" y="15"/>
      <point x="284" y="37" type="curve"/>
      <point x="274" y="53" type="line"/>
      <point x="243" y="32"/>
      <point x="209" y="21"/>
      <point x="176" y="20" type="curve" smooth="yes"/>
      <point x="118" y="19"/>
      <point x="96" y="61"/>
      <point x="112" y="141" type="curve" smooth="yes"/>
      <point x="183" y="497" type="line"/>
      <point x="366" y="497" type="line"/>
      <point x="370" y="517" type="line"/>
      <point x="187" y="517" type="line"/>
      <point x="210" y="630" type="line"/>
    </contour>
  </outline>
  <guideline angle="0" x="0" y="-75"/>
</glyph>
<glyph name="uni0163" format="2">
  <advance width="724"/>
  <unicode hex="0163"/>
  <anchor x="395" y="616" name="center"/>
  <anchor x="419" y="1256" name="top"/>
  <anchor x="663" y="1484" name="topright"/>
  <anchor x="433" y="-388" name="bottom"/>
  <outline>
    <contour>
      <point x="401" y="1260" type="line"/>
      <point x="356" y="1034" type="line"/>
      <point x="205" y="1034" type="line"/>
      <point x="197" y="994" type="line"/>
      <point x="348" y="994" type="line"/>
      <point x="207" y="286" type="line" smooth="yes"/>
      <point x="173" y="117"/>
      <point x="216" y="20"/>
      <point x="330" y="3" type="curve"/>
      <point x="284" y="-96" type="line"/>
      <point x="342" y="-96" type="line" smooth="yes"/>
      <point x="404" y="-96"/>
      <point x="436" y="-140"/>
      <point x="436" y="-192" type="curve" smooth="yes"/>
      <point x="436" y="-258"/>
      <point x="376" y="-334"/>
      <point x="274" y="-334" type="curve" smooth="yes"/>
      <point x="230" y="-334"/>
      <point x="180" y="-316"/>
      <point x="154" y="-292" type="curve"/>
      <point x="128" y="-332" type="line"/>
      <point x="156" y="-358"/>
      <point x="216" y="-376"/>
      <point x="266" y="-376" type="curve" smooth="yes"/>
      <point x="398" y="-376"/>
      <point x="480" y="-274"/>
      <point x="480" y="-184" type="curve" smooth="yes"/>
      <point x="480" y="-120"/>
      <point x="436" y="-60"/>
      <point x="344" y="-58" type="curve"/>
      <point x="372" y="0" type="line"/>
      <point x="445" y="2"/>
      <point x="521" y="28"/>
      <point x="589" y="74" type="curve"/>
      <point x="569" y="106" type="line"/>
      <point x="507" y="64"/>
      <point x="439" y="42"/>
      <point x="373" y="40" type="curve" smooth="yes"/>
      <point x="257" y="38"/>
      <point x="213" y="122"/>
      <point x="245" y="282" type="curve" smooth="yes"/>
      <point x="388" y="994" type="line"/>
      <point x="753" y="994" type="line"/>
      <point x="761" y="1034" type="line"/>
      <point x="396" y="1034" type="line"/>
      <point x="441" y="1260" type="line"/>
    </contour>
  </outline>
</glyph>
<glyph name="tbar" format="2">
  <advance width="341"/>
  <unicode hex="0167"/>
  <anchor x="159" y="0" name="bottom"/>
  <outline>
    <contour>
      <point x="190" y="630" type="line"/>
      <point x="93" y="143" type="line"/>
      <point x="74" y="49"/>
      <point x="103" y="-1"/>
      <point x="176" y="0" type="curve"/>
      <point x="212" y="1"/>
      <point x="250" y="14"/>
      <point x="284" y="37" type="curve"/>
      <point x="274" y="53" type="line"/>
      <point x="243" y="32"/>
      <point x="209" y="21"/>
      <point x="176" y="20" type="curve"/>
      <point x="118" y="19"/>
      <point x="96" y="61"/>
      <point x="112" y="141" type="curve"/>
      <point x="210" y="630" type="line"/>
    </contour>
    <contour>
      <point x="89" y="517" type="line"/>
      <point x="85" y="497" type="line"/>
      <point x="363" y="497" type="line"/>
      <point x="367" y="517" type="line"/>
    </contour>
    <contour>
      <point x="51" y="317" type="line"/>
      <point x="47" y="297" type="line"/>
      <point x="325" y="297" type="line"/>
      <point x="329" y="317" type="line"/>
    </contour>
  </outline>
</glyph>
<glyph name="Schwa" format="2">
  <advance width="779"/>
  <unicode hex="018F"/>
  <outline>
    <contour>
      <point x="440" y="704" type="curve" smooth="yes"/>
      <point x="622" y="704"/>
      <point x="758" y="563"/>
      <point x="758" y="383" type="curve" smooth="yes"/>
      <point x="758" y="173"/>
      <point x="578" y="-3"/>
      <point x="376" y="-3" type="curve" smooth="yes"/>
      <point x="194" y="-3"/>
      <point x="57" y="139"/>
      <point x="57" y="320" type="curve" smooth="yes"/>
      <point x="57" y="330"/>
      <point x="57" y="341"/>
      <point x="58" y="351" type="curve"/>
      <point x="747" y="351" type="line"/>
      <point x="744" y="331" type="line"/>
      <point x="77" y="331" type="line"/>
      <point x="72" y="157"/>
      <point x="203" y="17"/>
      <point x="378" y="17" type="curve" smooth="yes"/>
      <point x="568" y="17"/>
      <point x="738" y="182"/>
      <point x="738" y="382" type="curve" smooth="yes"/>
      <point x="738" y="550"/>
      <point x="609" y="684"/>
      <point x="438" y="684" type="curve" smooth="yes"/>
      <point x="336" y="684"/>
      <point x="240" y="640"/>
      <point x="170" y="569" type="curve"/>
      <point x="159" y="584" type="line"/>
      <point x="232" y="658"/>
      <point x="333" y="704"/>
    </contour>
  </outline>
</glyph>
<glyph name="florin" format="2">
  <advance width="416"/>
  <unicode hex="0192"/>
  <outline>
    <contour>
      <point x="382" y="752" type="curve" smooth="yes"/>
      <point x="307" y="753"/>
      <point x="245" y="693"/>
      <point x="227" y="600" type="curve" smooth="yes"/>
      <point x="104" y="-42" type="line" smooth="yes"/>
      <point x="88" y="-123"/>
      <point x="56" y="-175"/>
      <point x="-9" y="-174" type="curve" smooth="yes"/>
      <point x="-34" y="-173"/>
      <point x="-63" y="-160"/>
      <point x="-81" y="-141" type="curve"/>
      <point x="-96" y="-157" type="line"/>
      <point x="-74" y="-178"/>
      <point x="-41" y="-193"/>
      <point x="-11" y="-194" type="curve" smooth="yes"/>
      <point x="65" y="-195"/>
      <point x="106" y="-135"/>
      <point x="124" y="-42" type="curve" smooth="yes"/>
      <point x="247" y="600" type="line" smooth="yes"/>
      <point x="263" y="681"/>
      <point x="315" y="733"/>
      <point x="380" y="732" type="curve" smooth="yes"/>
      <point x="408" y="731"/>
      <point x="441" y="718"/>
      <point x="463" y="699" type="curve"/>
      <point x="478" y="715" type="line"/>
      <point x="453" y="736"/>
      <point x="417" y="751"/>
    </contour>
    <contour>
      <point x="136" y="462" type="line"/>
      <point x="133" y="442" type="line"/>
      <point x="386" y="442" type="line"/>
      <point x="389" y="462" type="line"/>
    </contour>
  </outline>
</glyph>
<glyph name="Aringacute" format="2">
  <advance width="1374"/>
  <unicode hex="01FA"/>
  <anchor x="584" y="0" name="bottom"/>
  <anchor x="1250" y="0" name="ogonek"/>
  <anchor x="1010" y="1866" name="top"/>
  <outline>
    <contour>
      <point x="790" y="1400" type="line"/>
      <point x="-84" y="0" type="line"/>
      <point x="-36" y="0" type="line"/>
      <point x="814" y="1370" type="line"/>
      <point x="798" y="1372" type="line"/>
      <point x="1204" y="0" type="line"/>
      <point x="1250" y="0" type="line"/>
      <point x="834" y="1400" type="line"/>
    </contour>
    <contour>
      <point x="224" y="466" type="line"/>
      <point x="218" y="426" type="line"/>
      <point x="1088" y="426" type="line"/>
      <point x="1094" y="466" type="line"/>
    </contour>
    <contour>
      <point x="850" y="1730" type="curve" smooth="yes"/>
      <point x="744" y="1730"/>
      <point x="645" y="1636"/>
      <point x="645" y="1534" type="curve" smooth="yes"/>
      <point x="645" y="1450"/>
      <point x="715" y="1380"/>
      <point x="806" y="1380" type="curve" smooth="yes"/>
      <point x="910" y="1380"/>
      <point x="1010" y="1472"/>
      <point x="1010" y="1572" type="curve" smooth="yes"/>
      <point x="1010" y="1658"/>
      <point x="942" y="1730"/>
    </contour>
    <contour>
      <point x="844" y="1692" type="curve" smooth="yes"/>
      <point x="918" y="1692"/>
      <point x="972" y="1636"/>
      <point x="972" y="1568" type="curve" smooth="yes"/>
      <point x="972" y="1488"/>
      <point x="892" y="1418"/>
      <point x="812" y="1418" type="curve" smooth="yes"/>
      <point x="738" y="1418"/>
      <point x="685" y="1472"/>
      <point x="685" y="1540" type="curve" smooth="yes"/>
      <point x="685" y="1620"/>
      <point x="764" y="1692"/>
    </contour>
    <contour>
      <point x="892" y="1690" type="line"/>
      <point x="942" y="1672" type="line"/>
      <point x="1232" y="1835" type="line"/>
      <point x="1198" y="1861" type="line"/>
    </contour>
  </outline>
</glyph>
<glyph name="dotlessj" format="2">
  <advance width="208"/>
  <unicode hex="0237"/>
  <anchor x="155" y="517" name="top"/>
  <outline>
    <contour>
      <point x="-151" y="-179" type="line"/>
      <point x="-133" y="-188"/>
      <point x="-113" y="-192"/>
      <point x="-91" y="-193" type="curve"/>
      <point x="-16" y="-194"/>
      <point x="35" y="-140"/>
      <point x="56" y="-32" type="curve" smooth="yes"/>
      <point x="165" y="517" type="line"/>
      <point x="145" y="517" type="line"/>
      <point x="36" y="-30" type="line" smooth="yes"/>
      <point x="17" y="-124"/>
      <point x="-27" y="-174"/>
      <point x="-91" y="-173" type="curve"/>
      <point x="-108" y="-172"/>
      <point x="-125" y="-169"/>
      <point x="-141" y="-162" type="curve"/>
    </contour>
  </outline>
</glyph>
<glyph name="schwa" format="2">
  <advance width="574"/>
  <unicode hex="0259"/>
  <outline>
    <contour>
      <point x="307" y="517" type="curve" smooth="yes"/>
      <point x="227" y="517"/>
      <point x="154" y="487"/>
      <point x="102" y="436" type="curve"/>
      <point x="115" y="422" type="line"/>
      <point x="162" y="470"/>
      <point x="230" y="497"/>
      <point x="305" y="497" type="curve" smooth="yes"/>
      <point x="429" y="497"/>
      <point x="512" y="409"/>
      <point x="512" y="282" type="curve" smooth="yes"/>
      <point x="512" y="129"/>
      <point x="401" y="20"/>
      <point x="258" y="20" type="curve" smooth="yes"/>
      <point x="130" y="20"/>
      <point x="56" y="109"/>
      <point x="59" y="238" type="curve"/>
      <point x="516" y="238" type="line"/>
      <point x="518" y="258" type="line"/>
      <point x="41" y="258" type="line"/>
      <point x="27" y="108"/>
      <point x="112" y="0"/>
      <point x="256" y="0" type="curve" smooth="yes"/>
      <point x="409" y="0"/>
      <point x="532" y="120"/>
      <point x="532" y="283" type="curve" smooth="yes"/>
      <point x="532" y="420"/>
      <point x="440" y="517"/>
    </contour>
  </outline>
</glyph>
<glyph name="commaturnedmod" format="2">
  <advance width="341"/>
  <unicode hex="02BB"/>
  <outline>
    <contour>
      <point x="267" y="700" type="line"/>
      <point x="252" y="700" type="line"/>
      <point x="210" y="525" type="line"/>
      <point x="232" y="520" type="line"/>
    </contour>
  </outline>
</glyph>
<glyph name="uni02BB" format="2">
  <advance width="246"/>
  <unicode hex="02BB"/>
  <outline>
    <contour>
      <point x="316" y="1400" type="line"/>
      <point x="286" y="1400" type="line"/>
      <point x="202" y="1050" type="line"/>
      <point x="246" y="1040" type="line"/>
    </contour>
  </outline>
</glyph>
<glyph name="apostrophemod" format="2">
  <advance width="41"/>
  <unicode hex="02BC"/>
  <outline>
    <contour>
      <point x="45.063" y="440.616" type="line"/>
      <point x="63.0882" y="440.616" type="line"/>
      <point x="120.168" y="699.979" type="line"/>
      <point x="100.14" y="699.979" type="line"/>
    </contour>
  </outline>
</glyph>
<glyph name="ringhalfright" format="2">
  <advance width="343"/>
  <unicode hex="02BE"/>
  <outline>
    <contour>
      <point x="176" y="559" type="line"/>
      <point x="241" y="559"/>
      <point x="303" y="616"/>
      <point x="303" y="679" type="curve" smooth="yes"/>
      <point x="303" y="732"/>
      <point x="259" y="776"/>
      <point x="202" y="776" type="curve"/>
      <point x="200" y="756" type="line"/>
      <point x="247" y="756"/>
      <point x="283" y="721"/>
      <point x="283" y="677" type="curve" smooth="yes"/>
      <point x="283" y="625"/>
      <point x="231" y="579"/>
      <point x="178" y="579" type="curve"/>
    </contour>
  </outline>
</glyph>
<glyph name="uni02BE" format="2">
  <advance width="536"/>
  <unicode hex="02BE"/>
  <outline>
    <contour>
      <point x="277" y="1118" type="line"/>
      <point x="407" y="1118"/>
      <point x="531" y="1232"/>
      <point x="531" y="1358" type="curve" smooth="yes"/>
      <point x="531" y="1464"/>
      <point x="443" y="1552"/>
      <point x="329" y="1552" type="curve"/>
      <point x="325" y="1512" type="line"/>
      <point x="419" y="1512"/>
      <point x="491" y="1442"/>
      <point x="491" y="1354" type="curve" smooth="yes"/>
      <point x="491" y="1250"/>
      <point x="387" y="1158"/>
      <point x="281" y="1158" type="curve"/>
    </contour>
  </outline>
</glyph>
<glyph name="ringhalfleftmod" format="2">
  <advance width="366"/>
  <unicode hex="02BF"/>
  <outline>
    <contour>
      <point x="297" y="559" type="line"/>
      <point x="243" y="559"/>
      <point x="204" y="601"/>
      <point x="204" y="651" type="curve" smooth="yes"/>
      <point x="204" y="716"/>
      <point x="271" y="776"/>
      <point x="339" y="776" type="curve"/>
      <point x="335" y="756" type="line"/>
      <point x="280" y="756"/>
      <point x="224" y="708"/>
      <point x="224" y="654" type="curve" smooth="yes"/>
      <point x="224" y="613"/>
      <point x="256" y="579"/>
      <point x="301" y="579" type="curve"/>
    </contour>
  </outline>
</glyph>
<glyph name="verticallinemod" format="2">
  <advance width="80"/>
  <unicode hex="02C8"/>
  <outline>
    <contour>
      <point x="165" y="1040" type="line"/>
      <point x="235" y="1400" type="line"/>
      <point x="195" y="1400" type="line"/>
      <point x="125" y="1040" type="line"/>
    </contour>
  </outline>
</glyph>
<glyph name="macronmod" format="2">
  <advance width="700"/>
  <unicode hex="02C9"/>
  <anchor x="497" y="1240" name="top"/>
  <outline>
    <contour>
      <point x="293" y="1314" type="line"/>
      <point x="727" y="1314" type="line"/>
      <point x="735" y="1354" type="line"/>
      <point x="301" y="1354" type="line"/>
    </contour>
  </outline>
</glyph>
<glyph name="uni02C9" format="2">
  <advance width="700"/>
  <unicode hex="02C9"/>
  <anchor x="497" y="1240" name="top"/>
  <outline>
    <contour>
      <point x="293" y="1314" type="line"/>
      <point x="727" y="1314" type="line"/>
      <point x="735" y="1354" type="line"/>
      <point x="301" y="1354" type="line"/>
    </contour>
  </outline>
</glyph>
<glyph name="acutemod" format="2">
  <advance width="700"/>
  <unicode hex="02CA"/>
  <anchor x="538" y="1478" name="top"/>
  <outline>
    <contour>
      <point x="340" y="1258" type="line"/>
      <point x="390" y="1248" type="line"/>
      <point x="688" y="1458" type="line"/>
      <point x="654" y="1478" type="line"/>
    </contour>
  </outline>
</glyph>
<glyph name="secondtonechinese" format="2">
  <advance width="342"/>
  <unicode hex="02CA"/>
  <anchor x="172" y="517" name="_top"/>
  <anchor x="265" y="739" name="top"/>
  <outline>
    <contour>
      <point x="166" y="629" type="line"/>
      <point x="191" y="624" type="line"/>
      <point x="340" y="729" type="line"/>
      <point x="323" y="739" type="line"/>
    </contour>
  </outline>
</glyph>
<glyph name="gravemod" format="2">
  <advance width="700"/>
  <unicode hex="02CB"/>
  <anchor x="597" y="1320" name="top"/>
  <outline>
    <contour>
      <point x="365" y="1458" type="line"/>
      <point x="583" y="1248" type="line"/>
      <point x="637" y="1258" type="line"/>
      <point x="407" y="1478" type="line"/>
    </contour>
  </outline>
</glyph>
<glyph name="uni02CC" format="2">
  <advance width="80"/>
  <unicode hex="02CC"/>
  <outline>
    <contour>
      <point x="-127" y="-420" type="line"/>
      <point x="-57" y="-60" type="line"/>
      <point x="-97" y="-60" type="line"/>
      <point x="-167" y="-420" type="line"/>
    </contour>
  </outline>
</glyph>
<glyph name="verticallinelowmod" format="2">
  <advance width="343"/>
  <unicode hex="02CC"/>
  <outline>
    <contour>
      <point x="88" y="-210" type="line"/>
      <point x="123" y="-30" type="line"/>
      <point x="103" y="-30" type="line"/>
      <point x="68" y="-210" type="line"/>
    </contour>
  </outline>
</glyph>
<glyph name="gravecomb" format="2">
  <advance width="563"/>
  <unicode hex="0300"/>
  <anchor x="405" y="660" name="top"/>
  <outline>
    <contour>
      <point x="289" y="729" type="line"/>
      <point x="418" y="624" type="line"/>
      <point x="444" y="629" type="line"/>
      <point x="308" y="739" type="line"/>
    </contour>
  </outline>
</glyph>
<glyph name="acutecomb" format="2">
  <advance width="342"/>
  <unicode hex="0301"/>
  <anchor x="172" y="517" name="_top"/>
  <anchor x="265" y="739" name="top"/>
  <outline>
    <contour>
      <point x="166" y="629" type="line"/>
      <point x="192" y="624" type="line"/>
      <point x="321" y="729" type="line"/>
      <point x="302" y="739" type="line"/>
    </contour>
  </outline>
</glyph>
<glyph name="circumflexcomb" format="2">
  <advance width="423"/>
  <unicode hex="0302"/>
  <anchor x="302" y="670" name="top"/>
  <outline>
    <contour>
      <point x="179" y="624" type="line"/>
      <point x="205" y="624" type="line"/>
      <point x="318" y="722" type="line"/>
      <point x="306" y="722" type="line"/>
      <point x="381" y="624" type="line"/>
      <point x="407" y="624" type="line"/>
      <point x="330" y="734" type="line"/>
      <point x="298" y="734" type="line"/>
    </contour>
  </outline>
</glyph>
<glyph name="tildecomb" format="2">
  <advance width="543"/>
  <unicode hex="0303"/>
  <anchor x="348" y="640" name="top"/>
  <outline>
    <contour>
      <point x="475" y="710" type="line"/>
      <point x="468" y="672"/>
      <point x="440" y="649"/>
      <point x="408" y="649" type="curve" smooth="yes"/>
      <point x="360" y="649"/>
      <point x="352" y="714"/>
      <point x="296" y="714" type="curve" smooth="yes"/>
      <point x="252" y="714"/>
      <point x="224" y="682"/>
      <point x="214" y="633" type="curve"/>
      <point x="233" y="633" type="line"/>
      <point x="240" y="671"/>
      <point x="263" y="694"/>
      <point x="295" y="694" type="curve" smooth="yes"/>
      <point x="343" y="694"/>
      <point x="351" y="629"/>
      <point x="407" y="629" type="curve" smooth="yes"/>
      <point x="451" y="629"/>
      <point x="484" y="661"/>
      <point x="494" y="710" type="curve"/>
    </contour>
  </outline>
</glyph>
<glyph name="macroncomb" format="2">
  <advance width="509"/>
  <unicode hex="0304"/>
  <anchor x="328" y="620" name="top"/>
  <outline>
    <contour>
      <point x="206" y="657" type="line"/>
      <point x="463" y="657" type="line"/>
      <point x="467" y="677" type="line"/>
      <point x="210" y="677" type="line"/>
    </contour>
  </outline>
</glyph>
<glyph name="uni0304" format="2">
  <advance width="514"/>
  <unicode hex="0304"/>
  <anchor x="399" y="1034" name="_top"/>
  <anchor x="678" y="1240" name="top"/>
  <outline>
    <contour>
      <point x="160" y="1314" type="line"/>
      <point x="674" y="1314" type="line"/>
      <point x="682" y="1354" type="line"/>
      <point x="168" y="1354" type="line"/>
    </contour>
  </outline>
</glyph>
<glyph name="brevecomb" format="2">
  <advance width="457"/>
  <unicode hex="0306"/>
  <anchor x="271" y="517" name="_top"/>
  <anchor x="295" y="640" name="top"/>
  <outline>
    <contour>
      <point x="207" y="726" type="line"/>
      <point x="197" y="666"/>
      <point x="235" y="621"/>
      <point x="292" y="621" type="curve" smooth="yes"/>
      <point x="349" y="621"/>
      <point x="403" y="666"/>
      <point x="417" y="726" type="curve"/>
      <point x="397" y="726" type="line"/>
      <point x="386" y="678"/>
      <point x="342" y="641"/>
      <point x="295" y="641" type="curve" smooth="yes"/>
      <point x="248" y="641"/>
      <point x="220" y="678"/>
      <point x="227" y="726" type="curve"/>
    </contour>
  </outline>
</glyph>
<glyph name="uni0306" format="2">
  <advance width="500"/>
  <unicode hex="0306"/>
  <anchor x="364" y="1034" name="_top"/>
  <anchor x="612" y="1280" name="top"/>
  <outline>
    <contour>
      <point x="207" y="1452" type="line"/>
      <point x="187" y="1332"/>
      <point x="263" y="1242"/>
      <point x="377" y="1242" type="curve" smooth="yes"/>
      <point x="491" y="1242"/>
      <point x="599" y="1332"/>
      <point x="627" y="1452" type="curve"/>
      <point x="587" y="1452" type="line"/>
      <point x="565" y="1356"/>
      <point x="477" y="1282"/>
      <point x="383" y="1282" type="curve" smooth="yes"/>
      <point x="289" y="1282"/>
      <point x="233" y="1356"/>
      <point x="247" y="1452" type="curve"/>
    </contour>
  </outline>
</glyph>
<glyph name="dotaccentcomb" format="2">
  <advance width="304"/>
  <unicode hex="0307"/>
  <anchor x="516" y="1332" name="_center"/>
  <anchor x="268" y="1034" name="_top"/>
  <anchor x="516" y="1332" name="top"/>
  <outline>
    <contour>
      <point x="326" y="1384" type="curve" smooth="yes"/>
      <point x="294" y="1384"/>
      <point x="262" y="1356"/>
      <point x="262" y="1324" type="curve" smooth="yes"/>
      <point x="262" y="1300"/>
      <point x="280" y="1280"/>
      <point x="304" y="1280" type="curve" smooth="yes"/>
      <point x="336" y="1280"/>
      <point x="368" y="1308"/>
      <point x="368" y="1340" type="curve" smooth="yes"/>
      <point x="368" y="1364"/>
      <point x="350" y="1384"/>
    </contour>
  </outline>
</glyph>
<glyph name="dieresiscomb" format="2">
  <advance width="604"/>
  <unicode hex="0308"/>
  <anchor x="438" y="1034" name="_top"/>
  <anchor x="652" y="1260" name="top"/>
  <outline>
    <contour>
      <point x="326" y="1384" type="curve" smooth="yes"/>
      <point x="294" y="1384"/>
      <point x="262" y="1356"/>
      <point x="262" y="1324" type="curve" smooth="yes"/>
      <point x="262" y="1300"/>
      <point x="280" y="1280"/>
      <point x="304" y="1280" type="curve" smooth="yes"/>
      <point x="336" y="1280"/>
      <point x="368" y="1308"/>
      <point x="368" y="1340" type="curve" smooth="yes"/>
      <point x="368" y="1364"/>
      <point x="350" y="1384"/>
    </contour>
    <contour>
      <point x="626" y="1384" type="curve" smooth="yes"/>
      <point x="594" y="1384"/>
      <point x="562" y="1356"/>
      <point x="562" y="1324" type="curve" smooth="yes"/>
      <point x="562" y="1300"/>
      <point x="580" y="1280"/>
      <point x="604" y="1280" type="curve" smooth="yes"/>
      <point x="636" y="1280"/>
      <point x="668" y="1308"/>
      <point x="668" y="1340" type="curve" smooth="yes"/>
      <point x="668" y="1364"/>
      <point x="650" y="1384"/>
    </contour>
  </outline>
</glyph>
<glyph name="hookabovecomb" format="2">
  <advance width="359"/>
  <unicode hex="0309"/>
  <anchor x="258" y="715" name="top"/>
  <outline>
    <contour>
      <point x="250" y="751" type="curve" smooth="yes"/>
      <point x="228" y="751"/>
      <point x="205" y="742"/>
      <point x="182" y="729" type="curve"/>
      <point x="190" y="713" type="line"/>
      <point x="209" y="724"/>
      <point x="227" y="731"/>
      <point x="246" y="731" type="curve" smooth="yes"/>
      <point x="277" y="731"/>
      <point x="292" y="712"/>
      <point x="292" y="689" type="curve" smooth="yes"/>
      <point x="292" y="659"/>
      <point x="263" y="623"/>
      <point x="220" y="596" type="curve"/>
      <point x="239" y="588" type="line"/>
      <point x="283" y="617"/>
      <point x="312" y="656"/>
      <point x="312" y="693" type="curve" smooth="yes"/>
      <point x="312" y="725"/>
      <point x="292" y="751"/>
    </contour>
  </outline>
</glyph>
<glyph name="ringcomb" format="2">
  <advance width="433"/>
  <unicode hex="030A"/>
  <anchor x="272" y="517" name="_top"/>
  <anchor x="307" y="698" name="top"/>
  <outline>
    <contour>
      <point x="309" y="755" type="curve" smooth="yes"/>
      <point x="256" y="755"/>
      <point x="207" y="708"/>
      <point x="207" y="657" type="curve" smooth="yes"/>
      <point x="207" y="615"/>
      <point x="242" y="580"/>
      <point x="287" y="580" type="curve" smooth="yes"/>
      <point x="339" y="580"/>
      <point x="389" y="626"/>
      <point x="389" y="676" type="curve" smooth="yes"/>
      <point x="389" y="719"/>
      <point x="355" y="755"/>
    </contour>
    <contour>
      <point x="306" y="736" type="curve" smooth="yes"/>
      <point x="343" y="736"/>
      <point x="370" y="708"/>
      <point x="370" y="674" type="curve" smooth="yes"/>
      <point x="370" y="634"/>
      <point x="330" y="599"/>
      <point x="290" y="599" type="curve" smooth="yes"/>
      <point x="253" y="599"/>
      <point x="227" y="626"/>
      <point x="227" y="660" type="curve" smooth="yes"/>
      <point x="227" y="700"/>
      <point x="266" y="736"/>
    </contour>
  </outline>
</glyph>
<glyph name="hungarumlautcomb" format="2">
  <advance width="453"/>
  <unicode hex="030B"/>
  <anchor x="243" y="517" name="_top"/>
  <anchor x="316" y="739" name="top"/>
  <outline>
    <contour>
      <point x="181" y="629" type="line"/>
      <point x="202" y="624" type="line"/>
      <point x="297" y="728" type="line"/>
      <point x="280" y="739" type="line"/>
    </contour>
    <contour>
      <point x="300" y="629" type="line"/>
      <point x="321" y="624" type="line"/>
      <point x="416" y="728" type="line"/>
      <point x="399" y="739" type="line"/>
    </contour>
  </outline>
</glyph>
<glyph name="dblgravecomb" format="2">
  <advance width="422"/>
  <unicode hex="030F"/>
  <anchor x="334" y="661" name="top"/>
  <outline>
    <contour>
      <point x="306" y="728" type="line"/>
      <point x="380" y="624" type="line"/>
      <point x="404" y="629" type="line"/>
      <point x="325" y="739" type="line"/>
    </contour>
    <contour>
      <point x="187" y="728" type="line"/>
      <point x="261" y="624" type="line"/>
      <point x="285" y="629" type="line"/>
      <point x="206" y="739" type="line"/>
    </contour>
  </outline>
</glyph>
<glyph name="uni030F" format="2">
  <advance width="680"/>
  <unicode hex="030F"/>
  <anchor x="559" y="1034" name="_top"/>
  <anchor x="690" y="1322" name="top"/>
  <outline>
    <contour>
      <point x="530" y="1456" type="line"/>
      <point x="678" y="1248" type="line"/>
      <point x="726" y="1258" type="line"/>
      <point x="568" y="1478" type="line"/>
    </contour>
    <contour>
      <point x="292" y="1456" type="line"/>
      <point x="440" y="1248" type="line"/>
      <point x="488" y="1258" type="line"/>
      <point x="330" y="1478" type="line"/>
    </contour>
  </outline>
</glyph>
<glyph name="breveinvertedcomb" format="2">
  <advance width="500"/>
  <unicode hex="0311"/>
  <anchor x="854" y="1034" name="_top"/>
  <anchor x="652" y="1280" name="top"/>
  <outline>
    <contour>
      <point x="1081" y="1242" type="line"/>
      <point x="1101" y="1362"/>
      <point x="1025" y="1452"/>
      <point x="911" y="1452" type="curve" smooth="yes"/>
      <point x="797" y="1452"/>
      <point x="689" y="1362"/>
      <point x="661" y="1242" type="curve"/>
      <point x="701" y="1242" type="line"/>
      <point x="723" y="1338"/>
      <point x="811" y="1412"/>
      <point x="905" y="1412" type="curve" smooth="yes"/>
      <point x="999" y="1412"/>
      <point x="1055" y="1338"/>
      <point x="1041" y="1242" type="curve"/>
    </contour>
  </outline>
</glyph>
<glyph name="uni0312" format="2">
  <advance width="322"/>
  <unicode hex="0312"/>
  <anchor x="636" y="1034" name="_top"/>
  <anchor x="547" y="1488" name="bottom"/>
  <outline>
    <contour>
      <point x="811" y="1528" type="line"/>
      <point x="775" y="1528" type="line"/>
      <point x="631" y="1230" type="line"/>
      <point x="683" y="1230" type="line"/>
    </contour>
  </outline>
</glyph>
<glyph name="horncomb" format="2">
  <advance width="373"/>
  <unicode hex="031B"/>
  <outline>
    <contour>
      <point x="227" y="626" type="line"/>
      <point x="244" y="576"/>
      <point x="220" y="517"/>
      <point x="156" y="517" type="curve"/>
      <point x="152" y="500" type="line"/>
      <point x="228" y="500"/>
      <point x="267" y="568"/>
      <point x="248" y="634" type="curve"/>
    </contour>
  </outline>
</glyph>
<glyph name="commaaccentcomb" format="2">
  <advance width="337"/>
  <unicode hex="0326"/>
  <anchor x="81" y="-194" name="bottom"/>
  <outline>
    <contour>
      <point x="48" y="-214" type="line"/>
      <point x="66" y="-214" type="line"/>
      <point x="138" y="-65" type="line"/>
      <point x="112" y="-65" type="line"/>
    </contour>
  </outline>
</glyph>
<glyph name="uni0326" format="2">
  <advance width="322"/>
  <unicode hex="0326"/>
  <anchor x="90" y="0" name="_bottom"/>
  <anchor x="184" y="-388" name="bottom"/>
  <outline>
    <contour>
      <point x="-80" y="-428" type="line"/>
      <point x="-44" y="-428" type="line"/>
      <point x="100" y="-130" type="line"/>
      <point x="48" y="-130" type="line"/>
    </contour>
  </outline>
</glyph>
<glyph name="cedillacomb" format="2">
  <advance width="407"/>
  <unicode hex="0327"/>
  <anchor x="144" y="0" name="_bottom"/>
  <anchor x="91" y="-200" name="bottom"/>
  <anchor x="224" y="517" name="top"/>
  <outline>
    <contour>
      <point x="98" y="-73" type="line"/>
      <point x="103" y="-73"/>
      <point x="118" y="-73"/>
      <point x="127" y="-73" type="curve" smooth="yes"/>
      <point x="158" y="-73"/>
      <point x="174" y="-95"/>
      <point x="174" y="-121" type="curve" smooth="yes"/>
      <point x="174" y="-154"/>
      <point x="144" y="-192"/>
      <point x="93" y="-192" type="curve" smooth="yes"/>
      <point x="71" y="-192"/>
      <point x="46" y="-183"/>
      <point x="33" y="-171" type="curve"/>
      <point x="20" y="-191" type="line"/>
      <point x="34" y="-204"/>
      <point x="64" y="-213"/>
      <point x="89" y="-213" type="curve" smooth="yes"/>
      <point x="155" y="-213"/>
      <point x="196" y="-162"/>
      <point x="196" y="-117" type="curve" smooth="yes"/>
      <point x="196" y="-85"/>
      <point x="174" y="-55"/>
      <point x="128" y="-54" type="curve"/>
      <point x="154" y="0" type="line"/>
      <point x="135" y="5" type="line"/>
    </contour>
  </outline>
  <guideline angle="0" x="0" y="-75"/>
</glyph>
<glyph name="uni0327" format="2">
  <advance width="532"/>
  <unicode hex="0327"/>
  <anchor x="181" y="0" name="_bottom"/>
  <anchor x="204" y="-400" name="bottom"/>
  <anchor x="470" y="1034" name="top"/>
  <outline>
    <contour>
      <point x="115" y="-96" type="line"/>
      <point x="125" y="-96"/>
      <point x="155" y="-96"/>
      <point x="173" y="-96" type="curve" smooth="yes"/>
      <point x="235" y="-96"/>
      <point x="267" y="-140"/>
      <point x="267" y="-192" type="curve" smooth="yes"/>
      <point x="267" y="-258"/>
      <point x="207" y="-334"/>
      <point x="105" y="-334" type="curve" smooth="yes"/>
      <point x="61" y="-334"/>
      <point x="11" y="-316"/>
      <point x="-15" y="-292" type="curve"/>
      <point x="-41" y="-332" type="line"/>
      <point x="-13" y="-358"/>
      <point x="47" y="-376"/>
      <point x="97" y="-376" type="curve" smooth="yes"/>
      <point x="229" y="-376"/>
      <point x="311" y="-274"/>
      <point x="311" y="-184" type="curve" smooth="yes"/>
      <point x="311" y="-120"/>
      <point x="267" y="-60"/>
      <point x="175" y="-58" type="curve"/>
      <point x="210" y="15" type="line"/>
      <point x="172" y="25" type="line"/>
    </contour>
  </outline>
  <guideline angle="0" x="0" y="-150"/>
</glyph>
<glyph name="ogonekcomb" format="2">
  <advance width="393"/>
  <unicode hex="0328"/>
  <anchor x="212" y="0" name="_ogonek"/>
  <outline>
    <contour>
      <point x="206" y="16" type="line"/>
      <point x="96" y="-45"/>
      <point x="40" y="-87"/>
      <point x="40" y="-154" type="curve" smooth="yes"/>
      <point x="40" y="-191"/>
      <point x="62" y="-213"/>
      <point x="99" y="-213" type="curve" smooth="yes"/>
      <point x="122" y="-213"/>
      <point x="148" y="-205"/>
      <point x="174" y="-189" type="curve"/>
      <point x="168" y="-173" type="line"/>
      <point x="145" y="-186"/>
      <point x="123" y="-193"/>
      <point x="104" y="-193" type="curve" smooth="yes"/>
      <point x="80" y="-193"/>
      <point x="61" y="-179"/>
      <point x="61" y="-151" type="curve" smooth="yes"/>
      <point x="61" y="-98"/>
      <point x="110" y="-59"/>
      <point x="212" y="0" type="curve"/>
    </contour>
  </outline>
</glyph>
<glyph name="uni0328" format="2">
  <advance width="446"/>
  <unicode hex="0328"/>
  <anchor x="254" y="0" name="_ogonek"/>
  <outline>
    <contour>
      <point x="242" y="32" type="line"/>
      <point x="22" y="-90"/>
      <point x="-90" y="-174"/>
      <point x="-90" y="-308" type="curve" smooth="yes"/>
      <point x="-90" y="-382"/>
      <point x="-46" y="-426"/>
      <point x="28" y="-426" type="curve" smooth="yes"/>
      <point x="74" y="-426"/>
      <point x="126" y="-410"/>
      <point x="178" y="-378" type="curve"/>
      <point x="166" y="-346" type="line"/>
      <point x="120" y="-372"/>
      <point x="76" y="-386"/>
      <point x="38" y="-386" type="curve" smooth="yes"/>
      <point x="-10" y="-386"/>
      <point x="-48" y="-358"/>
      <point x="-48" y="-302" type="curve" smooth="yes"/>
      <point x="-48" y="-196"/>
      <point x="50" y="-118"/>
      <point x="254" y="0" type="curve"/>
    </contour>
  </outline>
</glyph>
<glyph name="macronbelowcomb" format="2">
  <advance width="634"/>
  <unicode hex="0331"/>
  <anchor x="196" y="0" name="_bottom"/>
  <outline>
    <contour>
      <point x="-48" y="-220" type="line"/>
      <point x="386" y="-220" type="line"/>
      <point x="394" y="-180" type="line"/>
      <point x="-40" y="-180" type="line"/>
    </contour>
  </outline>
</glyph>
<glyph name="strokeshortcomb" format="2">
  <advance width="570"/>
  <unicode hex="0335"/>
  <anchor x="321" y="441" name="_center"/>
  <outline>
    <contour>
      <point x="180" y="431" type="line"/>
      <point x="458" y="431" type="line"/>
      <point x="462" y="451" type="line"/>
      <point x="184" y="451" type="line"/>
    </contour>
  </outline>
</glyph>
<glyph name="strokelongcomb" format="2">
  <advance width="648"/>
  <unicode hex="0336"/>
  <anchor x="360" y="441" name="_center"/>
  <outline>
    <contour>
      <point x="180" y="431" type="line"/>
      <point x="536" y="431" type="line"/>
      <point x="540" y="451" type="line"/>
      <point x="184" y="451" type="line"/>
    </contour>
  </outline>
</glyph>
<glyph name="uni0336" format="2">
  <advance width="1200"/>
  <unicode hex="0336"/>
  <anchor x="742" y="882" name="_center"/>
  <outline>
    <contour>
      <point x="312" y="862" type="line"/>
      <point x="1024" y="862" type="line"/>
      <point x="1032" y="902" type="line"/>
      <point x="320" y="902" type="line"/>
    </contour>
  </outline>
</glyph>
<glyph name="slashshortcomb" format="2">
  <advance width="402"/>
  <unicode hex="0337"/>
  <outline>
    <contour>
      <point x="326" y="560" type="line"/>
      <point x="79" y="80" type="line"/>
      <point x="100" y="80" type="line"/>
      <point x="347" y="560" type="line"/>
    </contour>
  </outline>
</glyph>
<glyph name="slashlongcomb" format="2">
  <advance width="588"/>
  <unicode hex="0338"/>
  <outline>
    <contour>
      <point x="-21" y="0" type="line"/>
      <point x="741" y="1484" type="line"/>
      <point x="699" y="1484" type="line"/>
      <point x="-63" y="0" type="line"/>
    </contour>
  </outline>
</glyph>
<glyph name="uni0338" format="2">
  <advance width="588"/>
  <unicode hex="0338"/>
  <outline>
    <contour>
      <point x="-21" y="0" type="line"/>
      <point x="741" y="1484" type="line"/>
      <point x="699" y="1484" type="line"/>
      <point x="-63" y="0" type="line"/>
    </contour>
  </outline>
</glyph>
<glyph name="tonos" format="2">
  <advance width="186"/>
  <unicode hex="0384"/>
  <anchor x="152" y="1618" name="t.uni0308"/>
  <anchor x="-172" y="0" name="b.uni0324_3"/>
  <anchor x="144" y="0" name="m.uni0328_4"/>
  <outline>
    <contour>
      <point x="136" y="1214" type="line"/>
      <point x="254" y="1434" type="line"/>
      <point x="314" y="1434" type="line"/>
      <point x="176" y="1214" type="line"/>
    </contour>
  </outline>
</glyph>
<glyph name="Alphatonos" format="2">
  <advance width="1376"/>
  <unicode hex="0386"/>
  <anchor x="998" y="1400" name="t.uni0308"/>
  <anchor x="718" y="0" name="b.uni0324_3"/>
  <anchor x="1638" y="0" name="m.uni0328_4"/>
  <outline>
    <contour>
      <point x="-122" y="0" type="line"/>
      <point x="808" y="1400" type="line"/>
      <point x="848" y="1400" type="line"/>
      <point x="1218" y="0" type="line"/>
      <point x="1172" y="0" type="line"/>
      <point x="812" y="1368" type="line"/>
      <point x="832" y="1368" type="line"/>
      <point x="-76" y="0" type="line"/>
    </contour>
    <contour>
      <point x="176" y="422" type="line"/>
      <point x="204" y="460" type="line"/>
      <point x="1074" y="460" type="line"/>
      <point x="1086" y="422" type="line"/>
    </contour>
    <contour>
      <point x="212" y="1214" type="line"/>
      <point x="330" y="1434" type="line"/>
      <point x="390" y="1434" type="line"/>
      <point x="252" y="1214" type="line"/>
    </contour>
  </outline>
</glyph>
<glyph name="Epsilontonos" format="2">
  <advance width="714"/>
  <unicode hex="0388"/>
  <anchor x="451" y="700" name="t.uni0308"/>
  <anchor x="303" y="0" name="b.uni0324_3"/>
  <anchor x="632" y="0" name="m.uni0328_4"/>
  <outline>
    <contour>
      <point x="197" y="365" type="line"/>
      <point x="588" y="365" type="line"/>
      <point x="584" y="346" type="line"/>
      <point x="193" y="346" type="line"/>
    </contour>
    <contour>
      <point x="133" y="19" type="line"/>
      <point x="579" y="19" type="line"/>
      <point x="575" y="0" type="line"/>
      <point x="109" y="0" type="line"/>
      <point x="249" y="700" type="line"/>
      <point x="700" y="700" type="line"/>
      <point x="696" y="681" type="line"/>
      <point x="265" y="681" type="line"/>
    </contour>
    <contour>
      <point x="85" y="607" type="line"/>
      <point x="144" y="717" type="line"/>
      <point x="174" y="717" type="line"/>
      <point x="105" y="607" type="line"/>
    </contour>
  </outline>
</glyph>
<glyph name="Etatonos" format="2">
  <advance width="1684"/>
  <unicode hex="0389"/>
  <anchor x="990" y="1400" name="t.uni0308"/>
  <anchor x="948" y="1188" name="t.uni0307_1"/>
  <anchor x="710" y="0" name="b.uni0324_3"/>
  <outline>
    <contour>
      <point x="1518" y="1400" type="line"/>
      <point x="1558" y="1400" type="line"/>
      <point x="1278" y="0" type="line"/>
      <point x="1238" y="0" type="line"/>
    </contour>
    <contour>
      <point x="218" y="0" type="line"/>
      <point x="178" y="0" type="line"/>
      <point x="458" y="1400" type="line"/>
      <point x="498" y="1400" type="line"/>
    </contour>
    <contour>
      <point x="1386" y="692" type="line"/>
      <point x="346" y="692" type="line"/>
      <point x="354" y="730" type="line"/>
      <point x="1394" y="730" type="line"/>
    </contour>
    <contour>
      <point x="138" y="1214" type="line"/>
      <point x="256" y="1434" type="line"/>
      <point x="316" y="1434" type="line"/>
      <point x="178" y="1214" type="line"/>
    </contour>
  </outline>
</glyph>
<glyph name="Iotatonos" format="2">
  <advance width="648"/>
  <unicode hex="038A"/>
  <anchor x="594" y="1400" name="t.uni0308"/>
  <anchor x="314" y="0" name="b.uni0324_3"/>
  <anchor x="644" y="0" name="m.uni0328_4"/>
  <outline>
    <contour>
      <point x="202" y="0" type="line"/>
      <point x="482" y="1400" type="line"/>
      <point x="522" y="1400" type="line"/>
      <point x="242" y="0" type="line"/>
    </contour>
    <contour>
      <point x="134" y="1214" type="line"/>
      <point x="252" y="1434" type="line"/>
      <point x="312" y="1434" type="line"/>
      <point x="174" y="1214" type="line"/>
    </contour>
  </outline>
</glyph>
<glyph name="Omicrontonos" format="2">
  <advance width="1672"/>
  <unicode hex="038C"/>
  <anchor x="994" y="1400" name="t.uni0308"/>
  <anchor x="854" y="700" name="t.uni0307_1"/>
  <anchor x="1252" y="1400" name="t.uni031B_2"/>
  <anchor x="714" y="0" name="b.uni0324_3"/>
  <anchor x="1022" y="0" name="m.uni0328_4"/>
  <outline>
    <component base="O" xOffset="32"/>
    <contour>
      <point x="148" y="1214" type="line"/>
      <point x="266" y="1434" type="line"/>
      <point x="326" y="1434" type="line"/>
      <point x="188" y="1214" type="line"/>
    </contour>
  </outline>
</glyph>
<glyph name="Upsilontonos" format="2">
  <advance width="778"/>
  <unicode hex="038E"/>
  <anchor x="615" y="700" name="t.uni0308"/>
  <anchor x="521" y="277" name="t.uni0307_1"/>
  <anchor x="475" y="-0" name="b.uni0324_3"/>
  <outline>
    <contour>
      <point x="393" y="0" type="line"/>
      <point x="442" y="245" type="line"/>
      <point x="444" y="230" type="line"/>
      <point x="248" y="700" type="line"/>
      <point x="271" y="700" type="line"/>
      <point x="458" y="253" type="line"/>
      <point x="450" y="253" type="line"/>
      <point x="815" y="700" type="line"/>
      <point x="838" y="700" type="line"/>
      <point x="454" y="230" type="line"/>
      <point x="462" y="245" type="line"/>
      <point x="413" y="0" type="line"/>
    </contour>
    <contour>
      <point x="74" y="607" type="line"/>
      <point x="133" y="717" type="line"/>
      <point x="163" y="717" type="line"/>
      <point x="94" y="607" type="line"/>
    </contour>
  </outline>
</glyph>
<glyph name="Omegatonos" format="2">
  <advance width="910"/>
  <unicode hex="038F"/>
  <outline>
    <contour>
      <point x="-60" y="0" type="line"/>
      <point x="-56" y="20" type="line"/>
      <point x="223" y="20" type="line"/>
      <point x="137" y="76"/>
      <point x="77" y="253"/>
      <point x="96" y="350" type="qcurve" smooth="yes"/>
      <point x="111" y="426"/>
      <point x="191" y="554"/>
      <point x="307" y="650"/>
      <point x="448" y="703"/>
      <point x="525" y="703" type="qcurve" smooth="yes"/>
      <point x="602" y="703"/>
      <point x="723" y="650"/>
      <point x="801" y="554"/>
      <point x="829" y="426"/>
      <point x="814" y="350" type="qcurve" smooth="yes"/>
      <point x="795" y="253"/>
      <point x="663" y="76"/>
      <point x="555" y="20" type="qcurve"/>
      <point x="834" y="20" type="line"/>
      <point x="830" y="0" type="line"/>
      <point x="510" y="0" type="line"/>
      <point x="514" y="19" type="line"/>
      <point x="631" y="74"/>
      <point x="774" y="249"/>
      <point x="794" y="350" type="qcurve" smooth="yes"/>
      <point x="808" y="422"/>
      <point x="782" y="543"/>
      <point x="708" y="634"/>
      <point x="594" y="684"/>
      <point x="522" y="684" type="qcurve" smooth="yes"/>
      <point x="450" y="684"/>
      <point x="316" y="634"/>
      <point x="206" y="543"/>
      <point x="130" y="422"/>
      <point x="116" y="350" type="qcurve" smooth="yes"/>
      <point x="96" y="249"/>
      <point x="169" y="74"/>
      <point x="264" y="19" type="qcurve"/>
      <point x="260" y="0" type="line"/>
    </contour>
    <contour>
      <point x="81" y="607" type="line"/>
      <point x="140" y="717" type="line"/>
      <point x="170" y="717" type="line"/>
      <point x="101" y="607" type="line"/>
    </contour>
  </outline>
</glyph>
<glyph name="iotadieresistonos" format="2">
  <advance width="432"/>
  <unicode hex="0390"/>
  <anchor x="436" y="1124" name="t.uni0308"/>
  <anchor x="212" y="0" name="b.uni0324_3"/>
  <anchor x="528" y="0" name="m.uni0328_4"/>
  <outline>
    <contour>
      <point x="58" y="0" type="line"/>
      <point x="264" y="1034" type="line"/>
      <point x="304" y="1034" type="line"/>
      <point x="98" y="0" type="line"/>
    </contour>
    <contour>
      <point x="334" y="1310" type="line"/>
      <point x="452" y="1530" type="line"/>
      <point x="512" y="1530" type="line"/>
      <point x="374" y="1310" type="line"/>
    </contour>
    <contour>
      <point x="466" y="1130" type="qcurve" smooth="yes"/>
      <point x="446" y="1130"/>
      <point x="420" y="1162"/>
      <point x="424" y="1182" type="qcurve" smooth="yes"/>
      <point x="428" y="1204"/>
      <point x="466" y="1234"/>
      <point x="486" y="1234" type="qcurve" smooth="yes"/>
      <point x="508" y="1234"/>
      <point x="532" y="1204"/>
      <point x="528" y="1182" type="qcurve" smooth="yes"/>
      <point x="524" y="1162"/>
      <point x="488" y="1130"/>
    </contour>
    <contour>
      <point x="138" y="1130" type="qcurve" smooth="yes"/>
      <point x="118" y="1130"/>
      <point x="92" y="1162"/>
      <point x="96" y="1182" type="qcurve" smooth="yes"/>
      <point x="100" y="1204"/>
      <point x="138" y="1234"/>
      <point x="158" y="1234" type="qcurve" smooth="yes"/>
      <point x="180" y="1234"/>
      <point x="204" y="1204"/>
      <point x="200" y="1182" type="qcurve" smooth="yes"/>
      <point x="196" y="1162"/>
      <point x="160" y="1130"/>
    </contour>
  </outline>
</glyph>
<glyph name="Beta" format="2">
  <advance width="748"/>
  <unicode hex="0392"/>
  <anchor x="454" y="700" name="t.uni0308"/>
  <anchor x="314" y="-0" name="b.uni0324_3"/>
  <outline>
    <contour>
      <point x="63" y="0" type="line"/>
      <point x="203" y="700" type="line"/>
      <point x="480" y="700" type="line" smooth="yes"/>
      <point x="588" y="700"/>
      <point x="697" y="611"/>
      <point x="680" y="523" type="qcurve" smooth="yes"/>
      <point x="668" y="465"/>
      <point x="597" y="388"/>
      <point x="489" y="350"/>
      <point x="424" y="350" type="qcurve"/>
      <point x="444" y="363" type="line"/>
      <point x="525" y="363"/>
      <point x="623" y="322"/>
      <point x="661" y="242"/>
      <point x="650" y="183" type="qcurve" smooth="yes"/>
      <point x="632" y="95"/>
      <point x="488" y="0"/>
      <point x="360" y="0" type="qcurve" smooth="yes"/>
    </contour>
    <contour>
      <point x="87" y="19" type="line"/>
      <point x="368" y="19" type="line" smooth="yes"/>
      <point x="480" y="19"/>
      <point x="613" y="98"/>
      <point x="630" y="183" type="qcurve" smooth="yes"/>
      <point x="647" y="268"/>
      <point x="545" y="346"/>
      <point x="433" y="346" type="qcurve" smooth="yes"/>
      <point x="147" y="346" type="line"/>
      <point x="151" y="365" type="line"/>
      <point x="417" y="365" type="line" smooth="yes"/>
      <point x="517" y="365"/>
      <point x="644" y="445"/>
      <point x="660" y="523" type="qcurve" smooth="yes"/>
      <point x="675" y="601"/>
      <point x="580" y="681"/>
      <point x="480" y="681" type="qcurve" smooth="yes"/>
      <point x="219" y="681" type="line"/>
    </contour>
  </outline>
</glyph>
<glyph name="Gamma" format="2">
  <advance width="561"/>
  <unicode hex="0393"/>
  <anchor x="379" y="700" name="t.uni0308"/>
  <outline>
    <contour>
      <point x="67" y="0" type="line"/>
      <point x="207" y="700" type="line"/>
      <point x="623" y="700" type="line"/>
      <point x="619" y="681" type="line"/>
      <point x="214" y="681" type="line"/>
      <point x="225" y="690" type="line"/>
      <point x="87" y="0" type="line"/>
    </contour>
  </outline>
</glyph>
<glyph name="Delta" format="2">
  <advance width="1374"/>
  <unicode hex="0394"/>
  <outline>
    <contour>
      <point x="789" y="1398" type="line"/>
      <point x="-83" y="0" type="line"/>
      <point x="-35" y="0" type="line"/>
      <point x="803" y="1352" type="line"/>
      <point x="1203" y="0" type="line"/>
      <point x="1249" y="0" type="line"/>
      <point x="833" y="1398" type="line"/>
    </contour>
    <contour>
      <point x="-47" y="40" type="line"/>
      <point x="-53" y="0" type="line"/>
      <point x="1221" y="0" type="line"/>
      <point x="1217" y="40" type="line"/>
    </contour>
  </outline>
</glyph>
<glyph name="Eta" format="2">
  <advance width="816"/>
  <unicode hex="0397"/>
  <anchor x="469" y="700" name="t.uni0308"/>
  <anchor x="448" y="594" name="t.uni0307_1"/>
  <anchor x="329" y="0" name="b.uni0324_3"/>
  <outline>
    <contour>
      <point x="733" y="700" type="line"/>
      <point x="753" y="700" type="line"/>
      <point x="613" y="0" type="line"/>
      <point x="593" y="0" type="line"/>
    </contour>
    <contour>
      <point x="83" y="0" type="line"/>
      <point x="63" y="0" type="line"/>
      <point x="203" y="700" type="line"/>
      <point x="223" y="700" type="line"/>
    </contour>
    <contour>
      <point x="667" y="346" type="line"/>
      <point x="147" y="346" type="line"/>
      <point x="151" y="365" type="line"/>
      <point x="671" y="365" type="line"/>
    </contour>
  </outline>
</glyph>
<glyph name="Theta" format="2">
  <advance width="801"/>
  <unicode hex="0398"/>
  <anchor x="497" y="700" name="t.uni0308"/>
  <anchor x="427" y="350" name="t.uni0307_1"/>
  <anchor x="626" y="700" name="t.uni031B_2"/>
  <anchor x="357" y="0" name="b.uni0324_3"/>
  <anchor x="511" y="0" name="m.uni0328_4"/>
  <anchor x="379" y="0" name="bottom"/>
  <anchor x="420" y="352" name="center"/>
  <anchor x="567" y="0" name="ogonek"/>
  <anchor x="453" y="700" name="top"/>
  <anchor x="98" y="700" name="topleft"/>
  <anchor x="615" y="700" name="topright"/>
  <outline>
    <contour>
      <point x="204" y="363" type="line"/>
      <point x="639" y="363" type="line"/>
      <point x="634" y="339" type="line"/>
      <point x="199" y="339" type="line"/>
    </contour>
    <contour>
      <point x="453" y="704" type="curve" smooth="yes"/>
      <point x="651" y="704"/>
      <point x="798" y="545"/>
      <point x="779" y="350" type="curve" smooth="yes"/>
      <point x="760" y="157"/>
      <point x="581" y="-3"/>
      <point x="385" y="-3" type="curve" smooth="yes"/>
      <point x="186" y="-3"/>
      <point x="41" y="157"/>
      <point x="60" y="353" type="curve" smooth="yes"/>
      <point x="79" y="546"/>
      <point x="256" y="704"/>
    </contour>
    <contour>
      <point x="453" y="684" type="curve" smooth="yes"/>
      <point x="265" y="684"/>
      <point x="98" y="535"/>
      <point x="80" y="351" type="curve" smooth="yes"/>
      <point x="62" y="167"/>
      <point x="199" y="17"/>
      <point x="385" y="17" type="curve" smooth="yes"/>
      <point x="572" y="17"/>
      <point x="741" y="167"/>
      <point x="759" y="352" type="curve" smooth="yes"/>
      <point x="777" y="534"/>
      <point x="638" y="684"/>
    </contour>
  </outline>
</glyph>
